<?xml version="1.0" encoding="UTF-8"?><svg id="a" xmlns="http://www.w3.org/2000/svg" viewBox="0 0 210.351 216.449"><path d="M22.718,165.623c.253-3.351,3.234-7.564,4.602-10.618,1.67-3.727,3.381-7.437,5.005-11.184-.448-1.778-4.55-3.976-5.893-5.199-2.261-2.058-4.409-4.243-6.429-6.539-3.935-4.473-7.357-9.39-10.184-14.634C3.698,106.094.28,93.283.203,80.371.05,54.958,12.175,30.388,32.725,15.358,53.567.115,81.531-4.147,105.996,4.218c22.517,7.699,40.663,25.75,48.736,48.075,5.067,14.013,6.196,29.324,3.101,43.909-3.029,14.279-10.147,25.872-18.998,37.225,3.172,3.205,6.318,6.381,9.51,9.607,7.467-6.411,12.702.671,17.993,5.978,6.66,6.679,13.322,13.358,19.983,20.036,6.66,6.677,13.393,13.29,19.972,20.047,2.648,2.72,4.973,5.633,3.699,9.663-1.174,3.717-5.27,6.569-7.938,9.212-2.603,2.578-5.392,6.57-9.365,6.833-4.371.289-7.067-3.261-9.82-6.039-6.633-6.695-13.3-13.358-19.951-20.036-6.521-6.547-13.039-13.097-19.538-19.666-2.518-2.545-6.219-5.177-7.027-8.866-.839-3.829,1.68-5.118,2.758-8.187-3.059-3.367-6.427-6.484-9.63-9.807-1.911.516-3.825,2.691-5.421,3.774-2.209,1.499-4.499,2.878-6.862,4.12-4.43,2.329-9.082,4.245-13.861,5.73-5.143,1.598-10.416,2.659-15.782,3.131-2.915.256-5.846.349-8.772.329-2.177-.015-4.708-.647-6.843-.291-2.917,7.747-5.163,15.834-8.372,23.461-1.515-.274-2.82-1.12-4.27-1.57-.093-.552.13-1.031.312-1.532.271-.742.487-1.503.726-2.256.833-1.521,7.605-18.215,6.741-18.795-.342-.152-.691-.194-1.047-.125-1.656,1.811-2.455,6.179-3.301,8.431-1.269,3.376-2.498,6.759-3.681,10.166-.423.461-.412,1.1-.669,1.63-.324.244-.366.589-.34.957-.11.22-.22.44-.33.66-.651-.242-1.297-.501-1.955-.723-.857-.289-1.629-.818-2.557-.902-.499-.361-1.079-.523-1.66-.683-.04-.214-.08-.428-.121-.642,1.72-3.995,3.212-8.093,4.782-12.149.807-2.083,1.991-4.319,2.527-6.5.079-.32.989-3.309-.744-2.06-1.584,3.218-2.681,6.753-3.982,10.101-1.27,3.266-3.158,6.775-3.797,10.225-.273.04-.546.079-.818.119-1.868-.796-3.736-1.592-5.604-2.388-.415-2.457,2.764-7.351,3.69-9.65,1.423-3.533,2.855-7.063,4.287-10.592-2.502-1.341-4.462,7.036-5.278,9.046-.672,1.653-2.733,9.764-4.426,10.408-1.821-.744-3.642-1.488-5.463-2.232-.198-.195-.538-.209-.653-.51.127-.309.376-.575.339-.943.294-.223.354-.543.367-.883.164-.087.248-.219.228-.409.284-.378.415-.821.543-1.265,2.725-5.211,4.701-10.942,7.005-16.356-2.232-1.572-3.257,3.789-3.948,5.433-1.486,3.54-3.478,7.191-4.484,10.887-.072.065-.095.145-.07.238-.253.179-.314.438-.306.727-.24.173-.292.425-.289.698-.316.228-.353.57-.375.919-.167.097-.243.248-.258.435-.128.043-.256.087-.384.13-1.919-.958-3.927-1.707-5.913-2.506-.132-2.041,2.239-5.522,3.027-7.319.89-2.03,1.779-4.061,2.668-6.092.753-1.719,2.703-4.566,2.836-6.456.023-.323.418-2.551-.865-1.661-1.788,3.32-3.111,6.964-4.625,10.418-1.245,2.843-2.458,8.333-4.76,10.417-1.318-.559-2.636-1.117-3.954-1.676ZM67.127,119.074c1.471.805,3.056,1.342,4.613,1.946-3.124,7.648-6.43,15.31-9.103,23.13,2.482,1.183,4.436-7.346,5.226-9.367.921-2.356,1.843-4.712,2.768-7.067.706-1.799,1.182-4.716,2.655-6.06,1.67.718,3.339,1.436,5.009,2.154-1.008,4.078-2.768,8.043-4.208,11.987-.544,1.491-4.339,8.918-3.478,10.117,2.013,1.039,3.736-6.577,4.278-8.039,1.65-4.458,3.299-8.916,4.949-13.374,1.226.458,2.451.916,3.677,1.374-.022,3.503-2.698,7.955-3.895,11.295-.685,1.911-3.724,7.417-3.151,9.317,26.156,1.824,51.689-13.491,63.312-36.802,10.977-22.014,8.984-48.924-5.256-68.996-14.256-20.095-39.094-30.692-63.486-27.497-24.044,3.149-44.684,19.425-53.524,41.97-5.801,14.794-6.162,31.204-.986,46.236,2.366,6.871,5.858,13.356,10.311,19.102,2.675,3.452,6.756,9.388,10.997,11.03,3.27-6.741,5.528-14.397,9.485-20.768,1.224.492,2.448.984,3.672,1.476.105,1.781-2.022,4.81-2.721,6.376-.912,2.044-1.806,4.096-2.706,6.146-1.008,2.297-2.022,4.591-3.015,6.894-.192.445-1.713,4.239.115,3.398,1.757-3.467,3.172-7.147,4.736-10.706,1.56-3.55,2.78-8.277,5.136-11.364l4.925,2.065c.118,4.246-3.789,10.029-5.437,13.938-.945,2.242-1.879,4.489-2.81,6.738-.162.391-1.796,4.017.127,3.293,1.075-1.836,7.04-16.193,9.675-23.29,1.524.623,3.048,1.247,4.572,1.87,1.807,1.865-2.927,10.289-3.731,12.3-.983,2.459-1.968,4.918-2.951,7.378-.414,1.036-1.933,3.311-1.608,4.49.356.261.73.443,1.119.456,1.125-.483,2.173-5.029,2.628-6.169.856-2.144,1.712-4.289,2.568-6.433.778-1.948,2.858-10.151,5.516-10.544Z" fill="#243b5b" stroke-width="0"/><path d="M15.411,216.376c-2.685.012-5.369.023-8.054.035-.586-2.038,2.742-6.886,3.635-8.935,1.093-2.506,3.823-6.51,3.876-9.223.18-.123.361-.246.541-.369,2.041,1.045,4.144,1.943,6.323,2.66.083,2.265-2.04,5.398-2.909,7.462-1.168,2.774-2.429,5.524-3.411,8.369Z" fill="#243b5b" stroke-width="0"/><path d="M62.19,185.931c-2.715,8-5.289,16.147-8.466,23.976-1.496-.557-2.992-1.114-4.489-1.672-.816-2.518,2.918-8.831,3.794-11.193,1.5-4.043,2.581-9.242,4.945-12.878,1.442.502,2.845,1.095,4.216,1.767Z" fill="#253d5c" stroke-width="0"/><path d="M10.786,192.315c1.082-3.984,3.388-7.895,5.067-11.662,1.744-3.912,3.332-7.962,5.343-11.744,1.364.524,2.728,1.049,4.092,1.573.086.52-.19.939-.384,1.382-2.518,5.741-5.054,11.475-7.541,17.23-.684,1.582-1.528,3.103-1.943,4.795-.257.147-.534.154-.818.124-1.19-.75-2.576-1.059-3.816-1.698Z" fill="#253d5c" stroke-width="0"/><path d="M5.606,216.332c-1.823.193-3.644.051-5.606.109,2.991-7.129,6.174-13.964,9.27-20.838.332-.008.627.111.931.236,1.194.493,2.395.966,3.594,1.446,0,.09.008.179.024.267-1.813,1.967-2.821,6.13-3.882,8.54-1.292,2.934-3.992,6.997-4.33,10.24Z" fill="#253d5c" stroke-width="0"/><path d="M25.157,216.368l-8.028.039c-.12-.525.194-.951.373-1.382,1.909-4.581,3.85-9.149,5.782-13.721,2.191.91,4.383,1.821,6.574,2.731-1.126,4.219-3.832,8.051-4.702,12.333Z" fill="#243b5b" stroke-width="0"/><path d="M25.157,216.368c.87-4.282,3.575-8.113,4.702-12.333.674-.975,1.078-2.056,1.268-3.221.416-.315.505-.806.685-1.251,2.43-6.008,4.887-12.005,7.278-18.028.593-1.494,1.373-2.926,1.677-4.53.756-1.001,1.327-2.072,1.287-3.376,1.693-.644,3.754-8.754,4.426-10.408.816-2.009,2.776-10.386,5.278-9.046-1.432,3.53-2.864,7.059-4.287,10.592-.926,2.299-4.105,7.193-3.69,9.65-.257.189-.504.395-.602.708-.266.847-.516,1.7-.772,2.55-.637.762-.884,1.715-1.245,2.605-2.737,6.738-5.454,13.483-8.181,20.225-.121.299-.295.58-.258.921-.527,1.054-1.084,2.097-1.301,3.274-.968,1.823-1.639,3.829-2.413,5.741-.53,1.311-2.59,4.55-2.156,5.972-.565-.016-1.131-.031-1.696-.047Z" fill="#7bbabc" stroke-width="0"/><path d="M26.853,216.415c-.434-1.422,1.626-4.661,2.156-5.972.774-1.912,1.444-3.919,2.413-5.741l6.533,2.681c-.086.981-.595,1.82-.93,2.714-.788,2.101-1.624,4.184-2.44,6.275-2.577.015-5.154.03-7.732.045Z" fill="#243b5b" stroke-width="0"/><path d="M23.284,201.304c-1.932,4.572-3.872,9.14-5.782,13.721-.179.431-.493.857-.373,1.382-.573-.01-1.145-.02-1.718-.03.982-2.845,2.243-5.596,3.411-8.369.869-2.064,2.992-5.197,2.909-7.462.827-.898,1.284-1.937,1.21-3.177,2.128-.751,4.19-9.04,5.039-11.063,1.038-2.474,2.075-4.948,3.109-7.423.548-1.311,2.136-3.628,1.946-5.12.473-.254.634-.705.75-1.185.46.072.503-.687,1.114-.485-.066.848-.705,1.608-.517,2.505-1.606,4.166-3.336,8.272-5.077,12.383-1.059,2.501-5.051,8.498-4.433,11.176-.945.839-1.132,2.061-1.589,3.146Z" fill="#7bbabc" stroke-width="0"/><path d="M57.974,184.164c-2.364,3.636-3.445,8.835-4.945,12.878-.876,2.361-4.61,8.675-3.794,11.193-.938.887-1.129,2.079-1.335,3.266-.742,1.248-1.101,2.659-1.685,3.975-.132.298-.242.596-.176.93-.57-.014-1.14-.027-1.71-.041.169-.499.345-.996.506-1.498.45-1.398,1.211-2.69,1.428-4.169.769-.898,1.019-1.981,1.112-3.12.557-.432.621-1.118.842-1.709,2.075-5.549,4.149-11.099,6.171-16.668.697-1.919,1.544-3.787,2.034-5.78l.29-.501.025-.025c.178-.019.279-.091.2-.288l.116-.65c.661-.496.695-1.205.656-1.938.11-.22.22-.44.33-.66.404-.216.345-.596.34-.957.257-.529.246-1.169.669-1.63.476-.077.887.101,1.288.323-.239.753-.455,1.515-.726,2.256-.183.5-.406.98-.312,1.532-.227.133-.462.246-.551.534-.281.908-.687,1.781-.773,2.744Z" fill="#7bbabc" stroke-width="0"/><path d="M34.584,216.37c.816-2.09,1.652-4.174,2.44-6.275.335-.894.844-1.733.93-2.714.804-.956,1.037-2.118,1.191-3.308,1.806-.756,3.589-8.58,4.317-10.449,1.72-4.418,3.282-8.902,5.183-13.249l1.559-.032c-.01.176-.021.353-.031.529-1.386,1.282-1.882,4.414-2.535,6.093-.834,2.142-1.668,4.284-2.503,6.425-.555,1.425-5.088,10.512-4.027,11.539-.309.124-.539.31-.692.63-.374.779-.703,1.569-.868,2.421-1.256,2.626-2.181,5.384-3.237,8.089-.036.092-.002.212,0,.32-.575-.006-1.151-.013-1.726-.019Z" fill="#7bbabc" stroke-width="0"/><path d="M36.31,216.389c-.001-.107-.036-.227,0-.32,1.056-2.706,1.982-5.464,3.237-8.089,2.226.936,4.403,1.995,6.715,2.717-.217,1.478-.977,2.77-1.428,4.169-.162.502-.337.999-.506,1.498-2.673.008-5.346.017-8.02.025Z" fill="#253d5c" stroke-width="0"/><path d="M5.606,216.332c.338-3.244,3.039-7.307,4.33-10.24,1.061-2.41,2.069-6.574,3.882-8.54.37.204.847.248,1.049.703-.052,2.712-2.783,6.717-3.876,9.223-.893,2.048-4.22,6.896-3.635,8.935-.584-.027-1.167-.053-1.751-.08Z" fill="#7abbbe" stroke-width="0"/><path d="M46.04,216.405c-.066-.334.044-.632.176-.93.584-1.315.942-2.727,1.685-3.975,1.46.592,2.92,1.184,4.381,1.777.039,1.121-.679,1.998-.855,3.088-1.866.136-3.626.072-5.386.04Z" fill="#283f5a" stroke-width="0"/><path d="M52.281,213.277c-1.46-.592-2.92-1.184-4.381-1.777.206-1.186.398-2.378,1.335-3.266,1.496.557,2.992,1.114,4.489,1.672-.122,1.111-.694,2.067-1.081,3.086-.047.123-.238.191-.362.284Z" fill="#e3c05e" stroke-width="0"/><path d="M57.974,184.164c.086-.963.493-1.836.773-2.744.089-.288.324-.402.551-.534,1.45.45,2.755,1.295,4.27,1.57-.299,1.222-.828,2.353-1.379,3.475-1.371-.672-2.774-1.265-4.216-1.767Z" fill="#e4bf55" stroke-width="0"/><path d="M25.288,170.483c-1.364-.524-2.728-1.049-4.092-1.573.226-1.225.793-2.293,1.521-3.286,1.318.559,2.636,1.117,3.954,1.676-.039,1.062-.574,2.293-1.383,3.184Z" fill="#e5c159" stroke-width="0"/><path d="M13.794,197.284c-1.199-.48-2.401-.953-3.594-1.446-.303-.125-.598-.244-.931-.236.27-1.204.846-2.267,1.516-3.287,1.24.639,2.626.948,3.816,1.698.064.349.22.658.031,1.057-.336.711-.565,1.473-.839,2.214Z" fill="#e4bf55" stroke-width="0"/><path d="M47.316,110.762c-3.957,6.37-6.215,14.026-9.485,20.768-4.241-1.642-8.321-7.578-10.997-11.03-4.453-5.746-7.945-12.231-10.311-19.102-5.175-15.032-4.814-31.442.986-46.236,8.84-22.546,29.48-38.821,53.524-41.97,24.392-3.195,49.23,7.402,63.486,27.497,14.24,20.072,16.232,46.982,5.256,68.996-11.623,23.311-37.157,38.626-63.312,36.802-.573-1.9,2.466-7.405,3.151-9.317,1.197-3.34,3.873-7.793,3.895-11.295.126-.093.308-.158.371-.283.685-1.354,1.49-2.661,1.733-4.198,2.319-3.736,6.062-4.472,8.849-7.395,2.67-2.8,2.584-7.803,4.21-11.231.978.309,1.957.619,2.935.928-.126,1.421-1.528,2.564-.865,4.067.624,1.416,2.665,1.78,4.039,1.774,3.255-.014,6.161-2.42,7.013-5.52.765-2.782-.144-5.866-2.419-7.686-3.638-2.911-3.821.432-5.807,2.592-.933-.801-2.085-1.185-3.181-1.676,1.025-3.552,2.324-7.011,3.621-10.469.469-1.249.867-2.534,1.556-3.693,1.272.557,2.493,1.244,3.884,1.492-.154,1.388-1.61,2.773-.968,4.236.603,1.374,2.784,1.728,4.068,1.706,2.871-.049,5.728-2.032,6.759-4.686,1.04-2.678.525-5.868-1.507-7.916-3.136-3.16-4.744-1.417-6.291,1.828-1.304-.511-2.607-1.022-3.911-1.533,1.526-4.572,4.081-9.881,6.681-13.941.996.547,1.951,1.189,3.113,1.356-.646,1.726-1.761,3.294-.366,4.887,1.091,1.245,3.534,1.139,4.953.818,2.81-.636,4.956-2.775,5.598-5.576.619-2.703-.289-5.94-2.639-7.591-3.238-2.275-4.268-.006-5.586,2.742-.896-.452-1.791-.904-2.687-1.356,1.511-2.901,4.902-7.005,4.73-10.355-.176-3.422-3.459-4.355-5.805-6.078-5.488-4.029-8.133-10.39-14.947-12.76-3.323-1.156-6.613-1.114-10.061-.923-3.887.215-6.969-.585-10.696-1.16-7.834-1.208-5.418,7.652-8.788,11.542l-2.826-1.029c1.346-3.701.888-6.333-3.958-5.759-2.99.354-5.504,2.708-6.225,5.605-.654,2.627.23,5.827,2.388,7.553,3.198,2.558,4.593-.085,5.862-2.785.168.277.345.581.665.666.877.232,1.643.789,2.57.868-.526,1.564-1.057,3.125-1.577,4.691-.586,1.764-1.417,3.442-1.847,5.261-.104.178-.226.347-.308.535-.549,1.256-.921,2.587-1.608,3.784-1.239-.55-2.415-1.277-3.822-1.349,1.262-3.504,1.257-6.17-3.482-5.883-2.752.167-5.172,1.852-6.291,4.36-1.233,2.764-.737,6.047,1.406,8.213,3.173,3.208,4.882,1.297,6.382-1.94.743.302,1.498.578,2.224.917.522.244,1.133.375,1.459.935-1.048,2.898-2.339,5.695-3.636,8.486-.817,1.758-1.527,3.576-2.626,5.194-.431-.176-.88-.32-1.29-.536-.652-.344-1.331-.573-2.06-.661.532-3.265,2.007-5.937-3.037-5.955-3.015-.011-5.716,1.997-6.802,4.759-1.088,2.767-.481,6.25,1.773,8.286,3.656,3.301,4.112-.016,6.138-2.355.988.393,1.976.786,2.964,1.179-1.789,3.426-5.255,7.849-5.295,11.828-.021,2.103,1.08,4.02,1.297,6.106.199,1.917-.337,3.653-.293,5.54-1.09,1.282-1.624,2.807-1.928,4.431ZM22.63,78.554c0,2.043.001,4.385,2.437,4.953,1.767.412,3.033-.539,3.737-2.011.902-1.888.312-4.656.506-6.713.291-3.082.906-6.141,1.728-9.122,2.74-9.937,8.636-18.077,16.073-24.993,1.634-1.519,3.537-3.474,1.639-5.666-1.743-2.013-3.624-.89-5.3.366-4.075,3.051-7.673,7.119-10.545,11.303-6.36,9.262-10.34,20.56-10.274,31.884Z" fill="#7dc9cc" stroke-width="0"/><path d="M59.015,115.725c-2.636,7.096-8.6,21.454-9.675,23.29-1.923.724-.289-2.902-.127-3.293.931-2.248,1.865-4.495,2.81-6.738,1.648-3.909,5.555-9.692,5.437-13.938.811-1.418,1.25-2.943,1.313-4.576,2.04-1.772,2.613-8.173,3.366-10.743,1.201-4.097,2.432-8.184,3.654-12.275.568-1.191,1.171-2.373,1.048-3.757.078-.202.175-.398.23-.606,1.221-4.592,2.604-9.137,3.992-13.681.507-.189,1.027-.198,1.555-.123-4.052,13.928-8.206,27.825-12.207,41.768-.757,1.47-1.186,3.038-1.396,4.672Z" fill="#7abbbe" stroke-width="0"/><path d="M73.284,121.656c-1.473,1.343-1.948,4.26-2.655,6.06-.924,2.355-1.846,4.711-2.768,7.067-.79,2.02-2.744,10.549-5.226,9.367,2.673-7.82,5.979-15.482,9.103-23.13,1.119-1.265,1.891-2.715,2.315-4.351,3.649-5.838,6.696-12.118,9.952-18.183,3.384-6.305,6.307-13.697,10.666-19.386.257.357.513.714.77,1.071-.124.361-.248.723-.373,1.084-1.341,1.016-2.336,4.171-3.148,5.669-.804,1.484-3.014,4.261-3.023,6.025l.018-.006c-.28-.082-.339.156-.453.315-.896.815-1.322,1.904-1.748,2.993-1.924,3.936-4.02,7.778-6.09,11.638-1.071,1.997-5.365,7.416-4.981,9.631-1.141,1.177-1.754,2.655-2.359,4.137Z" fill="#7abbbe" stroke-width="0"/><path d="M25.288,170.483c.809-.891,1.344-2.122,1.383-3.184,2.302-2.084,3.515-7.574,4.76-10.417,1.513-3.454,2.837-7.098,4.625-10.418,1.283-.89.888,1.338.865,1.661-.133,1.89-2.083,4.737-2.836,6.456-.889,2.031-1.778,4.061-2.668,6.092-.787,1.797-3.159,5.278-3.027,7.319-.889.904-1.181,2.088-1.524,3.249-3.682,7.541-6.818,15.384-10.211,23.06-.45-.024-.978.187-1.236-.412.415-1.692,1.26-3.213,1.943-4.795,2.487-5.755,5.022-11.488,7.541-17.23.194-.443.47-.861.384-1.382Z" fill="#7bbabc" stroke-width="0"/><path d="M52.535,112.981c-2.357,3.087-3.577,7.814-5.136,11.364-1.564,3.559-2.98,7.239-4.736,10.706-1.827.841-.306-2.953-.115-3.398.993-2.303,2.007-4.597,3.015-6.894.9-2.05,1.794-4.102,2.706-6.146.698-1.565,2.825-4.595,2.721-6.376.863-.839,1.929-2.969,2.15-4.297.428-.809.874-1.609,1.28-2.429,2.848-5.756,5.687-11.516,8.529-17.275.525-.176,1.059-.173,1.597-.072-1.3,3.617-3.411,7.101-5.098,10.556-1.018,2.085-5.193,7.788-4.628,10.062-.446.323-.76.742-1.018,1.232-.504.956-.967,1.925-1.266,2.966Z" fill="#7abbbe" stroke-width="0"/><path d="M79.834,124.5c-1.65,4.458-3.299,8.916-4.949,13.374-.541,1.463-2.265,9.079-4.278,8.039-.861-1.199,2.934-8.626,3.478-10.117,1.44-3.944,3.2-7.909,4.208-11.987.828-1.401,1.37-2.897,1.509-4.527,1.749-.949,2.94-8.237,3.586-10.163,1.215-3.624,2.147-7.559,3.85-10.992l.973,1.276c-2.006,5.92-4.031,11.834-5.998,17.767-.3.906-.762,1.79-.745,2.788-.927,1.376-1.335,2.938-1.633,4.54Z" fill="#7abbbe" stroke-width="0"/><path d="M59.015,115.725c.209-1.634.639-3.202,1.396-4.672,1.695.443,7.501-16.928,8.637-18.888.31,3.902-1.76,8.898-2.641,12.68-.848,3.642-3.178,9-2.795,12.749h-.024c-1.524-.622-3.048-1.245-4.572-1.869Z" fill="#e5c159" stroke-width="0"/><path d="M74.054,116.669c-.423,1.635-1.195,3.085-2.315,4.351-1.556-.604-3.141-1.141-4.613-1.946l.058-.129c1.247-.392,2.706-4.002,3.372-5.07,1.059-1.7,2.117-3.399,3.193-5.088,1.916-3.007,3.607-6.214,5.726-9.083.148.28.297.56.445.839.015.096-.014.176-.086.241-.493.322-.668.781-.582,1.351.011.109-.021.203-.096.282-.848,1.054-1.27,2.29-1.533,3.593h.008c-.594.386-.639.998-.661,1.619l.006.002c-.575.398-.645,1-.658,1.626l.009-.005c-.582.402-.642,1.015-.662,1.643-.226.73-2.641,5.386-1.612,5.773Z" fill="#e5c159" stroke-width="0"/><path d="M67.185,118.944l-.058.129c-2.658.393-4.738,8.596-5.516,10.544-.856,2.144-1.712,4.288-2.568,6.433-.455,1.14-1.503,5.687-2.628,6.169-.389-.013-.763-.196-1.119-.456-.324-1.179,1.194-3.454,1.608-4.49.983-2.46,1.968-4.918,2.951-7.378.804-2.011,5.538-10.435,3.731-12.3,0,0,.024-.001.024-.001.419.02.839.04,1.258.06.092.008.185.012.277.011.016.108.031.217.047.325-.019.09-.031.18-.037.271-.377.327-.307.71-.144,1.244.235-.358.406-.617.576-.876q.796-.259.863-1.06c.006-.086.034-.165.083-.236.481-.021.654-.28.571-.737.004-.086.029-.166.075-.239.489-.021.662-.282.568-.747.002-.083.025-.16.071-.23.469-.012.674-.238.579-.71l-.013-.026c1.602.716-1.488,2.892-1.199,4.296Z" fill="#79bbc0" stroke-width="0"/><path d="M50.202,176.686c.64-3.449,2.527-6.959,3.797-10.225,1.302-3.347,2.398-6.882,3.982-10.101,1.733-1.249.823,1.74.744,2.06-.536,2.181-1.721,4.417-2.527,6.5-1.57,4.056-3.062,8.154-4.782,12.149-.444-.005-.954.199-1.214-.384Z" fill="#79bbc0" stroke-width="0"/><path d="M60.337,177.097c-.401-.222-.812-.4-1.288-.323,1.183-3.407,2.412-6.789,3.681-10.166.847-2.253,1.645-6.621,3.301-8.431.355-.069.704-.027,1.047.125.864.58-5.908,17.273-6.741,18.795Z" fill="#79bbc0" stroke-width="0"/><path d="M35.986,167.35c1.006-3.696,2.998-7.347,4.484-10.887.69-1.644,1.715-7.005,3.948-5.433-2.304,5.413-4.28,11.145-7.005,16.356-.476-.012-.951-.024-1.427-.036Z" fill="#79bbc0" stroke-width="0"/><path d="M79.802,119.282c-.139,1.63-.68,3.127-1.509,4.527-1.67-.718-3.339-1.436-5.009-2.154.605-1.482,1.218-2.96,2.359-4.137,1.386.588,2.773,1.176,4.159,1.764Z" fill="#e4bf55" stroke-width="0"/><path d="M52.535,112.981c.299-1.041.762-2.01,1.266-2.966.258-.49.572-.909,1.018-1.232,1.318.562,2.637,1.125,3.955,1.687-.064,1.633-.502,3.158-1.313,4.576l-4.925-2.065Z" fill="#e5c159" stroke-width="0"/><path d="M26.866,171.24c.343-1.16.635-2.345,1.524-3.249,1.987.799,3.994,1.549,5.913,2.506.073.446-.147.814-.323,1.191-.132.283-.317.551-.196.889-.116.48-.277.931-.75,1.185-2.056-.841-4.112-1.682-6.168-2.522Z" fill="#e4bf55" stroke-width="0"/><path d="M42.406,177.676c.256-.85.506-1.703.772-2.55.098-.313.345-.52.602-.708,1.868.796,3.736,1.592,5.604,2.388.198.44.289.86.051,1.342-.322.652-.569,1.34-.849,2.013-2.06-.828-4.12-1.656-6.18-2.484Z" fill="#e4bf55" stroke-width="0"/><path d="M42.053,173.629c.04,1.304-.531,2.376-1.287,3.376-1.964-.855-3.929-1.71-5.893-2.565.205-.66.4-1.324.618-1.98.179-.538.522-.926,1.099-1.063,1.821.744,3.642,1.488,5.463,2.232Z" fill="#e4bf55" stroke-width="0"/><path d="M79.834,124.5c.299-1.602.706-3.164,1.633-4.54,1.386.469,2.689,1.176,4.148,1.433-.243,1.537-1.048,2.844-1.733,4.198-.063.125-.244.19-.371.283-1.226-.458-2.451-.916-3.677-1.374Z" fill="#e5c159" stroke-width="0"/><path d="M53.138,107.94c-.221,1.328-1.287,3.459-2.15,4.297-1.224-.492-2.448-.984-3.672-1.476.305-1.624.838-3.149,1.928-4.431l3.893,1.609Z" fill="#e5c159" stroke-width="0"/><path d="M50.173,180.873c.01-.176.021-.353.031-.529.444-.877.889-1.753,1.333-2.63.581.16,1.162.322,1.66.683.694,1.068,2.432.764,3.206,1.586.507.538.248,1.73.65,1.977l-.116.65c-.067.096-.133.192-.2.288l-.025.025c-.993.176-5.802-2.639-6.109-1.951l-.43-.098Z" fill="#e5c159" stroke-width="0"/><path d="M51.537,177.713c-.444.877-.889,1.753-1.333,2.63l-1.559.032c-.065-.06-.084-.132-.059-.216.279-.673.527-1.361.849-2.013.238-.481.148-.902-.051-1.342.273-.04.546-.079.818-.119.261.583.771.379,1.214.384.04.214.08.428.121.642Z" fill="#87b89f" stroke-width="0"/><path d="M36.59,171.397c-.577.137-.92.525-1.099,1.063-.218.656-.413,1.319-.618,1.98-.163.053-.327.106-.491.159-.188-.897.451-1.658.517-2.505-.611-.202-.654.557-1.114.485-.12-.338.065-.606.196-.889.175-.378.396-.745.323-1.191.128-.043.256-.087.384-.13.02.289.111.529.451.539.266.008.532-.012.798-.019.115.301.455.315.653.51Z" fill="#87b89f" stroke-width="0"/><path d="M35.986,167.35c.476.012.951.024,1.427.036-.128.445-.259.888-.543,1.265-.171.083-.244.222-.228.409-.013.34-.074.66-.367.883-.324,0-.647,0-.971.001.006-.31.011-.621.017-.931-.003-.274.049-.525.289-.698.358-.135.35-.423.306-.727-.025-.094-.002-.173.07-.238Z" fill="#7dc9cc" stroke-width="0"/><path d="M57.054,181.959c-.402-.247-.143-1.439-.65-1.977-.774-.822-2.512-.518-3.206-1.586.928.084,1.701.612,2.557.902.658.222,1.304.481,1.955.723.039.733.005,1.442-.656,1.938Z" fill="#c7b977" stroke-width="0"/><path d="M35.304,169.946c.324,0,.647,0,.971-.001.037.368-.212.634-.339.943-.266.007-.532.028-.798.019-.34-.01-.431-.25-.451-.539.016-.187.091-.338.258-.435l.358.013Z" fill="#7bbabc" stroke-width="0"/><path d="M58.38,178.404c.005.361.064.741-.34.957-.026-.368.016-.713.34-.957Z" fill="#68939c" stroke-width="0"/><path d="M35.304,169.946l-.358-.013c.022-.348.058-.691.375-.919-.006.31-.011.621-.017.931Z" fill="#79bbc0" stroke-width="0"/><path d="M35.917,167.589c.043.304.051.592-.306.727-.008-.289.053-.548.306-.727Z" fill="#79bbc0" stroke-width="0"/><path d="M36.642,169.061c-.016-.187.057-.326.228-.409.02.19-.064.322-.228.409Z" fill="#79bbc0" stroke-width="0"/><path d="M22.941,197.368c.074,1.241-.383,2.279-1.21,3.177-2.179-.718-4.282-1.616-6.323-2.66.203-1.118.673-2.111,1.4-2.983,2.099.685,4.113,1.583,6.133,2.466Z" fill="#e5c159" stroke-width="0"/><path d="M16.808,194.902c-.727.872-1.197,1.865-1.4,2.983-.18.123-.361.246-.541.369-.202-.455-.679-.499-1.049-.703-.016-.088-.024-.178-.024-.267.274-.741.503-1.503.839-2.214.189-.399.032-.708-.031-1.057.283.03.561.023.818-.124.258.599.786.387,1.236.412.051.2.101.401.152.601Z" fill="#87b89f" stroke-width="0"/><path d="M23.284,201.304c.457-1.085.644-2.307,1.589-3.146,2.109.829,4.218,1.655,6.254,2.656-.19,1.165-.595,2.246-1.268,3.221-2.191-.91-4.383-1.821-6.574-2.731Z" fill="#e4bf55" stroke-width="0"/><path d="M48.586,180.16c-.025.084-.006.156.059.216-1.901,4.346-3.463,8.83-5.183,13.248-.728,1.87-2.511,9.693-4.317,10.449l-6.423-2.646c-.037-.342.137-.622.258-.921,2.726-6.742,5.444-13.487,8.181-20.225.362-.89.608-1.843,1.245-2.605,2.06.828,4.12,1.656,6.18,2.484Z" fill="#253d5c" stroke-width="0"/><path d="M31.127,200.814c-2.036-1.001-4.145-1.828-6.254-2.656-.618-2.678,3.373-8.674,4.433-11.176,1.741-4.111,3.471-8.218,5.077-12.383.164-.053.327-.106.491-.159,1.964.855,3.929,1.71,5.893,2.565-.304,1.603-1.084,3.036-1.677,4.53-2.391,6.023-4.848,12.02-7.278,18.028-.18.445-.269.936-.685,1.251Z" fill="#253d5c" stroke-width="0"/><path d="M32.722,201.427l6.423,2.646c-.153,1.19-.387,2.352-1.191,3.308l-6.533-2.681c.217-1.177.774-2.22,1.301-3.274Z" fill="#e3c05e" stroke-width="0"/><path d="M16.808,194.902c-.051-.2-.101-.401-.152-.601,3.393-7.676,6.529-15.52,10.211-23.06,2.056.841,4.112,1.682,6.168,2.522.19,1.492-1.399,3.809-1.946,5.12-1.034,2.475-2.071,4.949-3.109,7.423-.849,2.023-2.911,10.312-5.039,11.063-2.02-.884-4.034-1.781-6.133-2.466Z" fill="#243b59" stroke-width="0"/><path d="M50.173,180.873l.43.098c1.845,1.042,3.788,1.85,5.819,2.451-.49,1.992-1.337,3.861-2.034,5.78-2.022,5.569-4.096,11.119-6.171,16.668-.221.59-.285,1.277-.842,1.709-2.038-1.003-4.146-1.842-6.267-2.649-1.061-1.027,3.471-10.114,4.027-11.539.835-2.142,1.669-4.283,2.503-6.425.653-1.679,1.149-4.811,2.535-6.093Z" fill="#253d5c" stroke-width="0"/><path d="M41.109,204.929c2.121.807,4.228,1.646,6.267,2.649-.093,1.139-.343,2.222-1.112,3.12-2.313-.722-4.489-1.781-6.715-2.717.165-.852.494-1.642.868-2.421.154-.32.384-.506.692-.63Z" fill="#e4bf55" stroke-width="0"/><path d="M56.422,183.422c-2.031-.601-3.974-1.409-5.819-2.451.307-.689,5.116,2.127,6.109,1.951l-.29.501Z" fill="#c7b977" stroke-width="0"/><path d="M56.738,182.896c.067-.096.133-.192.2-.288.079.197-.022.269-.2.288Z" fill="#c7b977" stroke-width="0"/><path d="M85.615,121.393c-1.459-.257-2.762-.965-4.148-1.433-.017-.999.445-1.882.745-2.788,1.967-5.933,3.992-11.847,5.998-17.767,6.663,1.957,7.772-6.693.687-6.456.009-1.764,2.219-4.541,3.023-6.025.811-1.498,1.807-4.653,3.148-5.669.517.187,3.083,1.305,3.425,1.235.404-.083,2.171-2.097,2.068-2.572,0,0,.009-.009.009-.009,1.811-.264,2.444-4.519.339-4.782l.006-.006c-.019-.187-.121-.3-.305-.339l-.008-.008c-.034-.178-.14-.284-.319-.316l-.007-.007c-.038-.185-.15-.287-.338-.307l-.005.006c.016-1.936-3.036-.181-3.596-1.431.755-1.61,1.788-3.054,2.723-4.557,1.419-2.281,2.937-4.5,4.225-6.861,1.928-.145,2.734,1.531,4.734-.031,1.275-.996,1.754-2.876,1.033-4.356-2.089-4.291-7.88-.993-6.535,3.214-.489.37-.738.923-1.05,1.42-6.062,9.631-12.124,19.263-18.157,28.912-.767,1.227-1.687,2.372-2.204,3.748-.181.042-.362.084-.543.126-.478-1.442-1.348-5.521-3.025-6.08-1.69-.563-4.692,1.429-6.153,2.029,2.612-13.347,6.08-26.569,9.032-39.848,3.153-2.155,2.955-8.195-1.916-6.985-4.242,1.053-2.789,5.854.371,7.064-1.001,4.295-2.003,8.59-3.004,12.885-1.317.176-1.761-1.45-2.497-2.196-1.612.583-7.023-4.813-7.217-6.311.43-1.819,1.262-3.497,1.847-5.261.52-1.566,1.051-3.128,1.577-4.691.755-1.633,1.386-3.303,1.524-5.12,3.37-3.891.955-12.75,8.788-11.542,3.727.575,6.809,1.375,10.696,1.16,3.448-.191,6.738-.233,10.061.923,6.814,2.37,9.459,8.73,14.947,12.76,2.346,1.723,5.629,2.656,5.805,6.078.172,3.35-3.219,7.453-4.73,10.355-.911,1.515-1.803,3.04-2.387,4.721-2.6,4.059-5.155,9.369-6.681,13.941-.862,1.547-1.518,3.181-2.035,4.872-.688,1.159-1.087,2.444-1.556,3.693-1.298,3.457-2.596,6.916-3.621,10.469-.764,1.78-1.492,3.572-1.714,5.52-1.626,3.428-1.54,8.431-4.21,11.231-2.786,2.923-6.53,3.659-8.849,7.395Z" fill="#243b5b" stroke-width="0"/><path d="M66.153,54.89c.194,1.498,5.605,6.894,7.217,6.311.737.746,1.181,2.372,2.497,2.196-.049.233-.098.465-.147.698-.077.081-.117.177-.118.289-.021.911-.215,1.779-.643,2.589v.003c-.012-2.934-2.385-6.939-5.726-3.944-2.38,2.133-.976,5.567,1.829,6.377-1.388,4.544-2.771,9.088-3.992,13.681-.055.208-.152.404-.23.606-4.504-7.213-10.615,3.179-3.894,4.541-2.842,5.759-5.682,11.519-8.529,17.275-.406.82-.852,1.62-1.28,2.429l-3.893-1.609c-.043-1.886.493-3.623.293-5.54-.217-2.087-1.318-4.004-1.297-6.106.04-3.979,3.507-8.402,5.295-11.828.935-1.492,1.776-3.029,2.313-4.716,1.098-1.618,1.808-3.436,2.626-5.194,1.297-2.791,2.588-5.587,3.636-8.486.514-1.097,1.046-2.187,1.536-3.295.276-.624.582-1.249.589-1.958.688-1.197,1.06-2.528,1.608-3.784.082-.187.204-.357.308-.535ZM64.79,59.945c-.776.51-.287,2.898.386,1.827.295-.469,1.008-2.083-.386-1.827ZM68.351,62.676c-.97-.88-1.185.85-1.324.961.071-.057,1.515.485,1.324-.961Z" fill="#243b59" stroke-width="0"/><path d="M22.63,78.554c-.066-11.324,3.914-22.622,10.274-31.884,2.873-4.183,6.47-8.252,10.545-11.303,1.676-1.255,3.557-2.379,5.3-.366,1.898,2.193-.006,4.147-1.639,5.666-7.436,6.915-13.333,15.055-16.073,24.993-.822,2.982-1.437,6.041-1.728,9.122-.194,2.056.397,4.825-.506,6.713-.704,1.472-1.97,2.423-3.737,2.011-2.435-.568-2.437-2.91-2.437-4.953Z" fill="#addbdb" stroke-width="0"/><path d="M58.428,62.609c-1.5,3.237-3.209,5.149-6.382,1.94-2.143-2.167-2.639-5.449-1.406-8.213,1.119-2.508,3.539-4.193,6.291-4.36,4.739-.288,4.745,2.379,3.482,5.883-.891,1.488-1.361,3.151-1.986,4.75Z" fill="#253d5c" stroke-width="0"/><path d="M119.355,60.907c1.318-2.748,2.348-5.016,5.586-2.742,2.35,1.651,3.258,4.888,2.639,7.591-.642,2.801-2.788,4.94-5.598,5.576-1.419.321-3.862.427-4.953-.818-1.396-1.592-.28-3.16.366-4.887.816-1.506,1.427-3.098,1.961-4.721Z" fill="#253d5c" stroke-width="0"/><path d="M50.573,81.678c-2.027,2.34-2.482,5.657-6.138,2.355-2.255-2.036-2.861-5.519-1.773-8.286,1.086-2.762,3.787-4.77,6.802-4.759,5.044.018,3.569,2.69,3.037,5.955-.859,1.49-1.577,3.037-1.928,4.734Z" fill="#253d5c" stroke-width="0"/><path d="M103.569,98.922c1.986-2.159,2.17-5.503,5.807-2.592,2.275,1.82,3.184,4.904,2.419,7.686-.852,3.1-3.758,5.505-7.013,5.52-1.374.006-3.415-.358-4.039-1.774-.663-1.504.739-2.647.865-4.067.942-1.473,1.533-3.089,1.96-4.773Z" fill="#253d5c" stroke-width="0"/><path d="M66.342,43.404c-1.269,2.7-2.664,5.343-5.862,2.785-2.158-1.726-3.042-4.926-2.388-7.553.721-2.897,3.235-5.25,6.225-5.605,4.847-.574,5.305,2.058,3.958,5.759-.893,1.434-1.494,2.99-1.933,4.614Z" fill="#253d5c" stroke-width="0"/><path d="M111.51,79.745c1.547-3.245,3.155-4.988,6.291-1.828,2.032,2.048,2.547,5.238,1.507,7.916-1.031,2.654-3.888,4.636-6.759,4.686-1.284.022-3.465-.333-4.068-1.706-.642-1.463.813-2.848.968-4.236.942-1.502,1.564-3.141,2.062-4.832Z" fill="#243b5b" stroke-width="0"/><path d="M111.51,79.745c-.498,1.691-1.121,3.33-2.062,4.832-1.39-.248-2.612-.936-3.884-1.492.517-1.692,1.173-3.325,2.035-4.872,1.304.511,2.607,1.022,3.911,1.533Z" fill="#e3c05e" stroke-width="0"/><path d="M58.428,62.609c.625-1.599,1.095-3.262,1.986-4.75,1.407.072,2.583.799,3.822,1.349-.008.709-.314,1.334-.589,1.958-.49,1.108-1.021,2.197-1.536,3.295-.326-.56-.936-.691-1.459-.935-.726-.339-1.481-.614-2.224-.917Z" fill="#e3c05e" stroke-width="0"/><path d="M103.569,98.922c-.427,1.684-1.018,3.301-1.96,4.773-.978-.309-1.957-.619-2.935-.928.222-1.949.95-3.74,1.714-5.52,1.096.491,2.249.875,3.181,1.676Z" fill="#e3c05e" stroke-width="0"/><path d="M66.342,43.404c.439-1.624,1.04-3.18,1.933-4.614l2.826,1.029c-.138,1.817-.769,3.486-1.524,5.12-.927-.078-1.692-.635-2.57-.868-.32-.085-.497-.389-.665-.666Z" fill="#e3c05e" stroke-width="0"/><path d="M50.573,81.678c.351-1.697,1.069-3.244,1.928-4.734.729.088,1.408.317,2.06.661.41.216.858.36,1.29.536-.537,1.687-1.378,3.224-2.313,4.716-.988-.393-1.976-.786-2.964-1.179Z" fill="#e3c05e" stroke-width="0"/><path d="M119.355,60.907c-.534,1.623-1.145,3.215-1.961,4.721-1.162-.167-2.117-.809-3.113-1.356.584-1.68,1.476-3.206,2.387-4.721.896.452,1.791.904,2.687,1.356Z" fill="#e3c05e" stroke-width="0"/><path d="M69.047,92.165c-1.136,1.961-6.942,19.332-8.637,18.888,4.002-13.943,8.155-27.84,12.207-41.768.935-.613,1.725-1.374,2.342-2.309v-.003c.394,3.843-1.928,9.149-2.797,12.903-.909,3.927-1.822,7.852-2.734,11.778-.253.076-.345.273-.383.511Z" fill="#283f5a" stroke-width="0"/><path d="M58.773,110.47c-1.318-.562-2.637-1.125-3.955-1.687-.565-2.274,3.609-7.977,4.628-10.062,1.687-3.456,3.799-6.939,5.098-10.556.428-.218.71-.69,1.249-.713-1.221,4.091-2.453,8.178-3.654,12.275-.753,2.57-1.326,8.972-3.366,10.743Z" fill="#283f5a" stroke-width="0"/><path d="M65.793,87.452c-.539.022-.821.495-1.249.713-.538-.101-1.071-.105-1.597.072-6.722-1.362-.61-11.755,3.894-4.541.123,1.384-.48,2.566-1.048,3.757Z" fill="#e7bd54" stroke-width="0"/><path d="M74.96,66.976c-.617.936-1.407,1.696-2.342,2.309-.527-.075-1.048-.065-1.555.123-2.805-.81-4.209-4.243-1.829-6.377,3.341-2.995,5.713,1.011,5.727,3.944Z" fill="#e7bd54" stroke-width="0"/><path d="M79.158,102.418c.075-.08.107-.174.096-.282.353-.382.57-.823.582-1.351.072-.065.101-.145.086-.241.526-.978,1.143-1.921,1.172-3.087.002-.205.004-.409.006-.614,2.331-3.789,4.679-7.566,7.038-11.337,1.013-1.62,4.689-9.795,6.634-10.106-.309,1.226-.469,2.457-.099,3.701-4.358,5.689-7.281,13.082-10.666,19.386-3.256,6.065-6.303,12.346-9.952,18.183-1.029-.387,1.386-5.043,1.612-5.773.443-.458.62-1.024.662-1.643l-.009.005c.477-.437.61-1.015.658-1.626l-.006-.002c.464-.441.596-1.017.661-1.62h-.008c.723-1.106,1.179-2.327,1.533-3.591Z" fill="#283f5a" stroke-width="0"/><path d="M79.802,119.282c-1.386-.588-2.773-1.176-4.159-1.764-.384-2.215,3.91-7.634,4.981-9.631,2.07-3.86,4.166-7.702,6.09-11.638.376.57.351,1.251.523,1.878-1.702,3.433-2.635,7.369-3.85,10.992-.646,1.926-1.837,9.214-3.586,10.163Z" fill="#283f5a" stroke-width="0"/><path d="M87.238,98.127c-.172-.626-.147-1.308-.523-1.878.426-1.089.851-2.179,1.748-2.993.215-.012.455.01.453-.315,0,0-.018.006-.018.006,7.085-.237,5.976,8.413-.687,6.456l-.973-1.276Z" fill="#e7bd54" stroke-width="0"/><path d="M94.672,79.099c-.37-1.245-.21-2.475.099-3.701l-.018.024c.806-.123,1.462-1.419,2.427-1.636.931-.21,1.876.091,2.755.364l.005-.006c.026.197.149.288.338.307l.007.007c.027.185.133.291.319.316l.008.008c.021.186.106.313.305.339l-.006.006c.093.567.393,1.066.455,1.657.12,1.156-.257,2.153-.794,3.125l-.009.009c-1.655,1.136-3.361,1.227-5.12.253-.257-.357-.513-.714-.77-1.071Z" fill="#e7bd54" stroke-width="0"/><path d="M95.442,80.17c1.759.974,3.466.883,5.12-.253.103.475-1.663,2.489-2.068,2.572-.343.07-2.909-1.048-3.425-1.235.124-.361.248-.723.373-1.084Z" fill="#283f5a" stroke-width="0"/><path d="M88.916,92.942c.002.325-.238.302-.453.315.114-.158.173-.396.453-.315Z" fill="#243b5b" stroke-width="0"/><path d="M69.047,92.165c.037-.238.13-.434.383-.511.404.265.845.379,1.327.333.013.544.013,1.087-.167,1.611-.542.188-.564.253-.226.647.051.827-.279,1.56-.566,2.304-.272.059-.361.149-.052.307-.045.322-.09.644-.134.965-.539.19-.562.254-.224.646l-.08.654c-.565.188-.589.262-.216.655.057.369-.132.667-.284.977-.256.078-.344.177-.041.325-.035.214-.069.428-.104.643-.635.274-.666.386-.266.971-.031.217-.062.435-.093.652-.534.193-.555.257-.217.646l-.093.653c-.549.19-.572.257-.221.65-.038.325-.075.649-.113.974-.542.194-.564.261-.212.65-.028.217-.056.433-.084.65-.568.182-.594.254-.232.653.004.357.076.732-.266.996-.265.06-.355.15-.053.308-.042.323-.084.645-.126.968-.71.144-.479.668-.449,1.111-.07.621.114,1.29-.345,1.838-.273.06-.354.152-.051.307-.044.322-.088.644-.131.965-.543.193-.565.26-.214.651-.029.217-.059.434-.088.651-.287.053-.51.174-.52.506-.011.377-.014.755-.021,1.133-.419-.02-.839-.04-1.258-.06-.382-3.749,1.947-9.107,2.795-12.749.881-3.783,2.95-8.779,2.641-12.68Z" fill="#8cc3b0" stroke-width="0"/><path d="M67.185,118.944c-.289-1.404,2.801-3.581,1.199-4.296.355-3.138,4.175-7.183,5.816-9.814,1.08-1.732,3.808-8.241,5.872-8.723.074.41.148.796-.291,1.099-.374.258-.181.516.107.721-.029.391-.058.783-.087,1.174-.097.115-.193.229-.29.344-.03.082-.042.167-.035.255-2.119,2.869-3.811,6.076-5.726,9.083-1.076,1.689-2.134,3.389-3.193,5.088-.665,1.068-2.125,4.678-3.372,5.07Z" fill="#95c3a8" stroke-width="0"/><path d="M79.802,99.105c.029-.391.058-.783.087-1.174.236-.081.481-.149.587-.415.206-.02.412-.04.618-.061-.029,1.166-.646,2.11-1.172,3.087-.148-.28-.297-.56-.445-.839-.007-.087.004-.172.035-.255q.497-.047.29-.344Z" fill="#c7b977" stroke-width="0"/><path d="M79.158,102.418c-.354,1.264-.811,2.485-1.533,3.593.263-1.303.685-2.539,1.533-3.593Z" fill="#c7b977" stroke-width="0"/><path d="M76.977,107.632c-.048.611-.181,1.188-.658,1.626.013-.625.083-1.227.658-1.626Z" fill="#c7b977" stroke-width="0"/><path d="M77.632,106.009c-.065.603-.198,1.179-.661,1.62.022-.621.068-1.233.661-1.62Z" fill="#c7b977" stroke-width="0"/><path d="M76.328,109.252c-.042.62-.219,1.185-.662,1.643.02-.629.08-1.241.662-1.643Z" fill="#c7b977" stroke-width="0"/><path d="M79.836,100.784c-.012.529-.229.969-.582,1.351-.086-.571.089-1.029.582-1.351Z" fill="#c7b977" stroke-width="0"/><path d="M80.072,96.111c-2.064.482-4.792,6.992-5.872,8.723-1.641,2.63-5.461,6.676-5.816,9.814l.013.026c-.425.048-.612.289-.579.71-.046.07-.069.146-.071.23-.387.099-.626.31-.568.747-.046.073-.071.153-.075.239-.392.089-.625.302-.571.737-.049.071-.077.149-.083.236-.439.081-.779.459-1.259.419-.016-.108-.031-.217-.047-.325.1-.548.494-1.049.264-1.65.029-.217.059-.434.088-.651.296-.143.332-.372.214-.651.044-.322.088-.644.131-.965.041-.098.058-.201.051-.307.459-.548.275-1.217.345-1.838.307-.307.639-.603.449-1.111.042-.323.084-.645.126-.968.043-.098.06-.201.053-.308.342-.264.27-.639.266-.996.289-.143.327-.374.232-.653.028-.217.056-.433.084-.65.298-.143.329-.372.212-.65.038-.325.075-.649.113-.974.293-.142.33-.371.221-.65l.093-.653c.306-.137.337-.366.217-.646.031-.217.062-.435.093-.652.173-.301.417-.582.266-.971.035-.214.069-.428.104-.643.014-.108.027-.217.041-.325.151-.309.34-.607.284-.977.285-.148.317-.38.216-.655l.08-.654c.302-.137.339-.365.224-.646.045-.322.09-.644.134-.965.039-.099.057-.201.052-.307.287-.744.617-1.477.566-2.304.302-.136.34-.365.226-.647.18-.524.18-1.067.167-1.611.033-.079.042-.161.025-.245.46-.341.662-.788.562-1.36,0,0,.041-.1.041-.1,1.462-.6,4.463-2.592,6.153-2.029,1.678.559,2.547,4.638,3.025,6.08-.141.516-.281,1.033-.422,1.549-.039.071-.062.148-.069.229Z" fill="#ebc352" stroke-width="0"/><path d="M65.41,116.015c.231.601-.164,1.102-.264,1.65-.093.001-.185-.003-.277-.011.007-.378.009-.755.021-1.133.01-.332.234-.454.52-.506Z" fill="#95c3a8" stroke-width="0"/><path d="M65.193,117.991c.479.039.819-.339,1.259-.419q-.067.801-.863,1.06c-.078-.2-.223-.323-.433-.369.005-.091.018-.182.037-.271Z" fill="#95c3a8" stroke-width="0"/><path d="M65.156,118.262c.21.046.354.169.433.369-.17.259-.341.518-.576.876-.163-.534-.234-.917.144-1.244Z" fill="#68939c" stroke-width="0"/><path d="M66.535,117.336c-.054-.435.179-.648.571-.737.083.458-.09.717-.571.737Z" fill="#95c3a8" stroke-width="0"/><path d="M67.18,116.36c-.058-.437.181-.648.568-.747.095.465-.078.726-.568.747Z" fill="#95c3a8" stroke-width="0"/><path d="M67.819,115.384c-.034-.421.154-.662.579-.71.095.471-.11.698-.579.71Z" fill="#95c3a8" stroke-width="0"/><path d="M70.781,91.742c.017.084.009.166-.025.245-.482.047-.923-.068-1.327-.333.911-3.926,1.825-7.852,2.734-11.778.869-3.754,3.191-9.06,2.796-12.903.428-.81.622-1.678.643-2.589.115-.065.205-.141.118-.289.049-.233.098-.465.147-.698,1.001-4.295,2.003-8.59,3.004-12.885.507-.178,1.025-.147,1.545-.079-2.952,13.279-6.42,26.502-9.032,39.848l-.041.1c-.391-.018-.61.165-.611.56-.001.267.031.533.049.8Z" fill="#79bbc0" stroke-width="0"/><path d="M80.072,96.111c.007-.081.03-.157.069-.229.943-.2.983-.921.966-1.675.517-1.377,1.437-2.521,2.204-3.748,6.034-9.649,12.096-19.28,18.157-28.912.313-.497.561-1.05,1.05-1.42.471.251.67.679.768,1.173-1.288,2.361-2.806,4.581-4.225,6.861-.935,1.502-1.968,2.946-2.723,4.557-.671.818-1.362,1.624-1.586,2.704l.018-.024c-1.945.311-5.62,8.485-6.634,10.106-2.359,3.772-4.707,7.549-7.038,11.337-.432.018-.657.227-.623.674-.106.265-.351.333-.587.415-.288-.204-.481-.463-.107-.721.439-.303.365-.688.291-1.099Z" fill="#79bbc0" stroke-width="0"/><path d="M103.287,61.3c-.098-.494-.297-.922-.768-1.173-1.345-4.207,4.446-7.505,6.535-3.214.72,1.48.242,3.361-1.033,4.356-2,1.562-2.806-.115-4.734.031Z" fill="#e7bd54" stroke-width="0"/><path d="M80.416,50.434c-.52-.069-1.038-.099-1.545.079-3.16-1.21-4.613-6.011-.371-7.064,4.871-1.209,5.069,4.83,1.916,6.985Z" fill="#e7bd54" stroke-width="0"/><path d="M94.753,75.422c.224-1.08.916-1.886,1.586-2.704.56,1.25,3.612-.505,3.596,1.431-.879-.273-1.825-.574-2.755-.364-.965.218-1.621,1.514-2.427,1.636Z" fill="#283f5a" stroke-width="0"/><path d="M100.571,79.908c.537-.972.914-1.969.794-3.125-.062-.591-.362-1.09-.455-1.657,2.105.263,1.471,4.518-.339,4.782Z" fill="#283f5a" stroke-width="0"/><path d="M81.107,94.207c.018.754-.022,1.475-.966,1.675.141-.516.281-1.033.422-1.549.181-.042.362-.084.543-.126Z" fill="#95c3a8" stroke-width="0"/><path d="M100.916,75.12c-.199-.026-.284-.153-.305-.339.184.039.286.151.305.339Z" fill="#283f5a" stroke-width="0"/><path d="M100.604,74.773c-.186-.025-.291-.131-.319-.316.179.032.285.137.319.316Z" fill="#283f5a" stroke-width="0"/><path d="M100.278,74.45c-.189-.019-.311-.11-.338-.307.188.02.3.123.338.307Z" fill="#283f5a" stroke-width="0"/><path d="M64.79,59.945c1.394-.257.68,1.357.386,1.827-.673,1.071-1.162-1.317-.386-1.827Z" fill="#253d5c" stroke-width="0"/><path d="M68.351,62.676c.191,1.445-1.253.904-1.324.961.139-.111.354-1.84,1.324-.961Z" fill="#243b5b" stroke-width="0"/><path d="M75.72,64.095c.087.148-.002.224-.118.289,0-.112.04-.209.118-.289Z" fill="#283f5a" stroke-width="0"/><path d="M80.476,97.516c-.033-.448.191-.657.623-.674-.002.205-.004.409-.006.614-.206.02-.412.04-.618.061Z" fill="#95c3a8" stroke-width="0"/><path d="M66.688,110.492c.19.507-.142.804-.449,1.111-.03-.443-.261-.967.449-1.111Z" fill="#95c3a8" stroke-width="0"/><path d="M68.664,101.721c.151.389-.093.67-.266.971-.4-.585-.369-.697.266-.971Z" fill="#95c3a8" stroke-width="0"/><path d="M69.308,99.122c.101.276.069.507-.216.655-.373-.393-.349-.467.216-.655Z" fill="#95c3a8" stroke-width="0"/><path d="M70.589,93.598c.114.282.076.51-.226.647-.338-.394-.316-.458.226-.647Z" fill="#95c3a8" stroke-width="0"/><path d="M68.305,103.344c.12.28.089.509-.217.646-.338-.389-.317-.453.217-.646Z" fill="#95c3a8" stroke-width="0"/><path d="M67.995,104.643c.109.279.072.508-.221.65-.351-.393-.328-.461.221-.65Z" fill="#95c3a8" stroke-width="0"/><path d="M67.365,107.568c.096.279.057.51-.232.653-.363-.399-.337-.471.232-.653Z" fill="#95c3a8" stroke-width="0"/><path d="M65.713,114.713c.117.279.081.508-.214.651-.35-.391-.328-.457.214-.651Z" fill="#95c3a8" stroke-width="0"/><path d="M69.611,97.821c.115.281.079.51-.224.646-.338-.392-.316-.457.224-.646Z" fill="#95c3a8" stroke-width="0"/><path d="M67.661,106.267c.117.278.086.507-.212.65-.352-.389-.33-.456.212-.65Z" fill="#95c3a8" stroke-width="0"/><path d="M68.808,100.754c-.014.108-.027.217-.041.325-.303-.148-.215-.247.041-.325Z" fill="#95c3a8" stroke-width="0"/><path d="M69.798,96.549c.005.106-.013.208-.052.307-.309-.158-.22-.248.052-.307Z" fill="#95c3a8" stroke-width="0"/><path d="M65.895,113.441c.007.106-.01.208-.051.307-.304-.155-.222-.247.051-.307Z" fill="#95c3a8" stroke-width="0"/><path d="M66.868,109.216c.007.107-.011.21-.053.308-.302-.158-.211-.248.053-.308Z" fill="#95c3a8" stroke-width="0"/><path d="M79.802,99.105q.207.297-.29.344c.097-.115.193-.229.29-.344Z" fill="#e5c159" stroke-width="0"/><path d="M70.781,91.742c-.017-.267-.05-.533-.049-.8.002-.395.22-.578.611-.56.1.572-.103,1.019-.562,1.36Z" fill="#95c3a8" stroke-width="0"/></svg>