<?xml version="1.0" encoding="UTF-8"?><svg id="a" xmlns="http://www.w3.org/2000/svg" viewBox="0 0 197.398 207.24"><path d="M62.065,73.013c.26-17.431,11.965-33.674,29.442-37.223,17.153-3.483,34.404,6.243,40.934,22.378,7.429,18.358-1.548,37.264-10.384,53.402-5.039,9.202-10.671,18.101-16.653,26.718-1.771,2.551-3.823,7.171-7.646,6.259-3.828-.913-6.871-8.016-8.91-11.064-6.11-9.133-11.884-18.538-16.804-28.37-4.894-9.781-10.031-20.941-9.979-32.1ZM78.612,73.118c-.035,10.672,8.216,20.11,20.184,20.196,10.92.079,20.096-8.824,20.047-20.194-.049-11.412-9.388-20.213-20.357-20.077-11.381.141-19.921,9.737-19.874,20.075Z" fill="#1e3455" stroke-width="0"/><path d="M91.154,206.83c-22.959.256-45.931.029-68.891.032-8.226,0-21.3,1.73-22.225-9.767-.405-5.033,2.552-10.584,4.122-15.286,1.7-5.089,3.303-10.214,5.263-15.209,4.848-.514,9.924-2.558,14.639-3.808,4.681-1.241,9.389-2.407,14.044-3.741,4.542-1.302,8.007-2.706,12.165.198,3.146,2.197,5.955,4.997,8.342,7.991,5.961,7.477,10.375,16.441,15.304,24.616,2.501,4.148,4.871,8.406,7.497,12.476,1.438,2.228,1.852,2.26,4.398,2.3,1.516.024,3.845.487,5.253-.178.03.125.06.251.089.376Z" fill="#80cbd3" stroke-width="0"/><path d="M85.97,141.418c2.986,4.331,5.471,9.477,11.232,10.216,6.016.773,9.565-3.006,12.662-7.623,3.576-5.332,7.218-10.656,10.599-16.114,1.486-2.399,2.006-4.815,4.889-5.256,3.153-.482,6.947.048,10.137.066.105.502.206,1.004.317,1.505.344,1.549.43,3.149.945,4.663.1,4.612,1.622,9.537,2.513,14.054.025.196.05.393.076.589-.048.454.148.859.253,1.283-.04.103-.029.199.034.29-.042.235-.014.454.146.642-.029.513-.055,1.024.335,1.44-.151.141-.101.282,0,.423.016.106.033.212.049.319.012.107.024.213.037.32-.061.94.172,1.82.554,2.669-.072.696.022,1.366.314,2.005.187,2.381.812,4.691,1.157,7.046.338,2.305.914,4.571,1.095,6.901-.009.453-.072.913-.016,1.358.097.771.07,1.598.712,2.199l-.06.094c.055.607-.349,1.311.375,1.777l-.059.095c-.215,1.08-.215,1.085-1.061,1.12-.363.015-.727.004-1.09.004-18.116-.001-36.232-.002-54.347-.003-1.402,0-2.803-.003-4.204.008-.402.003-.845-.106-1.147.298-1.95.388-3.937.797-5.779,1.568-.823.344-2.325,1.674-3.257,1.536-1.209-.179-4.452-7.242-5.243-8.459-1.869-2.879-3.875-5.628-6.214-8.147-1.103-1.187-6.175-4.705-5.936-6.033,5.496-1.444,11.097-2.65,16.392-4.749,2.589-1.026,5.121-2.23,7.532-3.626,1.398-.81,5.896-2.734,6.061-4.476Z" fill="#7dcad2" stroke-width="0"/><path d="M143.312,166.855c-.181-2.329-.757-4.596-1.095-6.901-.345-2.355-.971-4.665-1.157-7.046,3.256.2,3.093-6.809,5.788-6.548.057.198.122.394.17.594.468,1.966.614,3.996,1.193,5.939.029.502-.09,1.036.321,1.453l-.062.096c.474,2.298,13.417.993,15.728.993,6.735,0,13.469,0,20.204.001.699,2.081,1.394,4.163,2.099,6.242.132.39.271.773.19,1.194-.207-.013-.415-.037-.622-.037-11.749,0-23.497,0-35.246.005-.303,0-.627-.059-.924.243,2.559,14.443,5.163,28.919,7.717,43.49h-7.162c-.754-4.315-1.502-8.631-2.262-12.945-.293-1.663-.589-3.325-.887-4.987-.259-1.442-.27-5.671-1.194-6.741-1.573-1.823-6.091-.874-8.6-.873-4.254.001-8.509.002-12.763.003-8.225.002-16.45.004-24.675.004-3.971,0-7.941,0-11.912,0-3.655,0-8.053-.322-11.015,2.293,4.287,7.877,9.163,15.525,13.92,23.126-1.408.665-3.737.202-5.253.178-2.546-.04-2.961-.073-4.398-2.3-2.626-4.069-4.996-8.328-7.497-12.476-4.929-8.175-9.343-17.139-15.304-24.616-2.387-2.994-5.195-5.794-8.342-7.991-4.158-2.904-7.623-1.5-12.165-.198-4.655,1.335-9.363,2.501-14.044,3.741-4.715,1.249-9.791,3.294-14.639,3.808.659-2.704,1.688-5.288,2.555-7.925.042-.128.215-.214.327-.319,6.168-.623,12.621-3.33,18.606-4.95,6.085-1.647,12.179-3.256,18.279-4.845,11.512-3,23.264-5.235,32.921-12.621,1.051,1.054,1.723,2.383,2.579,3.578.445.621.856,1.266,1.282,1.9-.165,1.742-4.663,3.666-6.061,4.476-2.411,1.397-4.943,2.6-7.532,3.626-5.295,2.099-10.897,3.305-16.392,4.749-.239,1.327,4.834,4.846,5.936,6.033,2.34,2.519,4.345,5.268,6.214,8.147.79,1.218,4.033,8.28,5.243,8.459.932.138,2.434-1.192,3.257-1.536,1.842-.77,3.83-1.179,5.779-1.568.883.005,1.766.015,2.649.015,19.237,0,38.474,0,57.712-.007.564,0,1.143.105,1.702-.121.095-.468.144-.922-.212-1.314l.059-.095c-.075-.603.044-1.247-.375-1.777l.06-.094c-.067-1.218-.251-2.413-.696-3.556Z" fill="#1f3757" stroke-width="0"/><path d="M98.797,7.172c-44.269,0-75.123,47.797-59.136,88.731,1.688,4.321,3.822,8.409,6.175,12.398,1.098,1.86,2.533,3.71.959,5.796-1.443,1.912-3.722,1.605-5.364.196-3.049-2.617-5.07-8.053-6.66-11.653-2.064-4.673-3.675-9.47-4.705-14.478-4.133-20.098-.088-41.16,11.727-58.03C53.467,13.466,72.019,2.065,92.395.27c20.445-1.801,39.944,5.483,54.676,19.652,14.285,13.74,22.942,34.787,22.009,54.652-.502,10.69-2.873,21.099-7.64,30.716-1.337,2.697-3.717,9.243-6.98,10.104-1.689.446-3.643-.505-4.225-2.17-.898-2.571,1.77-5.426,2.913-7.425,11.252-19.678,11.788-44.384,1.115-64.437-5.219-9.806-12.721-18.28-22.035-24.383-10.347-6.78-21.232-9.318-33.429-9.806Z" fill="#7fcbd2" stroke-width="0"/><path d="M150.453,206.574h7.162c-2.554-14.571-5.158-29.047-7.717-43.49.297-.302.622-.243.924-.243,11.749-.004,23.497-.005,35.246-.005.207,0,.415.024.622.037,1.976,1.632,2.756,7.513,3.548,9.918,1.149,3.493,2.374,6.958,3.544,10.444,2.261,6.734,6.7,14.963.305,20.843-5.084,4.675-14.357,2.783-20.573,2.783-7.844,0-15.821.46-23.642-.073.145-.206.364-.209.582-.214Z" fill="#80cbd3" stroke-width="0"/><path d="M150.453,206.574c-.218.006-.437.009-.582.214-9.78.551-19.715.077-29.512.076-9.723,0-19.487.253-29.205-.034-.03-.125-.06-.251-.089-.376-4.757-7.601-9.633-15.249-13.92-23.126,2.962-2.615,7.361-2.294,11.015-2.293,3.971,0,7.941.001,11.912,0,8.225,0,16.45-.002,24.675-.004,4.254-.001,8.509-.002,12.763-.003,2.51,0,7.027-.949,8.6.873.924,1.07.935,5.298,1.194,6.741.298,1.662.594,3.324.887,4.987.76,4.314,1.508,8.63,2.262,12.945Z" fill="#7ecad2" stroke-width="0"/><path d="M99.601,24.089c-32.213-2.295-55.179,33.535-46.134,62.649,1.097,3.532,2.424,7.056,4.346,10.228,1.409,2.326,3.751,5.74.262,7.561-5.964,3.113-10.227-11.78-11.357-15.475-4.701-15.367-2.365-32.417,6.064-46.054,17.496-28.305,56.895-34.962,81.769-12.18,11.68,10.698,18.132,25.49,18.695,41.244.294,8.224-1.897,16.84-5.309,24.26-1.149,2.499-2.823,7.674-5.783,8.481-3.19.87-5.08-2.206-4.168-4.93,1.467-4.38,4.499-8.164,5.896-12.706,1.236-4.019,1.904-8.095,2.119-12.291.438-8.54-1.557-17.262-5.451-24.86-7.817-15.254-23.656-25.925-40.949-25.925Z" fill="#7fcbd2" stroke-width="0"/><path d="M82.11,135.94c-9.657,7.386-21.409,9.622-32.921,12.621-6.1,1.59-12.195,3.198-18.279,4.845-5.985,1.62-12.437,4.326-18.606,4.95-.42-1.14.989-3.566,1.339-4.608.698-2.077,1.397-4.154,2.098-6.231,1.488-4.413,2.979-8.825,4.472-13.236,2.873-8.491,6.459-11.654,15.622-11.645,9.299.009,18.598.012,27.897.001,3.602-.004,8.837-1.291,11.179,1.74,1.319,1.707,2.308,3.806,3.481,5.626.927,1.438,3.646,4.22,3.72,5.937Z" fill="#7ccad1" stroke-width="0"/><path d="M148.21,152.894c-.579-1.944-.724-3.974-1.193-5.939-.048-.2-.113-.396-.17-.594-.227-6.168-2.164-12.674-3.324-18.728-.237-1.611-.473-3.222-.71-4.833.548-.23,1.126-.155,1.693-.155,6.958-.003,13.916.041,20.873-.014,4.178-.033,8.769,2.79,10.366,7.33,2.629,7.476,5.077,15.014,7.595,22.527.258.771.538,1.534.807,2.301-.509.327-1.08.307-1.653.307-10.743-.003-21.486-.011-32.229.017-.733.002-1.29-.199-1.797-.67l.062-.096c-.013-.505.265-1.075-.321-1.453Z" fill="#7ccad1" stroke-width="0"/><path d="M142.814,122.8c.237,1.611.473,3.222.71,4.833-1.088.683-2.481.124-3.394.626-1.093.6-.817,1.465-1.815,2.385-.329-.206-.743-2.252-.992-2.242-.196.152-.386.31-.573.474-.515-1.514-.601-3.115-.945-4.663-.111-.5-.212-1.003-.317-1.505,2.298-.175,4.599-.067,6.899-.058.142,0,.284.098.426.15Z" fill="#1e3455" stroke-width="0"/><path d="M148.469,154.443c.507.471,1.064.672,1.797.67,10.743-.028,21.486-.02,32.229-.017.573,0,1.144.02,1.653-.307.264.146.303.38.253.648-6.735,0-13.469,0-20.204-.001-2.311,0-15.254,1.305-15.728-.993Z" fill="#8dbdd3" stroke-width="0"/><path d="M136.75,128.876c.186-.164.377-.322.573-.474.249-.01.662,2.036.992,2.242.998-.92.722-1.785,1.815-2.385.913-.501,2.306.057,3.394-.626,1.16,6.054,3.098,12.56,3.324,18.728-2.695-.261-2.532,6.747-5.788,6.548-.291-.639-.386-1.309-.314-2.005.091-.947.034-1.863-.554-2.669-.012-.107-.024-.213-.037-.32.274-.151.176-.244-.049-.319-.101-.141-.15-.282,0-.423-.037-.497.32-1.086-.335-1.44-.16-.189-.189-.407-.146-.642.031-.031.095-.076.089-.091-.03-.071-.08-.133-.122-.198-.105-.424-.302-.829-.253-1.283.247-.231.209-.426-.076-.589-.891-4.517-2.413-9.442-2.513-14.054Z" fill="#1e3758" stroke-width="0"/><path d="M144.264,172.378c.356.391.308.845.212,1.314-.559.226-1.137.121-1.702.121-19.237.007-38.474.007-57.712.007-.883,0-1.766-.01-2.649-.015.302-.404.745-.295,1.147-.298,1.401-.011,2.803-.008,4.204-.008,18.116,0,36.232.002,54.347.003.363,0,.727.011,1.09-.004.846-.035.846-.04,1.061-1.12Z" fill="#8dbdd3" stroke-width="0"/><path d="M143.312,166.855c.445,1.144.63,2.339.696,3.556-.642-.6-.615-1.427-.712-2.199-.056-.445.007-.905.016-1.358Z" fill="#8dbdd3" stroke-width="0"/><path d="M140.193,148.235c.588.806.645,1.722.554,2.669-.382-.849-.615-1.728-.554-2.669Z" fill="#1f3757" stroke-width="0"/><path d="M139.773,145.734c.655.354.297.943.335,1.44-.389-.415-.364-.927-.335-1.44Z" fill="#1f3757" stroke-width="0"/><path d="M143.948,170.506c.419.53.3,1.174.375,1.777-.724-.466-.32-1.17-.375-1.777Z" fill="#8dbdd3" stroke-width="0"/><path d="M139.264,142.93c.285.163.322.358.076.589-.025-.196-.05-.393-.076-.589Z" fill="#1f3757" stroke-width="0"/><path d="M139.593,144.802c.043.065.092.128.122.198.006.015-.057.06-.089.091-.063-.091-.074-.187-.034-.29Z" fill="#1f3757" stroke-width="0"/><path d="M140.107,147.597c.225.074.323.168.049.319-.016-.106-.033-.212-.049-.319Z" fill="#1f3757" stroke-width="0"/><path d="M148.21,152.894c.586.379.308.948.321,1.453-.411-.417-.292-.952-.321-1.453Z" fill="#8dbdd3" stroke-width="0"/><path d="M87.709,73.055c-.608-14.384,22.473-14.07,22.022.479-.441,14.229-22.229,13.648-22.022-.479Z" fill="#f6c344" stroke-width="0"/></svg>