<?xml version="1.0" encoding="UTF-8"?><svg id="a" xmlns="http://www.w3.org/2000/svg" viewBox="0 0 172.459 133.632"><path d="M122.098,73.976c-.814,1.915-.106,5.432-.106,7.468,0,3.108,0,6.216.002,9.325.002,6.028.491,12.279-.023,18.284-.814,9.521-14.079,12.278-17.592,2.835-.883-2.374-.663-3.486-2.578-5.357-2.198-2.148-4.646-4.119-7.08-5.992-4.42-3.401-9.218-6.315-14.238-8.742-4.724-2.284-9.663-4.112-14.736-5.45-2.879-.759-5.799-1.368-8.753-1.753-2.121-.276-7.33-1.52-9.234-.422-.704,1.566.926,5.843,2.291,6.322,1.592.559,3.82-.46,5.532-.045,1.932.468,3.343,1.784,4.165,3.556,1.292,2.786,2.899,8.253,2.029,11.282-1.08,3.763-4.418,4.408-7.815,4.739,1.885,7.992,5.282,18.109-4.489,22.474-8.767,3.916-15.105-2.989-17.036-10.742-2.749-11.038-5.386-22.103-8.141-33.139-.354-1.417-.37-3.899-1.715-4.676-1.099-.635-3.117-.476-4.381-1.057-1.8-.828-3.364-2.135-4.526-3.732-1.276-1.754-1.191-4.068-2.3-5.726-3.412,0-6.669-.233-9.072-2.98C-.657,67.064.081,62.243.084,58.074c.006-8.449,1.974-13.701,11.333-13.701,1.692-6.821,5.744-10.336,12.802-10.616,8.617-.342,17.272.24,25.893-.015,14.666-.434,29.265-5.681,41.29-14.004,2.772-1.918,5.422-4.017,7.961-6.234,3.12-2.725,3.707-4.175,5.11-7.829,1.951-5.08,8.338-7.205,13.004-4.483,6.136,3.579,4.5,11.861,4.501,17.78.001,8.312.003,16.624.003,24.936,8.134,1.757,14.363,8.467,13.041,17.235-1.009,6.694-6.38,11.619-12.923,12.834ZM107.485,8.374c-.002.522-.004,1.043-.006,1.565-.23.407-.325.84-.307,1.311.027.709.018,1.42.024,2.13,0,.52.001,1.041.002,1.561,0,1.149,0,2.298,0,3.447-.005.874-.011,1.747-.016,2.621-.002.31-.008.622.297.822.001,1.772.003,3.543.004,5.315.077,1.139-.194,2.249-.272,3.371-.111,1.585-.132,3.193.273,4.761-.002.729-.004,1.459-.006,2.188-.27.131-.298.37-.282.63,0,1.146,0,2.292.001,3.438.008.948.463,1.85.285,2.816-.272.814-.365,1.648-.285,2.501,0,.314,0,.628,0,.943-.162.763.339,1.44.285,2.189-.467,1.251-.469,2.502,0,3.753-.219,5.208-.057,10.43,0,15.643-.138.417-.593.834-.004,1.253.002.208.003.416.005.624,0,1.355,0,2.71,0,4.065-.002.521-.003,1.042-.005,1.563-.413.279-.351.694-.219,1.054.137.375.242.74.224,1.138,0,.73,0,1.461-.001,2.191-.274,5.965.009,11.953.01,17.941,0,4.654-2.125,12.966,3.77,14.983,8.473,2.899,7.191-9.28,7.177-13.792-.024-7.941.005-15.883.006-23.824.827-3.332.005-7.171-.002-10.595-.008-4.29,0-8.579,0-12.869,0-1.564,0-3.128-.001-4.693,0-.417.002-.834.003-1.251,0-2.19,0-4.38,0-6.57,0-1.981-.002-3.962-.003-5.943l.002-2.816c0-.209,0-.417,0-.626,0-.521,0-1.043,0-1.564,0-3.233,0-6.465,0-9.698,0-.313,0-.626-.001-.938,0-.209,0-.417,0-.626,0-.73-.001-1.46-.002-2.19,0-.313,0-.625,0-.938.001-2.232.002-4.464.003-6.696,0-1.092-.379-2.009-1.244-2.703.06-3.296-8.724-3.261-8.781.012-.671.7-.828,1.592-.931,2.504ZM103.734,14.178c-8.807,8.713-20.055,14.981-31.745,18.924-3.339,1.126-6.689,2.148-10.157,2.796-1.649.308-6.867.117-8.081,1.054-1.508,1.163-.711,5.159-.711,7.068,0,3.712,0,7.424,0,11.136,0,7.551-.797,15.624.001,23.128.295,2.775,1.186,2.397,3.956,2.818,3.713.565,7.4,1.334,11.037,2.274,13.111,3.389,24.205,10.925,34.735,19.119,2.119-1.578.969-7.064.969-9.458-.001-4.013-.002-8.027-.003-12.04-.001-7.453-.002-14.907-.003-22.36,0-14.82,0-29.64,0-44.46ZM49.673,58.964h-.005c0-3.86-.002-7.719-.002-11.579,0-2.249,1.074-7.336-.004-9.212-1.03-1.792-4.045-.937-6.085-.937-3.654,0-7.307-.003-10.961-.003-5.242,0-12.806-1.48-16.247,3.592-3.06,4.511-1.454,12.587-1.456,17.762-.002,5.419-1.799,14.178,1.767,18.762,3.677,4.729,10.977,3.247,16.183,3.247,3.266,0,15.368,1.61,16.791-1.001,1.001-1.836.018-6.755.018-8.795,0-3.945,0-7.891,0-11.836ZM26.955,84.244c.682,5.68,2.608,11.501,4.038,17.052,1.249,4.847,2.167,9.81,3.552,14.614,1.165,4.04,1.219,9.317,4.755,12.132,3.822,3.043,9.196,2.394,12.094-1.613,3.179-4.397.514-10.476-.688-15.138-1.419-5.506-2.935-11.019-4.08-16.572-.506-2.453-1.118-4.904-1.775-7.319-.631-2.321-.398-2.612-2.236-3.319-2.172-.836-6.684-.005-8.984-.004-1.434,0-5.459-.732-6.676.167ZM121.926,58.873c.007,0,.015,0,.022,0,0,2.871-.76,7.073,0,9.845.524,1.911.631,1.817,2.853.83,3.806-1.69,6.469-5.319,6.891-9.466.478-4.695-2.148-9.59-6.409-11.672-1.619-.791-2.568-1.37-3.353-.007-.424.736-.006,4.37-.006,5.235,0,1.745.002,3.49.002,5.235ZM3.593,59.054h-.002c0,3.231-1.002,8.008,2.263,9.986.66.4,4.685,1.605,5.446.731.795-.913.039-4.165.415-5.432-.538-1.161-.022-3.006-.046-4.278-.026-1.436-.243-2.882-.245-4.344-.003-1.371.896-6.772-.142-7.701-1.814-1.623-6,.84-6.893,2.285-1.448,2.344-.795,6.146-.795,8.752ZM52.795,93.751v.031c-4.212,0-2.173,2.884-1.375,6.219.55,2.297.457,6.272,3.167,6.647,4.022.557,4.013-3.138,3.428-5.828-.805-3.699-.862-7.069-5.22-7.069Z" fill="#1c2a48" stroke-width="0"/><path d="M168.571,56.467c1.337-1.62.486-8.829.224-10.985-.279-2.295-.358-2.106-2.783-1.43-2.287.637-4.55,1.368-6.828,2.04-1.774.524-4.449.76-6.006,1.746-1.342.85-1.201.68-1.273,2.518-.18,4.609-.014,9.268,0,13.881.011,3.408.483,7.289-2.333,9.809-2.712,2.426-6.774,2.168-9.35-.257-2.265-2.133-2.767-5.657-1.177-8.373,1.939-3.311,5.624-3.626,8.945-2.672.833-2.192.221-5.386.217-7.674-.005-2.71.174-5.451.171-8.144-.005-5.024-1.001-8.04,4.424-9.779,4.78-1.532,10.4-4.197,15.395-4.613,5.606-.467,4.066,6.201,4.065,9.961,0,5.815-.001,11.629,0,17.444,0,4.358-1.097,9.29-6.465,9.638-10.474.68-8.929-16.584,2.773-13.11Z" fill="#7ccedd" stroke-width="0"/><path d="M103.734,14.178c0,14.82-.001,29.64,0,44.46,0,7.453.001,14.907.003,22.36,0,4.013.002,8.027.003,12.04,0,2.394,1.15,7.88-.969,9.458-10.53-8.194-21.625-15.73-34.735-19.119-3.637-.94-7.324-1.71-11.037-2.274-2.769-.421-3.66-.043-3.956-2.818-.798-7.504,0-15.577-.001-23.128,0-3.712,0-7.424,0-11.136,0-1.909-.796-5.905.711-7.068,1.214-.937,6.432-.746,8.081-1.054,3.468-.647,6.818-1.669,10.157-2.796,11.69-3.943,22.938-10.211,31.745-18.924Z" fill="#203e63" stroke-width="0"/><path d="M49.673,58.964c0,3.945,0,7.891,0,11.836,0,2.04.983,6.959-.018,8.795-1.423,2.611-13.525,1.001-16.791,1.001-5.207,0-12.506,1.481-16.183-3.247-3.565-4.584-1.769-13.343-1.767-18.762.002-5.174-1.604-13.251,1.456-17.762,3.441-5.072,11.005-3.592,16.247-3.592,3.654,0,7.307.002,10.961.003,2.039,0,5.055-.855,6.085.937,1.078,1.876.004,6.962.004,9.212,0,3.86.002,7.719.002,11.579h.005Z" fill="#f0775c" stroke-width="0"/><path d="M26.955,84.244c1.217-.898,5.242-.166,6.676-.167,2.3-.001,6.813-.832,8.984.004,1.837.707,1.604.998,2.236,3.319.657,2.415,1.269,4.867,1.775,7.319,1.146,5.553,2.661,11.066,4.08,16.572,1.202,4.662,3.868,10.741.688,15.138-2.897,4.007-8.272,4.656-12.094,1.613-3.536-2.815-3.591-8.092-4.755-12.132-1.385-4.804-2.303-9.767-3.552-14.614-1.43-5.551-3.356-11.371-4.038-17.052Z" fill="#213e61" stroke-width="0"/><path d="M118.444,76.573c0,7.941-.029,15.883-.006,23.824.014,4.512,1.296,16.691-7.177,13.792-5.894-2.017-3.769-10.329-3.77-14.983,0-5.987-.284-11.975-.01-17.941.582-.012,2.019.885,2.63,1.048.927.248,2.281.534,3.282.25-.075,1.349,1.632,3.054,2.749,2.039.221-.201.682-3.14.693-3.515.042-1.491-1.423-2.944-1.364-4.224.128-2.78,1.592-.381,2.972-.29Z" fill="#213d62" stroke-width="0"/><path d="M118.444,76.573c-1.381-.091-2.844-2.491-2.972.29-.059,1.28,1.406,2.734,1.364,4.224-.011.375-.472,3.313-.693,3.515-1.116,1.015-2.824-.689-2.749-2.039-1.001.284-2.355-.002-3.282-.25-.611-.163-2.048-1.06-2.63-1.048,0-.73,0-1.461.001-2.191.813-.07.987-2.122-.005-2.191.002-.521.003-1.042.005-1.563,1.545-.445,1.553.535,2.691.757.729.143,1.382-.426,2.29-.159.354.104.638.615,1.085.541.589-.777,1.899-1.775,1.158-2.804-.368-.512-1.494.015-1.937-.383-.658-.591-.358-1.434-1.189-2.008-1.034-.714-2.996-.018-4.099-.012-.002-.208-.003-.416-.005-.624,1.055-.169,1.064-1.084.004-1.253-.056-5.213-.219-10.434,0-15.643,1.257-.114,1.598-3.763,0-3.753.054-.749-.446-1.426-.285-2.189,1.127-.036.997-.911,0-.943-.08-.854.012-1.688.285-2.501,1.96.181,3.806.097,3.76-2.502.484-.251.415-.95.95-1.171,2.661.692,2.018-.714,4.057-.393.34.023.727-.094.939.313-.481.731-3.168,1.485-4.008,2.136-1.51,1.169-3.037,2.526-1.701,4.317.024,1.461-.921,1.131.254,2.605.895,1.123,1.498,1.253,2.693.847,2.472-.841.734-3.589,4.017-3.335,0,.417-.002.834-.003,1.251-2.076.376-2.131,3.524-1.665,5.001.54-.298,1.099-.335,1.666-.309,0,4.29-.008,8.579,0,12.869.007,3.424.828,7.263.002,10.595ZM110.243,78.775c-.88.131-.083.551-.088.761,0,.026,1.285-.641.088-.761ZM111.769,54.382c-.057-.258-.186-.302-.388-.131.079.346.209.389.388.131ZM110.518,55.008c-.057-.258-.186-.302-.388-.131.079.346.209.389.388.131Z" fill="#203e64" stroke-width="0"/><path d="M121.926,58.873c0-1.745-.002-3.49-.002-5.235,0-.865-.418-4.499.006-5.235.785-1.363,1.734-.784,3.353.007,4.261,2.082,6.887,6.976,6.409,11.672-.422,4.147-3.084,7.776-6.891,9.466-2.222.987-2.329,1.081-2.853-.83-.761-2.772,0-6.974,0-9.845-.007,0-.015,0-.022,0Z" fill="#ea755d" stroke-width="0"/><path d="M118.443,31.211c0,.209,0,.417,0,.626-1.169.05-3.179,5.035-4.712,5.626-.768.296-5.201.164-5.536-.806-.286-.83,1.08-1.721,1.369-2.338.529-1.129.348-2.245.612-3.308.521-2.101-.41-1.185,1.53-1.822.473-.155,6.034-1.39,4.598-2.895-1.279.296-2.779-.007-3.887.32-.857.253-1.047,1.292-1.89.931-1.629-.697.267-4.453-.526-5.692-.832.656-1.662-.076-2.522-.023-.305-.2-.299-.512-.297-.822.005-.874.011-1.747.016-2.621,2.079-.061,2.013-3.084,0-3.447,0-.52-.001-1.041-.002-1.561,2.967-.541,2.743.907,4.268,2.44.649.653,1.938,1.663,2.744,2.389,1.32,1.19,1.574,1.115,3.607,1.115-.006.424.203.632.627.626,0,3.233,0,6.465,0,9.698-.461.011-.628.264-.628.704,0,.456.04.849.629.86Z" fill="#213e64" stroke-width="0"/><path d="M3.593,59.054c0-2.606-.653-6.408.795-8.752.893-1.446,5.079-3.908,6.893-2.285,1.038.929.139,6.33.142,7.701.003,1.462.219,2.908.245,4.344.023,1.272-.492,3.117.046,4.278-.375,1.267.38,4.518-.415,5.432-.761.874-4.786-.331-5.446-.731-3.264-1.979-2.263-6.755-2.263-9.986h.002Z" fill="#204066" stroke-width="0"/><path d="M117.815,19.323c-2.033,0-2.287.075-3.607-1.115-.805-.726-2.095-1.737-2.744-2.389-1.525-1.533-1.301-2.981-4.268-2.44-.006-.71.002-1.421-.024-2.13-.018-.472.078-.904.307-1.311,1.71.155.734,2.105,2.573,1.694.744-.167,1.325-1.311.253-1.381.061-1.46.85-1.513.337-2.752-.216-.522-1.59-1.644-2.225-1.63.057-3.272,8.841-3.307,8.781-.012-.009,1.642.117,3.229-1.716,3.887-1.451.521-1.989-.823-3.073-.637-.67.796-.298,2.038-.227,3.021-.389-.275-.764-.314-1.126-.117-.276.486.954,1.517,1.126.43.695-.018,1.892.852,2.651.959.384.054,1.104-.385,1.42-.286,1.236.389,1.357,2.046,2.185,2.142,0,.313,0,.625,0,.938-.841.045-.749.801-.821,1.272-.064.418.214.91.823.918,0,.209,0,.417,0,.626-.259.003-.504.034-.626.313ZM114.822,18.265c1.029,1.56,3.277-2.152,2.377-2.891-.456-.374-1.777,2.449-2.377,2.891ZM112.595,14.297c.057.258.186.302.388.131-.079-.346-.209-.389-.388-.131Z" fill="#213e64" stroke-width="0"/><path d="M52.795,93.751c4.358,0,4.415,3.37,5.22,7.069.585,2.69.594,6.384-3.428,5.828-2.71-.375-2.617-4.35-3.167-6.647-.798-3.335-2.837-6.219,1.375-6.219v-.031Z" fill="#e9755d" stroke-width="0"/><path d="M107.479,21.83c.86-.053,1.69.679,2.522.023.793,1.24-1.104,4.996.526,5.692.843.361,1.033-.679,1.89-.931,1.108-.327,2.608-.024,3.887-.32,1.436,1.505-4.125,2.74-4.598,2.895-1.941.637-1.009-.279-1.53,1.822-.264,1.063-.083,2.178-.612,3.308-.289.617-1.655,1.509-1.369,2.338.335.97,4.768,1.102,5.536.806,1.533-.591,3.543-5.576,4.712-5.626l-.002,2.816c-1.966.566-2.05,4.004-2.191,5.631-2.04-.32-1.396,1.086-4.057.393-.534.221-.466.92-.95,1.171-.689-.606-.658-1.689-1.798-1.816-.543-.06-1.241,1.543-2.248,1.501,0-1.146,0-2.292-.001-3.438.479.169.842.084,1.088-.254-.125-.366-.394-.491-.807-.375.002-.729.004-1.459.006-2.188,1.821-.008,2.615-8.321,0-8.133-.001-1.772-.003-3.543-.004-5.315Z" fill="#203e63" stroke-width="0"/><path d="M118.444,47.166c-3.282-.255-1.544,2.494-4.017,3.335-1.195.406-1.798.276-2.693-.847-1.175-1.474-.229-1.144-.254-2.605-1.336-1.791.191-3.148,1.701-4.317.84-.65,3.527-1.404,4.008-2.136.418,0,.837,0,1.255,0,0,2.19,0,4.38,0,6.57Z" fill="#203e65" stroke-width="0"/><path d="M107.483,71.255c1.103-.006,3.064-.702,4.099.012.831.574.531,1.417,1.189,2.008.443.398,1.569-.129,1.937.383.74,1.028-.569,2.027-1.158,2.804-.447.074-.731-.438-1.085-.541-.909-.267-1.561.302-2.29.159-1.138-.223-1.145-1.203-2.691-.757,0-1.355,0-2.71,0-4.065Z" fill="#213d62" stroke-width="0"/><path d="M112.182,12.128c-.071-.982-.443-2.224.227-3.021,1.084-.186,1.622,1.158,3.073.637,1.833-.658,1.707-2.245,1.716-3.887.865.694,1.245,1.611,1.244,2.703-.001,2.232-.002,4.464-.003,6.696-.828-.097-.948-1.754-2.185-2.142-.316-.099-1.036.34-1.42.286-.76-.107-1.956-.977-2.651-.959v-.313Z" fill="#213d62" stroke-width="0"/><path d="M107.198,41.533c1.007.042,1.704-1.561,2.248-1.501,1.14.127,1.109,1.209,1.798,1.816.046,2.599-1.8,2.683-3.76,2.502.177-.966-.277-1.869-.285-2.816Z" fill="#213d62" stroke-width="0"/><path d="M107.483,27.145c2.615-.188,1.821,8.125,0,8.133-.405-1.569-.383-3.176-.273-4.761.078-1.122.35-2.232.272-3.371Z" fill="#213d62" stroke-width="0"/><path d="M108.416,5.87c.635-.015,2.009,1.108,2.225,1.63.513,1.239-.276,1.292-.337,2.752-1.449-.087-1.493-.074-1.868-1.336-.172-.58-.546-.521-.952-.542.103-.912.259-1.803.931-2.504Z" fill="#213d62" stroke-width="0"/><path d="M118.444,40.595c-.418,0-.837,0-1.255,0-.212-.407-.599-.29-.939-.313.14-1.627.224-5.065,2.191-5.631.001,1.981.002,3.962.003,5.943Z" fill="#213d62" stroke-width="0"/><path d="M118.442,53.11c-.566-.027-1.126.01-1.666.309-.467-1.477-.411-4.625,1.665-5.001,0,1.564,0,3.128.001,4.693Z" fill="#213d62" stroke-width="0"/><path d="M107.485,8.374c.406.021.78-.038.952.542.374,1.262.418,1.249,1.868,1.336,1.072.069.492,1.214-.253,1.381-1.838.411-.863-1.539-2.573-1.694.002-.522.004-1.043.006-1.565Z" fill="#213e64" stroke-width="0"/><path d="M107.199,14.941c2.012.363,2.079,3.385,0,3.447,0-1.149,0-2.298,0-3.447Z" fill="#213d62" stroke-width="0"/><path d="M107.483,49.982c1.599-.01,1.257,3.639,0,3.753-.47-1.251-.467-2.502,0-3.753Z" fill="#213d62" stroke-width="0"/><path d="M107.479,76.883c.992.069.818,2.121.005,2.191.018-.398-.087-.762-.224-1.138-.132-.36-.194-.775.219-1.054Z" fill="#213d62" stroke-width="0"/><path d="M118.44,18.385c-.609-.008-.887-.5-.823-.918.072-.472-.02-1.227.821-1.272,0,.73.001,1.46.002,2.19Z" fill="#213d62" stroke-width="0"/><path d="M107.482,69.377c1.06.169,1.051,1.084-.004,1.253-.589-.42-.135-.836.004-1.253Z" fill="#213d62" stroke-width="0"/><path d="M118.443,31.211c-.589-.011-.63-.404-.629-.86,0-.441.167-.694.628-.704,0,.521,0,1.043,0,1.564Z" fill="#203e63" stroke-width="0"/><path d="M107.199,46.851c.997.032,1.126.907,0,.943,0-.314,0-.628,0-.943Z" fill="#213d62" stroke-width="0"/><path d="M107.478,37.466c.413-.116.682.009.807.375-.246.338-.609.423-1.088.254-.017-.259.011-.499.281-.63Z" fill="#213d62" stroke-width="0"/><path d="M117.815,19.323c.121-.279.366-.31.626-.313,0,.313,0,.626.001.938-.424.006-.633-.202-.627-.626Z" fill="#213d62" stroke-width="0"/><path d="M110.243,78.775c1.197.12-.089.787-.088.761.005-.21-.792-.63.088-.761Z" fill="#213d62" stroke-width="0"/><path d="M111.769,54.382c-.179.258-.308.214-.388-.131.202-.171.331-.127.388.131Z" fill="#213d62" stroke-width="0"/><path d="M110.517,55.008c-.179.258-.308.214-.388-.131.202-.171.331-.127.388.131Z" fill="#213d62" stroke-width="0"/><path d="M114.822,18.265c.599-.442,1.921-3.265,2.377-2.891.9.739-1.347,4.451-2.377,2.891Z" fill="#213e64" stroke-width="0"/><path d="M112.182,12.128v.313c-.172,1.087-1.402.055-1.126-.43.362-.197.737-.157,1.126.117Z" fill="#213e64" stroke-width="0"/><path d="M112.595,14.297c.179-.258.308-.214.388.131-.202.171-.331.127-.388-.131Z" fill="#213e64" stroke-width="0"/></svg>