<?xml version="1.0" encoding="UTF-8"?><svg id="a" xmlns="http://www.w3.org/2000/svg" viewBox="0 0 207.178 195.063"><path d="M183.797,49.876c2.635-5.885,5.031-16.86,12.147-18.618,6.363-1.572,11.923,3.819,11.165,10.166-.482,4.034-3.29,8.466-4.925,12.12-1.723,3.851-3.457,7.696-5.177,11.548-2.521,5.643-4.491,15.324-11.375,17.122-6.579,1.718-14.828-4.425-20.568-7.01-4.015-1.808-8.032-3.608-12.055-5.397-3.191-1.419-7.243-2.591-9.803-5.093-4.294-4.194-3.65-11.513,1.689-14.534,3.213-1.818,6.312-1.135,9.52.145,2.356.941,7.573,4.724,10.203,4.318-.9-3.026-4.419-6.354-6.439-8.712-2.688-3.138-5.614-6.07-8.765-8.744-6.302-5.348-13.448-9.7-21.092-12.845-15.419-6.343-32.652-7.776-48.877-3.883-30.653,7.357-54.064,32.667-59.945,63.463-6.128,32.091,10.424,65.335,38.22,81.738,28.404,16.761,64.967,13.79,90.508-6.941,5.635-4.573,10.619-9.919,14.809-15.841,3.65-5.159,6.517-15.457,12.593-17.838,5.841-2.288,11.949,1.705,12.472,7.898.55,6.514-5.757,14.475-9.298,19.581-18.301,26.393-49.625,43.079-81.881,42.53-32.265-.549-62.87-17.132-80.75-43.986C-2.675,122.755-5.333,85.768,9.696,55.18,23.75,26.579,51.262,5.907,82.854,1.115c32.741-4.966,66.45,6.845,88.436,31.764,2.398,2.718,4.643,5.565,6.737,8.523,1.594,2.25,3.393,7.082,5.769,8.474Z" fill="#1e3151" stroke-width="0"/><path d="M186.94,113.279c-12.033.323-12.756-17.991-.853-18.888,12.836-.967,13.372,19.865.853,18.888Z" fill="#79cfd7" stroke-width="0"/></svg>