<?xml version="1.0" encoding="UTF-8"?><svg id="a" xmlns="http://www.w3.org/2000/svg" viewBox="0 0 281.049 177.303"><path d="M280.966,33.166c0,.507,0,1.014,0,1.521-.246,1.117-.25,2.235.004,3.352,0,.303,0,.606.001.91-.265,1.422-.266,2.844,0,4.266,0,.202,0,.403,0,.605-.302.522-.153,1.093-.153,1.638-.008,36.251-.008,72.502-.002,108.752,0,.55-.119,1.116.124,1.651.069,2.107-.397,4.132-1.068,6.098-2.045,5.989-5.89,10.436-11.595,13.22-2.242,1.094-4.594,1.864-7.107,2.035-.299.02-.602-.017-.904-.027-.362-.271-.782-.162-1.177-.162-12.112-.006-24.225-.006-36.337.001-.391,0-.817-.131-1.164.184-.197,0-.393,0-.59,0-.243-.258-.562-.187-.858-.187-5.93-.004-11.86-.004-17.79,0-.296,0-.615-.071-.857.188-.298,0-.596,0-.893.001-.241-.262-.561-.189-.856-.189-5.929-.004-11.858-.004-17.787,0-.296,0-.614-.067-.861.183-.705,0-1.41-.001-2.116-.002-.614-.293-1.228-.294-1.842,0-.806.002-1.612.003-2.418.005-.45-.36-.977-.177-1.464-.18-3.698-.017-7.397-.017-11.095,0-.487.002-1.015-.179-1.465.179-.603,0-1.206,0-1.809,0-1.02-.312-2.041-.307-3.062-.003-1.314,0-2.628,0-3.941,0-.919-.291-1.837-.29-2.756-.001-.604,0-1.208-.001-1.812-.002-.411-.276-.822-.278-1.233.002-.3,0-.599,0-.899,0-.208-.223-.416-.225-.623.001-.401,0-.802.001-1.203.002-.209-.227-.417-.229-.624.001-.299,0-.597.001-.896.002-.411-.289-.823-.287-1.236-.003-.4,0-.8,0-1.2,0-.296-.285-.67-.183-1.013-.183-9.378-.005-18.756-.005-28.133,0-.343,0-.716-.101-1.013.183h-1.2c-2.746-.302-5.492-.312-8.239.003h-1.808c-.412-.287-.824-.288-1.236,0-.4,0-.8,0-1.2,0-.31-.268-.62-.27-.931,0-1.313,0-2.627,0-3.94,0-.514-.296-1.027-.298-1.541,0-1.11,0-2.221-.001-3.331-.002-3.051-.307-6.102-.323-9.153.008h-4.545c-2.646-.324-5.292-.322-7.938-.001-.297,0-.595,0-.892,0-.344-.324-.772-.187-1.162-.188-13.336-.007-26.672-.007-40.009,0-.392,0-.817-.124-1.169.178-.2-.009-.401-.018-.601-.026-1.021-.971-2.183-.942-3.406-.483-4.183-1.062-7.807-3.12-10.723-6.296-3.118-3.396-5.184-7.354-5.865-11.964-.066-.446-.053-.904-.077-1.356.258-.954-.042-1.903-.042-2.856.022-42.144.021-84.289.005-126.433,0-.847.224-1.695.003-2.542.112-1.002.135-2.023.349-3.002,1.635-7.471,5.607-13.405,11.949-17.673C16.388,1.983,20.643.416,25.312.119c.25-.016.503.01.755.016.641.223,1.306.146,1.962.146,75.153.003,150.305.003,225.458,0,.656,0,1.32.072,1.964-.134.487.037.973.075,1.46.112.207.039.351.165.468.331.366.217.724.262,1.068-.043.399.049.809.055,1.196.153,7.139,1.811,12.808,5.724,16.846,11.906,2.928,4.482,4.379,9.441,4.534,14.781.029,1.01-.037,2.024-.058,3.036-.24.914-.241,1.828,0,2.741Z" fill="#132143" stroke-width="0"/><path d="M255.451.148c-.19.142-.364.37-.573.407-.394.069-.808.033-1.213.033-75.273,0-150.546,0-225.819,0-.405,0-.819.036-1.213-.036-.207-.038-.378-.272-.566-.417.958-.045,1.916-.129,2.873-.129,17.141-.007,34.281-.003,51.422-.003,56.898-.001,113.797-.005,170.695,0,1.465,0,2.929.094,4.394.145Z" fill="#0c1a33" stroke-width="0"/><path d="M.245,25.246c.102.162.272.317.292.489.046.401.022.81.022,1.215,0,42.8,0,85.601-.013,128.401,0,.574.252,1.219-.268,1.725-.082-.906-.235-1.811-.236-2.717-.014-32.449-.01-64.898-.016-97.346C.025,47.481-.006,37.949,0,28.417c0-1.057.159-2.114.244-3.172Z" fill="#0c1a33" stroke-width="0"/><path d="M280.941,155.86c-.091-.17-.243-.334-.261-.511-.041-.402-.017-.81-.017-1.216,0-36.202-.002-72.405.013-108.607,0-.568-.274-1.223.295-1.708.024.555.07,1.11.07,1.665.005,35.073.009,70.145.004,105.218,0,1.719-.069,3.439-.105,5.158Z" fill="#182441" stroke-width="0"/><path d="M20.951,177.202c.159-.107.309-.286.479-.306.4-.049.81-.025,1.215-.025,12.985,0,25.971-.005,38.956.014.563,0,1.228-.295,1.688.327-.503.026-1.007.074-1.51.074-13.006.01-26.012.016-39.018.016-.604,0-1.207-.066-1.811-.101Z" fill="#0c1a33" stroke-width="0"/><path d="M221.59,177.209c.158-.108.305-.285.475-.311.348-.052.707-.026,1.062-.026,11.863,0,23.726-.004,35.59.012.519,0,1.126-.254,1.552.303-.503.031-1.005.088-1.508.088-11.988.007-23.977.008-35.965.006-.402,0-.804-.047-1.206-.072Z" fill="#0c1a33" stroke-width="0"/><path d="M109.244,177.206c.158-.108.307-.283.477-.309.348-.052.708-.026,1.062-.026,9.027,0,18.053-.005,27.08.012.517,0,1.129-.261,1.54.323-.402.027-.803.076-1.205.076-9.301.003-18.601.002-27.902-.003-.351,0-.702-.048-1.053-.074Z" fill="#0c1a33" stroke-width="0"/><path d="M201.495,177.209c.249-.468.696-.332,1.081-.333,2.434-.009,4.868-.005,7.302-.005,3.296,0,6.592-.006,9.888.008.426.002.934-.189,1.234.33-.35.026-.701.073-1.051.074-5.851.004-11.703.004-17.554,0-.3,0-.6-.047-.9-.072Z" fill="#0c1a33" stroke-width="0"/><path d="M181.097,177.205c.253-.465.699-.327,1.084-.329,2.586-.009,5.171-.005,7.757-.005,3.143,0,6.287-.006,9.43.008.426.002.934-.188,1.233.332-.3.026-.6.075-.899.075-5.902.002-11.803,0-17.705-.007-.3,0-.6-.048-.9-.074Z" fill="#0c1a33" stroke-width="0"/><path d="M160.698,177.208c.163-.334.469-.336.777-.336,4.156,0,8.313,0,12.469,0,.309,0,.614.004.778.337-.249.026-.498.075-.746.075-4.177.004-8.354.003-12.531-.002-.249,0-.498-.048-.747-.073Z" fill="#0c1a33" stroke-width="0"/><path d="M16.943,176.693c.344-.572.884-.714,1.508-.743.632-.029,1.182.158,1.635.565.158.142.179.436.263.66-1.169.076-2.297-.139-3.406-.483Z" fill="#0c1a33" stroke-width="0"/><path d="M76.664,177.214c.207-.114.413-.325.621-.326,2.635-.022,5.271-.022,7.906,0,.21.002.418.208.627.319-1.4.027-2.801.075-4.201.075-1.651,0-3.302-.043-4.952-.067Z" fill="#0c1a33" stroke-width="0"/><path d="M99.805,177.209c.208-.112.415-.319.624-.321,2.329-.023,4.658-.023,6.987,0,.21.002.418.207.627.318-2.746.001-5.492.002-8.239.003Z" fill="#0c1a33" stroke-width="0"/><path d="M64.182,177.213c.207-.113.414-.323.622-.325,2.231-.024,4.462-.024,6.693,0,.209.002.415.212.622.326-2.646,0-5.292,0-7.938-.001Z" fill="#0c1a33" stroke-width="0"/><path d="M280.972,43.214c-.1-.161-.283-.32-.287-.483-.026-1.1-.026-2.2,0-3.3.004-.163.186-.322.286-.483,0,1.422,0,2.844,0,4.266Z" fill="#182441" stroke-width="0"/><path d="M280.97,38.038c-.092-.112-.26-.221-.262-.335-.022-.893-.023-1.786-.001-2.679.003-.114.169-.225.26-.337.001,1.117.002,2.234.004,3.352Z" fill="#182441" stroke-width="0"/><path d="M155.827,177.205c.108-.098.215-.278.326-.281.803-.024,1.608-.023,2.411.001.111.003.217.184.325.283-1.021,0-2.041-.002-3.062-.003Z" fill="#0c1a33" stroke-width="0"/><path d="M280.966,33.166c-.492-.914-.492-1.827,0-2.741,0,.914,0,1.828,0,2.741Z" fill="#182441" stroke-width="0"/><path d="M149.129,177.204c.919-.541,1.838-.541,2.756.001-.919,0-1.838,0-2.756-.001Z" fill="#0c1a33" stroke-width="0"/><path d="M177.14,177.203c.614-.495,1.228-.494,1.842,0-.614,0-1.228,0-1.842,0Z" fill="#0c1a33" stroke-width="0"/><path d="M89.149,177.208c.649-.47.891-.47,1.541,0-.514,0-1.027,0-1.541,0Z" fill="#0c1a33" stroke-width="0"/><path d="M258.447.548c-.548.465-.652.467-1.232.023.126-.16.29-.232.493-.217.247.065.493.129.74.194Z" fill="#0c1a33" stroke-width="0"/><path d="M257.707.354c-.164.072-.328.145-.493.217-.101-.104-.202-.207-.304-.311.265.031.531.063.796.094Z" fill="#3f485b" stroke-width="0"/><path d="M96.761,177.209c.508-.451.726-.451,1.236,0h-1.236Z" fill="#0c1a33" stroke-width="0"/><path d="M140.604,177.207c.565-.457.673-.457,1.236.003-.412,0-.824-.002-1.236-.003Z" fill="#0c1a33" stroke-width="0"/><path d="M146.085,177.203c.563-.452.667-.452,1.233-.002-.411,0-.822.001-1.233.002Z" fill="#0c1a33" stroke-width="0"/><path d="M94.63,177.208c.401-.433.529-.433.931,0-.31,0-.62,0-.931,0Z" fill="#0c1a33" stroke-width="0"/><path d="M142.735,177.208c.207-.387.416-.386.624-.001-.208,0-.416,0-.624.001Z" fill="#0c1a33" stroke-width="0"/><path d="M144.563,177.205c.207-.384.415-.382.623-.001-.208,0-.415,0-.623.001Z" fill="#0c1a33" stroke-width="0"/><path d="M269.989,41.081c.005,10.095.012,20.19.015,30.285.002,7.356.002,14.711-.004,22.067,0,.703.076,1.407-.224,2.098-.132.304-.079.701-.064,1.053.078,1.812-.227,3.642.274,5.437.092.33.018.707.018,1.062,0,14.864.002,29.727-.003,44.591,0,1.612-.362,3.189-.525,4.783-.244,2.388-1.627,4.26-2.604,6.32-.948.823-1.362,2.156-2.593,2.713-.132.06-.234.192-.341.299-2.019,2.025-4.551,3.066-7.259,3.739-.529.131-1.108.077-1.664.077-22.321.004-44.642.004-66.963.004-53.773,0-107.546-.001-161.319.002-2.747,0-5.233-.785-7.578-2.218-2.164-1.323-3.78-3.128-5.251-5.151-1.499-2.06-2.078-4.433-2.661-6.823-.082-.336-.026-.707-.026-1.062,0-29.626.002-59.252.003-88.877.779-.387.953.304,1.224.729.492.771.631,1.741,1.205,2.449.605.746.558,1.962,2.095,2.129.658.071,1.583,1.484,1.837,2.596.2.875-.342,1.449-1.171,1.691-.78.228-1.126-.178-1.217-.919-.045-.37-.19-.738-.653-.667-.432.067-.3.456-.296.74.004.306.074.666-.122.888-2.358,2.676-.713,5.81-.999,8.719-.04.405.005,1.095.628,1.004.624-.091,1.575.32,1.822-.661.476-1.892,1.857-2.305,3.546-2.488.765-.083,2.035.153,2.107-1.007.081-1.305.705-2.893-.964-3.813-.132-.073-.259-.167-.364-.274-.556-.573-1.742-.539-1.834-1.445-.115-1.137-.079-2.338.378-3.436.21-.505.234-.924.023-1.445-.707-1.745.578-3.475,2.551-3.45.656.008,1.347.047,1.943.32,1.588.727,3.094-.064,4.636-.158.427-.026.389-.335.445-.648.245-1.363,1.042-2.312,2.125-3.182,1.165-.937,2.524-1.692,3.333-3.047.421-.705.841-1.333.625-2.246-.204-.863.393-1.343,1.166-1.483,1.186-.214,2.185-.716,3.101-1.502.617-.53,1.382-.597,2.104-.074.104.791-.483,1.2-.965,1.614-6.192,5.321-10.387,11.984-13.257,19.559-2.184,5.764-3.229,11.758-3.031,17.876.268,8.28,2.468,16.054,6.688,23.28,3.252,5.569,7.384,10.336,12.418,14.246,5.872,4.561,12.488,7.717,19.84,9.2,3.386.683,6.787,1.31,10.249,1.207,7.655-.228,14.952-1.965,21.812-5.437,7.492-3.791,13.579-9.233,18.377-16.054,3.107-4.416,5.35-9.303,6.791-14.551.741-2.701,1.276-5.421,1.61-8.192.064-.535-.034-1.152.616-1.442,1.176.264,1.083,1.199.973,2.031-.129.968-.071,1.529,1.168,1.472,1.409-.065,2.165.936,2.626,2.13.262.679.552,1.138,1.401,1.026.537-.071,1.002.253,1.219.743.752,1.698,2.362,1.884,3.87,2.236.463.108,1.049-.118,1.259.557.085.414-.023.807-.104,1.205-1.124,5.495,2.583,10.162,8.149,10.166,24.504.018,49.008.013,73.512.003,4.006-.002,6.777-1.979,8.328-5.256,2.306-4.873-1.91-11.136-7.615-10.977-10.752.301-21.508.09-32.262.119-13.799.037-27.599.069-41.397-.036-3.219-.024-5.727.979-7.694,3.466-.126.16-.287.286-.453.399-1.161.139-2.17-.436-3.109-.918-1.08-.555-.732-2.12.494-2.627.831-.344,1.698-.204,2.557-.147.982.066,1.638-.146,1.228-1.365-.179-.532-.178-1.105-.073-1.659.186-.977.738-1.537,1.789-1.47.354.022.704.096,1.058.12,2.149.146,2.178.118,2.028-1.948-.086-1.194.298-1.573,1.603-1.627.456-.019,1.212.31,1.221-.439.009-.789-.756-.875-1.38-.758-.847.158-1.725.319-1.781,1.5-.039.835-.595,1.036-1.284.722-.998-.454-1.984-.7-3.091-.433-.486.117-.82-.205-1.016-.709-.595-1.53-1.129-1.796-2.726-1.271-.895.294-1.79.372-2.701.277-1.184-.123-1.397-.575-.827-1.617.073-.134.176-.25.249-.382.275-.5,1.011-.882.586-1.577-.4-.654-1.112-.576-1.786-.541-.823.043-1.605.113-2.243.746-.406.402-.926.69-1.515.377-.692-.368-.882-1.108-.659-1.712.46-1.25.276-2.298-.398-3.41-.403-.664-.106-1.42.423-1.955,1.001-1.01,2.399-1.307,3.673-1.706.849-.266,1.152.66,1.206,1.397.059.811.095,1.625,1.177,1.56,1.064-.063,1.185-.888,1.259-1.758.164-1.93,1.07-2.817,2.729-2.773.383.01.707.082.817.518.089.62-.08,1.213-.176,1.812-.775,4.826,2.657,9.035,7.548,9.254.355.016.71.014,1.065.014,35.46,0,70.921-.004,106.381.011,2.149,0,4.111-.419,5.833-1.787,2.442-1.941,3.114-4.514,2.763-7.469-.353-2.976-2.117-4.864-4.771-5.994-1.557-.663-3.208-.872-4.909-.868-14.05.027-28.1.007-42.15.007-.86,0-1.726.075-2.571-.145-.639-.229-.682-.662-.394-1.199.12-.224.311-.398.455-.603.381-.539,1.363-.947.844-1.725-.516-.773-1.439-.515-2.228-.246-.096.033-.193.067-.293.077-.896.084-1.878.356-2.501-.561-.641-.944.709-1.136.876-1.88-.724-.259-.767.33-.954.656-.643,1.123-1.299,2.19-2.841,2.141-.612-.019-.762.537-1.04.963-.567.868-.914,1.932-1.974,2.408-.753.18-1.516.139-2.275.139-14.901.003-29.802.003-44.703,0-.759,0-1.522.047-2.265-.139q-.83-.792.824-1.745c-.019-.331-.307-.35-.524-.427-.555-.197-.85-.561-.709-1.155.155-.658.684-.606,1.209-.606,1.576-.002,2.912.78,4.319,1.311.844.319,1.654.386,2.509.137q-.363-1.633,1.154-3.006c-.557-.578-1.248-.164-1.84-.274-.443-.082-.986-.04-1.121-.585-.131-.527.338-.796.68-1.087.545-.464,1.151-.559,1.843-.35.831.251,1.679.308,2.522.022.127-.069.261-.119.399-.158,1.107-.066,2.144.552,3.283.311.343-.073.689.192.841.544.127.295.1.605.63.412.596-.216,1.094.105,1.326.703.191.49.58.831,1.029.74,1.618-.328,3.34.071,4.884-.676.662-.321,1.06.021,1.451.433.817.863,1.717,1.044,2.885.694,1.884-.563,3.712-.28,5.327.903.36.264.664.398,1.101.275,2.931-.825,5.746-1.859,7.842-4.233,1.725-.256,3.366.443,5.097.379,4.685-.173,8.927-1.42,12.536-4.533.595-.513,1.146-1.163,2.016-1.262q.594,1.1-.137,2.459c.787.53,1.513.393,2.229-.154,1.215-.928,2.428-1.692,3.954-.504.476.371,1.073.02,1.602-.155,1.544-.51,2.162-.168,2.519,1.375.373,1.612.359,1.301,2.042,1.225,2.203-.099,4.478-.171,6.194,2.024.764.977,2.464,1.257,3.813,1.669.192.058.405.034.602.08.61.145,1.311.329,1.192,1.109-.142.933-.886.565-1.46.47-.204-.033-.403-.06-.536.152.634.402,1.33.399,2.335-.207.774-.467,1.499-.859,2.407-.424.187.089.468.152.548-.053.691-1.789,3.2-1.441,3.852-3.311.152-.435.726-.481,1.217-.356,1.913.486,3.549-.047,4.98-1.356.265-.243.498-.484.657-.818.687-1.447.695-1.443,1.877-.366,1.131-1.27,5.045-2.124,6.501-1.392.671.337,1.129.856,1.111,1.673-.033,1.46.792,2.293,2.013,2.928,1.178.613,2.175,1.546,3.457,2.026.363-.122.408-.537.648-.786.653-.679,1.689-.712,2.293-.069.698.743.266,1.274-.349,1.764-.371.296-.553.718-.749,1.131-.369.782-.986,1.265-1.804,1.52-.362.113-.862.029-.976.556-.047.216.112.384.282.503.435.305.744.044,1.071-.229.884-.739,1.221-.205,1.467.667.652-.93,1.55-1.627,2.341-2.431.816-.828.986-1.531.094-2.461-1.283-1.337-.993-2.763.617-3.702.399-.232.856-.338,1.241-.563.563-.33,1.128-.733.076-1.254-.942-.466-.64-1.015.037-1.465,1.695-1.127,2.394-2.599,2.017-4.681-.286-1.579.134-3.231-.332-4.83-.153-.525-.011-1.124.276-1.621.445-.772.622-1.596.611-2.478-.009-.688.135-1.308.827-1.668.562-.293.598-.892.79-1.412.192-.521.268-1.283,1.179-.938Z" fill="#223a61" stroke-width="0"/><path d="M185.672,63.003c.025.474-.005.941-.507,1.166-.671.301-1.063,1.099-1.962,1.032-.223-.017-.465.351-.714.519-.699.473-1.326,1.089-2.301.964-.241-.031-.623.163-.76.371-.285.433-.551.481-1.004.284-.158-.069-.454.099-.651.217-.655.393-.947.411-1.149-.234-.186-.592-.556-.566-.982-.722-.806-.294-1.563-.632-2.471-.577-.713.043-1.427.059-2.064.365-.786.376-1.442.319-2.072-.285-.215-.206-.485-.354-.727-.531-.299-.219-.305-.835-.871-.681-.465.127-.218.634-.418.878-.12.146-.526.265-.63.181-.987-.797-1.949-.569-2.965-.069-.287.141-.685.123-1.02.081-.491-.062-.972-.21-1.516-.336-.019-.097-.107-.257-.061-.356.172-.375.172-.709-.214-.911-.373-.195-.77-.244-1.086.147-.126.156-.238.337-.397.448-.091.063-.271.033-.395-.005-.045-.014-.088-.189-.058-.26.056-.136.179-.244.249-.376.286-.543.03-.989-.572-.996-.151-.002-.325-.019-.449.047-.653.345-1.209.296-1.819-.177-.272-.211-.769-.131-1.216-.237-.244-.844.411-1.029,1.024-1.249.332-.12.752-.215.73-.652-.025-.51-.491-.642-.888-.642-.768,0-1.86-.49-2.211.358-.447,1.081.639,1.658,1.344,2.185.032.385-.067.703-.467.623-.438-.087-.817-.212-1.303-.042-.299.105-.765-.149-1.111-.328-.472-.244-.849-.227-1.231.154-.282.282-.601.528-1.009.881.264.114.459.269.656.271.551.006,1.144.063,1.645-.113.583-.205.858.06,1.148.422.316.393.218.707-.264.923-.321.144-.655.264-.96.435-.349.196-.408.546-.403.92.005.377.042.704.505.801.126.026.248.152.331.262.05.067.064.22.021.285-.071.108-.236.269-.303.245-.401-.145-.753-.037-1.156.032-.722.124-1.429.128-2.171-.319-.7-.422-1.613-.483-2.303-1.039-.164-.132-.487-.059-.734-.098-.492-.077-.982-.17-1.474-.25-.273-.044-.499.014-.585.32-.113.4.058.757.416.812.248.039.518-.017.752.056.208.065.467.208.547.387.125.276.09.641-.252.773-.413.16-.852.269-1.29.34-.381.061-.506.274-.524.611-.396.403-.864.375-1.352.231-.604-.523-1.181-.891-2.108-.867-1.376.034-2.699-.383-3.418-1.846.016.614.663,1.171.091,1.764-.465.482-1.04.765-1.669.99-.498.179-1.309-.319-1.472.363-.191.795-.294,1.689.237,2.484.306.457.577.946.727,1.489-.013.311-.019.63-.476.566-.388.1-.772.269-1.163.284-.535.02-1.059.07-1.319.569-.292.56-.588,1.115-.455,1.836.251,1.362-.801,2.44-2.082,2.147-.462-.106-.865-.473-1.321-.736.217-.774.446-1.504-.035-2.215-.236-.349-.618-.509-.873-.196-.533.656-1.307.691-1.996.96-.367.143-.78.269-1.053.529-.796.756-.794,1.521-.053,2.557.14.196.361.336.552.493.334.275.429.6.071.888-.753.607-.681,1.422-.591,2.224.073.652.72.882,1.241.471.237-.187.447-.411.657-.631.435-.458.86-.879,1.572-.465.129.075.38-.035.566-.089.776-.227,1.474-.151,2.06.468.159.168.446.262.521.451.137.347-.012.674-.264.969-.519.61-1.008,1.245-1.602,1.986.338.128.544.264.756.275.606.031,1.216.033,1.822.004.292-.014.645-.038.856-.204.686-.539,1.398-.462,2.15-.239.24.071.492.098.734.161.643.168.718.289.599.94-.036.196-.103.39-.113.587-.021.412.268.644.69.58.05-.008.103-.004.151-.018.527-.159.956-.879,1.617-.261.447.418,1.23.087,1.612.716.065.107.404.157.534.085.125-.069.198-.333.193-.508-.006-.19-.149-.371-.196-.565-.096-.399.059-.726.428-.868.656-.252,1.32-.516,2.005-.654.691-.139,1.315.153,1.699.746.195.301.543.664.156,1.091-.317.35-.639.669-1.171.462-.141-.055-.273-.15-.418-.177-1.366-.254-1.874.351-1.415,1.692.098.285.281.541.385.824.207.564-.064,1.062-.669,1.069-1.055.013-2.118-.009-3.164-.137-.905-.11-1.477.211-1.53,1.121-.044.752-.105,1.521.337,2.211.106.165.21.372.205.556-.005.166-.172.474-.247.468-.694-.059-1.303.401-2.064.175-.745-.221-1.592-.271-2.365.141-.613.326-.818.619-.729,1.17.104.637.442,1.032,1.077,1.004.849-.038,1.431.349,1.949.934.199.349.204.604-.299.611-.24.065-.477.139-.719.194-.193.044-.446.161-.579.084-1.026-.593-2.357-.489-3.233-1.371-.302-.304-.45-.766-.645-1.166-.324-.665-.726-.807-1.395-.468-.633.321-.825.218-1.041-.483-.161-.521-.322-1.052-.573-1.531-.6-1.149-1.284-1.433-2.573-1.154-.757.164-1.143-.147-1.11-.938.012-.293.107-.585.185-.872.211-.779.157-1.486-.511-2.043-.842-1.621-.382-3.33-.343-5.008.073-.447.388-.787.559-1.197.411-.982.402-1.809-.672-2.353-.274-.621-.402-1.267-.328-1.946.888-1.532.803-2.042-.599-3.541-.129-.273-.152-.558-.106-.852.884-1.793,1.514-3.834,3.988-4.084.434-.044.533-.37.562-.764.146-1.997.739-3.903,1.27-5.88-.844.288-1.058.951-1.239,1.64-.209.799-.674,1.223-1.546,1.041-.242-.05-.575-.228-.72-.037-1.422,1.873-3.295.216-4.894.657-.86-.876-1.204-1.958-1.26-3.154.332-.581.83-1.013,1.327-1.446,1.23-1.072.982-2.614-.565-3.133-.84-.282-1.524-.793-2.27-1.215-.684-.387-1.418-.532-2.199-.468-.503-.051-.816-.372-1.083-.758-3.786-5.476-8.755-9.71-14.347-13.176-3.486-2.161-7.303-3.722-11.273-4.886-5.206-1.527-10.493-2.233-15.91-2.003-5.944.252-11.626,1.593-17.043,4.059-.967.44-1.926.909-2.997,1.056-1.141-.288-2.316.078-3.467-.176-.533-.118-.817.271-1.054.696-.413.739-1.02,1.25-1.851,1.474-1.892.512-2.287,1.097-2.099,3.096.009.1-.017.201-.041.302-.23.432-.499.8-1.078.657-.406,0-.819-.045-1.214.018-.275.044-.625.167-.771.375-.691.988-1.673,1.341-2.804,1.434-.101.008-.204.002-.303.022-.997.2-1.219.707-.713,1.628.094.17.203.332.31.507-.476.755-1.217,1.24-1.471,2.131-.112.394-.707.684-1.127.949-.469.295-1.009.471-1.11,1.139-.019.129-.277.268-.449.319-.882.264-1.516.785-1.85,1.657-.071.186-.161.385-.298.523-.5.501-.449.965.013,1.456.085.09.13.302.083.406-.046.1-.289.221-.357.181-.908-.529-1.807-.128-2.631.13-.888.278-1.659.191-2.504-.07-.808-.249-1.655-.378-2.488-.538-.129-.025-.3.033-.418.107-.594.377-1.181.764-1.76,1.163-.279.192-.294.436-.229.786.136.735.685,1.205,1.096,1.827-.181.227-.312.442-.491.603-.377.339-.452.758-.446,1.236.01.703.077,1.411-.236,2.09-.109.237-.007.497.307.581,1.379.369,2.32,1.3,3.186,2.377.275.342.391.529.094.872-.461.533-.315,1.109-.136,1.715.208.706-.179,1.33-.887,1.444-.89.143-1.788.277-2.688.318-1.047.048-1.718.523-2.032,1.502-.183.571-.322,1.156-.508,1.838-.249-.127-.478-.204-.657-.344-.291-.228-.51-.158-.812.011-.977.546-1.325.329-1.416-.781-.041-.496-.155-.985-.227-1.479-.029-.199-.122-.452-.039-.593.495-.84-.171-1.776.25-2.626.093-.187.027-.53-.088-.73-.826-1.423-.089-2.519.811-3.482.452-.484.61-.879.394-1.466-.069-.188-.137-.381-.165-.578-.071-.514.209-.752.732-.614.431.113.854.26,1.292.395.016.169.066.323.037.46-.077.371-.466.753-.023,1.099.27.211,1.207-.2,1.459-.586.236-.363.172-1.1-.125-1.401-.315-.32-.679-.605-.934-.967-.225-.319-.33-.724-.498-1.116-.473.278-.926.543-1.593.935.085-.451.153-.668.159-.887.007-.24.049-.561-.081-.71-1.019-1.171-1.408-2.666-2.111-3.997-.168-.318-.315-.65-.762-.617,0-.406.002-.812.003-1.218.8-1.762.412-3.657.522-5.481.087-1.442-.203-2.903-.059-4.38.095-.978.229-2.04-.467-2.926-.001-6.595.018-13.19-.017-19.785-.01-1.903.425-3.693,1.069-5.449.648-1.768,1.698-3.279,2.85-4.772,1.432-1.857,3.3-3.019,5.269-4.162,2.359-1.37,4.913-1.745,7.539-1.746,75.081-.015,150.162-.013,225.243-.009,3.194,0,6.195.815,8.918,2.463,1.555.941,2.923,2.164,3.977,3.68.66.95,1.245,1.954,1.933,2.882.439.592.631,1.246.79,1.933-.27.485-.237,1.015-.014,1.464.754,1.52.458,3.165.645,4.75.055.465-.03.909-.25,1.323-.217.409-.408.837-.322,1.304.493,2.689.166,5.463.846,8.133.064.25.122.487.294.684,0,.304,0,.608,0,.912-.67.044-.746.592-.874,1.068-.077.288-.02.617-.117.894-.131.374-.292.774-.808.783-.445.007-.622.262-.615.685.005.355-.024.711,0,1.064.053.736-.114,1.394-.558,1.995-.604.817-.492,1.745-.167,2.59.167.433.26.739.206,1.235-.12,1.092-.169,2.251.082,3.305.212.89-.254,1.566-.264,2.352-.781.659-1.112,1.816-2.288,2.051-.132.026-.3.273-.31.427-.019.312.221.413.51.392.279-.021.557-.044.836-.066-.011.336.037.688-.048,1.005-.09.335-.288.647-.476.946-.066.105-.3.233-.357.196-.608-.398-.91.078-1.304.388-.226.178-.547.229-.812.362-.343.173-.563.401-.401.845.102.278.171.588.16.881-.022.594.139.967.809,1.011.137.009.34.231.376.386.231.988.399,1.911-.74,2.593-.755.451-1.39,1.137-1.986,1.801-.231.257-.192.749-.304,1.125-.037.123-.183.321-.243.308-.176-.036-.421-.123-.48-.258-.09-.208-.064-.474-.055-.714.007-.192.132-.408.074-.566-.057-.156-.263-.287-.434-.357-.065-.026-.29.134-.309.235-.129.679-.525.959-1.193.848-.628-.104-1.082-.908-1.2-1.441-.031-.14.131-.4.274-.483.205-.118.474-.17.716-.17,1.154,0,1.944-.515,2.249-1.633.174-.637.468-1.047,1.131-1.256.416-.131.44-.536.159-.856-.435-.494-1.068-.7-1.635-.454-.205.089-.392.32-.49.531-.123.267-.1.6-.222.867-.183.398-.846.474-.989.091-.337-.902-.995-1.025-1.808-.962-.185.014-.378-.069-.592-.112.039-.343.071-.63.116-1.031-1.185.156-1.891-.565-2.548-1.343-.465-.551-.727-1.208-.602-1.931.052-.304.206-.57-.059-.83-.355-.348-.633-.84-1.217-.82-1.147.039-2.326-.234-3.414.424-.276.167-.68.135-1.027.172-.891.096-.928.127-1.092,1.104-.025.148.007.362-.079.43-.121.095-.413.166-.48.097-.163-.166-.252-.413-.344-.637-.093-.227-.126-.483-.243-.693-.055-.1-.257-.184-.373-.164-.106.018-.235.173-.266.291-.051.191-.056.404-.036.603.049.478-.194.729-.588.949-.39.218-.87.451-1.06.81-.384.725-.8.932-1.567.599-.208-.091-.6.07-.828.229-.667.466-1.271.452-1.951.01-.607-.395-.641-.358-1.087.19-.477.586-.927,1.193-1.412,1.771-.264.314-.533.493-1.043.339-.749-.226-1.026.024-1.116.752-.031.25-.003.508-.029.759-.041.388-.305.494-.628.252-.162-.121-.289-.289-.455-.403-.653-.451-1.117-.423-1.698.176-.266.274-.521.473-.907.45-.425-.026-.762.138-1.121.366-.268.169-.669.228-.992.186-.43-.056-.882-.7-.793-.98.184-.579.912-.875,1.459-.584.132.07.231.202.363.273.353.188.689.121.77-.152.108-.366-.094-.574-.409-.693-.233-.088-.519-.277-.703-.209-.788.29-1.321-.204-1.926-.513-.761-.39-1.498-.851-2.422-.754-.365.038-.537-.215-.554-.57-.017-.349-.037-.698-.063-1.164-.714.193-1.346.177-1.85-.314-.375-.365-.758-.42-1.241-.192-.185.088-.563.072-.682-.056-.619-.667-1.257-.461-1.921-.136-.227.111-.452.228-.682.333-.764.349-1.359.013-1.477-.844-.075-.545-.048-1.117-.208-1.633-.252-.815-.721-1.091-1.486-.649-.302.174-.67.231-.977.398-.671.365-1.227.317-1.745-.293-.185-.219-.49-.356-.766-.471-.162-.068-.417-.093-.555-.011-.648.385-1.271.81-1.899,1.227-.326.216-.641.626-.964.629-.58.005-1.174-.196-1.737-.386-.207-.07-.367-.339-.493-.55-.046-.078.059-.361.106-.363,1.151-.065.988-.893.971-1.638-.002-.101-.002-.203-.002-.304-.188-.71.236-1.024.802-1.247,1.441-.836,2.973-1.375,4.629-1.659.865-.148,1.121-1.913.348-2.841-.828-.996-1.208-1.996-.665-3.202.261-.579-.217-.813-.402-1.191-.112-.868.012-1.711.26-2.541,1.852-1.92,2.066-2.386.738-4.72-1.013-1.78-1.038-3.499-.677-5.362.073-.376.268-.765-.019-1.233-.721.219-1.059,1.305-2.02.997-1.187-.986-1.789-2.423-2.77-3.578-3.505-4.123-8.012-6.456-13.308-6.738-8.411-.448-14.881,3.207-18.828,10.629-3.025,5.689-2.981,11.656-.08,17.51.329.664.92,1.239.809,2.079-.093.301-.279.556-.534.716-1.341.843-1.93,1.862-.949,3.375.215.331.226.841-.002,1.174-.822,1.203.007,1.625.91,1.94,1.936.675,3.899,1.048,5.913.259.61-.239,1.235-.448,1.871-.621,1.521.28,3.107.404,4.188,1.741Z" fill="#213c64" stroke-width="0"/><path d="M269.989,40.168c-.098-.02-.258-.011-.284-.065-.186-.386-.287-.824-.526-1.169-.276-.399-.489-.74-.242-1.235.076-.153.024-.379.007-.57-.044-.495-.166-.993-.143-1.484.076-1.564-.242-3.082-.488-4.606-.056-.347-.023-.593.218-.802.619-.536.714-1.184.422-1.907-.22-.544-.227-1.07.009-1.606.225-.51.063-.922-.202-1.404-.38-.69-.584-1.476-.569-2.289.007-.387.265-.502.599-.522.763,1.978,1.235,4.008,1.22,6.147-.028,3.837-.016,7.675-.021,11.512Z" fill="#223a61" stroke-width="0"/><path d="M11.219,47.475c.739.066.851.66.889,1.196.061.852.204,1.771-.035,2.556-.408,1.342.16,2.554.199,3.825.006.194.184.446.111.568-.429.714-.813,1.398-.022,2.117.024.022.019.108-.003.146-.42.697-.481,1.504-.719,2.257-.025.078-.273.084-.417.124-.001-4.263-.002-8.525-.004-12.788Z" fill="#223a61" stroke-width="0"/><path d="M121.735,86.751c-.004,1.826-.007,3.652-.011,5.478-.071.07-.193.133-.204.211-.14,1.044-.259,2.09-.395,3.134-.09.695-.199,1.388-.301,2.082-.381,2.596-1.325,5.038-2.084,7.528-.644,2.115-1.574,4.122-2.686,6.04-.861,1.483-1.67,2.997-2.557,4.464-.519.857-1.119,1.67-1.73,2.466-2.006,2.612-4.226,5.035-6.65,7.26-1.072.984-2.259,1.851-3.434,2.715-1.577,1.161-3.186,2.279-4.799,3.389-.323.222-.747.29-1.089.49-2.182,1.278-4.545,2.168-6.88,3.094-1.674.664-3.443,1.101-5.189,1.566-1.745.465-3.521.758-5.324.972-2.351.279-4.69.637-7.063.555-1.806-.062-3.597-.305-5.389-.551-2.444-.336-4.824-.921-7.214-1.505-1.529-.373-2.968-.955-4.419-1.52-.701-.273-1.333-.726-2.123-.761-.139-.006-.276-.12-.409-.193-2.294-1.254-4.609-2.471-6.811-3.887-2.424-1.558-4.702-3.335-6.704-5.375-1.756-1.79-3.704-3.454-4.994-5.671-2.053-2.075-3.176-4.761-4.713-7.175-.751-1.179-1.208-2.497-1.768-3.764-.647-1.463-1.258-2.947-1.775-4.46-.421-1.231-.738-2.506-.995-3.782-.357-1.767-.673-3.546-.897-5.334-.193-1.546-.291-3.11-.322-4.669-.026-1.304-.196-2.631.259-3.914.08-.227.022-.503.024-.757.01-1.159-.002-2.307.291-3.456.606-2.379.785-4.863,1.598-7.188.831-2.375,1.625-4.795,2.779-7.017,1.389-2.674,2.861-5.328,4.752-7.716,1.628-2.056,3.122-4.223,5.096-5.982.677-.603,1.39-1.166,2.061-1.776.295-.268.524-.608.783-.916.303-.204.606-.408.909-.611.246-.316.358-.72.698-.978,2.451-1.863,4.906-3.717,7.834-4.802.249-.029.523-.002.743-.098,1.183-.514,2.336-1.102,3.534-1.578,1.07-.425,2.185-.736,3.28-1.1,1.333-.442,2.664-.891,3.999-1.327.236-.077.486-.121.733-.156,2.131-.301,4.262-.602,6.395-.889.349-.047.708-.03,1.062-.03,1.823-.002,3.649.05,5.47-.018,1.23-.046,2.398.233,3.586.426,1.579.257,3.155.533,4.73.816.391.07.773.187,1.156.294.722.201,1.446.395,2.16.623.477.152.927.386,1.405.533,1.675.516,3.27,1.24,4.878,1.922,1.377.584,2.7,1.3,4.038,1.975.313.158.659.326.873.586.733.888,1.801,1.288,2.706,1.92.828.578,1.656,1.134,2.371,1.86.62.629,1.389,1.091,2.064,1.67,1.27,1.089,2.484,2.191,3.485,3.543.687.928,1.486,1.778,2.285,2.615.497.521.909,1.074,1.201,1.729.158.353.465.521.856.522,1.517,1.957,2.881,4.002,3.656,6.384.369,1.03.646,2.097,1.228,3.042.507.282.891.702,1.024,1.253.513,2.138,1.638,4.113,1.704,6.369.002.302.005.603.007.905.719,1.022,1.144,2.098.612,3.349.101.71.202,1.42.303,2.131.615.964.863,1.964.302,3.045Z" fill="#132548" stroke-width="0"/><path d="M133.912,75.485c.101-.203.203-.406.304-.609.755-2.735,4.502-4.981,7.613-4.564.507,0,1.015,0,1.522-.001,16.745,0,33.491,0,50.236,0,.721-.615,1.599-.467,2.433-.473,1.444-.01,2.89-.043,4.333.022.458.033.919.019,1.379.047.382.005.705.157.989.403,11.82,0,23.64-.002,35.461.011.801,0,1.602.153,2.404.171.441.01.885-.166,1.328-.169,2.587-.018,5.185-.154,7.759.03,2.746.196,5.183,1.321,6.948,3.521.649.809,1.012,1.804,1.263,2.874.394,1.683.338,3.325-.104,4.926-.3,1.089-.824,2.172-1.68,2.979-1.813,1.711-3.897,2.731-6.485,2.723-11.668-.037-23.336-.015-35.004-.015-24.249,0-48.498-.004-72.748.006-2.163,0-3.97-.715-5.683-2.069-1.253-.991-1.686-2.353-2.339-3.627-.69-1.348-.739-2.797-.304-4.267.184-.622.253-1.278.375-1.919Z" fill="#122346" stroke-width="0"/><path d="M133.919,101.976c.1-.204.199-.407.299-.611.104-.105.237-.194.307-.318,1.109-1.948,2.92-2.99,4.908-3.79.315-.127.689-.141,1.037-.15.811-.021,1.623-.008,2.435-.008,23.49,0,46.981.002,70.471-.009,1.002,0,1.996.034,3.013-.183.732-.157,1.595.098,2.357.315,2.85.813,4.825,2.622,5.871,5.406.247.658.489,1.334.605,2.023.144.853-.057,1.698-.27,2.538-.805,3.17-2.743,5.332-5.782,6.484-.938.356-1.932.492-2.962.491-24.81-.018-49.619-.025-74.429.015-1.493.002-2.758-.545-4.052-1.066-.528-.212-.857-.877-1.371-1.173-.693-.4-1.105-.998-1.559-1.607-1.314-1.76-1.597-3.768-1.481-5.876.019-.343.183-.676.266-1.017.119-.486.224-.976.336-1.464Z" fill="#122346" stroke-width="0"/><path d="M206.362,56.602c-.616-.008-.668.543-.903.913-.959.809-1.918,1.617-2.876,2.426-.231.195-.432.448-.694.579-2.464,1.23-4.941,2.367-7.711,2.837-1.768.3-3.513.229-5.267.225-.784-.002-1.566-.29-2.35-.442-.294-.057-.592-.092-.888-.138-1.393-.584-2.789-1.16-4.259-1.53-3.32-1.409-5.914-3.576-7.31-6.995-.083-.231-.135-.482-.255-.691-.98-1.702-1.974-3.396-2.222-5.399-1.029-2.435-.407-4.995-.558-7.496-.012-.195.039-.402.097-.592.468-1.532.78-3.118,1.438-4.584.592-1.32,1.177-2.653,2.209-3.728.766-.798,1.462-1.663,2.199-2.489,2.005-2.248,4.557-3.628,7.37-4.561,1.283-.426,2.587-.806,3.906-1.103.677-.153,1.407-.06,2.111-.109,2.346-.162,4.594.36,6.834.952.144.038.281.112.415.182,1.789.927,3.649,1.712,5.32,2.875.928.646,1.71,1.421,2.46,2.233.61.66,1.037,1.493,1.662,2.135.654.671.828,1.599,1.42,2.282.35.213.696.443.863.832,1.211,2.826,1.995,5.732,1.618,8.848-.031.257-.183.469-.338.672.015.926-.001,1.849-.308,2.739.715.849.071,1.648-.162,2.407-.77,2.515-1.942,4.825-3.82,6.721Z" fill="#182441" stroke-width="0"/><path d="M243.244,116.583c2.487-.112,4.775.665,6.974,1.918,1.137.648,2.314,1.217,3.266,2.125,2.214,2.111,3.563,4.729,4.316,7.659.273,1.064.487,2.159.563,3.251.054.785-.122,1.597-.273,2.383-.662,3.451-1.973,6.645-3.893,9.586-1.184,1.813-2.486,3.529-3.892,5.187-1.051,1.24-2.221,2.35-3.307,3.546-1.201,1.322-2.677,1.851-4.448,1.821-1.225-.02-2.147-.671-2.925-1.392-1.403-1.302-2.77-2.648-3.996-4.148-1.117-1.367-2.308-2.668-3.217-4.188-.771-1.289-1.571-2.568-2.237-3.911-.668-1.345-1.353-2.721-1.728-4.162-.465-1.786-.984-3.617-.748-5.504.308-2.462,1.043-4.764,2.316-6.943,1.438-2.461,3.533-4.161,5.926-5.472,1.33-.729,2.731-1.583,4.393-1.468.917-.402,1.889-.265,2.909-.288Z" fill="#122346" stroke-width="0"/><path d="M200.59,70.31c-2.334,0-4.668,0-7.003.001.003-.152-.008-.305.01-.455.073-.621.697-.845.96-1.318.26-.468.378-1.014.64-1.48.186-.331.517-.414.917-.218.66.323,1.187.026,1.583-.499.477-.632,1.042-1.212,1.126-2.084.021-.219.353-.531.583-.572.228-.04.566.152.748.344.197.207.306.522.385.809.073.262-.031.501-.341.564-.147.03-.301.033-.452.038-.321.012-.636.062-.637.466-.002.409.261.689.647.712.799.048,1.627.199,2.364-.27.749-.477,1.463.011,2.169.112.523.075.671,1.09.274,1.531-.439.489-.947.916-1.374,1.415-.215.251-.315.6-.467.904-.304,0-.609,0-.913,0-.406-.396-.812-.396-1.218,0Z" fill="#213c64" stroke-width="0"/><path d="M265.531,77.308c-.086-.014-.353-.01-.577-.105-.596-.254-1.151-.205-1.763-.009-.831.267-.931.147-1.106-.675-.082-.386-.139-.879-.398-1.105-.538-.469-.51-.859-.224-1.445.445-.909.631-1.901.663-2.919.003-.11.149-.28.255-.303.115-.026.27.071.389.145.08.05.145.145.187.234.482,1.018,1.224,1.186,2.259.842.873-.291,1.646.239,1.729,1.125.067.713.47,1.459-.142,2.159-.126.144-.084.479-.046.714.184,1.132.005,1.369-1.227,1.342Z" fill="#213c64" stroke-width="0"/><path d="M263.981,65.208c.069-.123.111-.198.153-.272.097.065.207.118.282.203.019.021-.086.21-.114.205-.11-.019-.212-.085-.321-.135Z" fill="#213c64" stroke-width="0"/><path d="M174.103,54.477c.517.674,1.082,1.317,1.542,2.028,1.247,1.928,3.064,3.169,4.986,4.305.29.171.522.439.781.662-.336.2-.66.424-1.012.59-.173.082-.439-.008-.589.092-1.399.921-2.873.406-4.357.373-1.261-.027-2.12-.836-3.224-1.115-.652-.165-.707-.77-.221-1.301.683-.745.727-.986.335-1.818-.043-.091-.076-.188-.124-.276-.762-1.375-.757-1.509.408-2.507.454-.389.981-.692,1.475-1.034Z" fill="#223a61" stroke-width="0"/><path d="M120.51,77.321c-.465-.378-.558-.895-.616-1.46-.05-.484-.214-.959-.359-1.428-.175-.566-.41-1.114-.57-1.684-.296-1.057-.622-2.098-1.182-3.05.543-.067,1.095-.096,1.628-.21.621-.133,1.176-.156,1.7.3.156.135.513.207.685.121.329-.164.235-.501.109-.795-.038-.089-.104-.235-.067-.276.113-.129.301-.335.403-.307.383.106.738.307,1.114.446.585.216.969-.01,1.104-.628.011-.049.018-.101.013-.15-.14-1.256.918-1.679,1.644-2.32.084-.074.399.001.517.107.12.109.226.384.169.512-.162.363-.425.678-.619,1.028-.263.476-.604.936-.238,1.535.077.126.018.44-.093.559-.418.445-.37,1.007-.517,1.529-.186.658-.311,1.236-.008,1.891.146.315-.084.632-.455.595-1.952-.194-2.956.922-3.647,2.538-.175.409-.47.766-.709,1.147Z" fill="#223a61" stroke-width="0"/><path d="M141.829,70.312c-.283.097-.569.287-.849.278-1.717-.056-3.06.763-4.376,1.725-.857.626-1.735,1.195-2.027,2.311-.028.108-.237.168-.362.25-.18-.165-.475-.306-.518-.501-.102-.472-.331-.83-.667-1.15-.235-.224-.33-.468-.185-.807.247-.577.187-1.169.027-1.769-.132-.497.076-.761.463-.579,1.363.643,2.292-.106,3.301-.974-.171-.229-.361-.447-.507-.692-.15-.249-.327-.517-.357-.791-.021-.187.149-.458.315-.578.104-.075.44,0,.533.117.245.309.487.657.593,1.029.115.403.33.537.7.661.995.334,1.948.856,3.037.303.111-.056.423.073.498.201.173.294.258.641.379.966Z" fill="#223a61" stroke-width="0"/><path d="M116.555,66.657c-.222-.255-.489-.483-.655-.77-.322-.553-.583-1.141-.876-1.71-.388-.752-.786-1.484-1.336-2.153-.392-.478-.535-1.16-.789-1.751.159-.098.351-.311.47-.276.617.181,1.265.343,1.811.666.848.501,1.567,1.232,2.664,1.192.156-.006.385.183.47.341.449.834.819,1.701.62,2.684-.027.134-.149.34-.249.353-.841.115-1.161.857-1.695,1.341-.093.084-.287.057-.435.082Z" fill="#223a61" stroke-width="0"/><path d="M206.362,56.602c.12-.27.216-.554.365-.806.711-1.21,1.474-2.391,2.148-3.62.801-1.462,1.421-2.996,1.47-4.701.975.148,1.028.214.724.953-.096.232-.241.446-.32.682-.285.852-.102,1.66.596,2.168.605.441,1.017.766.605,1.569-.107.209.052.568.121.851.206.843.049,1.073-.781,1.324-.708.214-1.465.295-2.207.358-.629.053-1.196.158-1.541.746-.275.468-.708.512-1.179.478Z" fill="#223a61" stroke-width="0"/><path d="M49.889,44.434c-.168.179-.302.432-.509.527-2.2,1.007-4.153,2.406-6.108,3.803-.651.465-1.278.966-1.915,1.45-.097-.333-.171-.676-.297-.997-.26-.662-.377-1.232.492-1.56.571-.216.201-1.077.635-1.25.398-.159.988.19,1.408.053.813-.264,1.58-.73,1.711-1.701.073-.547.373-.663.818-.626.345.028.686.102,1.029.151.293.042.671.213.864.092.668-.419,1.255-.015,1.873.059Z" fill="#223a61" stroke-width="0"/><path d="M210.652,44.736c-.004-.912-.035-1.824-.006-2.735.041-1.276-.282-2.482-.58-3.705-.338-1.383-.889-2.668-1.557-3.913.595.012.876-.415,1.184-.823.176-.233.359-.503.605-.627.19-.096.545-.075.71.049.138.104.184.451.136.658-.286,1.221-.552,2.434-.523,3.708.019.847.15,1.603.778,2.207.307.295.508.628.457,1.07-.064.546.073.969.595,1.263.3.169.323.464.1.776-.233.326-.513.663-.604,1.036-.176.718-.634.976-1.293,1.036Z" fill="#223a61" stroke-width="0"/><path d="M154.702,59.855c.634.116,1.275.201,1.899.358.405.102.76.358.723.844-.038.509-.418.799-.845.976-.22.091-.516-.005-.743.077-.265.095-.678.268-.703.451-.073.54-.372.49-.714.404-.642-.161-1.039-.583-1.197-1.223-.071-.291-.116-.589-.185-.88-.181-.758-.102-.865.687-.902.101-.005.202-.002.303-.002.252,0,.505,0,.757,0,.006-.034.012-.069.018-.103Z" fill="#223a61" stroke-width="0"/><path d="M123.162,64.996c.119-.411-.169-.613-.517-.736-.183-.065-.399-.04-.6-.047-.343-.013-.614-.146-.594-.522.046-.866-.295-1.326-1.205-1.353-.278-.008-.319-.372-.112-.584.291-.298.638-.367.946-.113.497.41.968.859,1.408,1.331.359.385.717.63,1.285.663.78.045,1.068.407.998,1.002-.079.67-.686,1.161-1.386,1.075-.465-.057-.363-.375-.221-.715Z" fill="#223a61" stroke-width="0"/><path d="M128.75,74.084c.686.42,1.099.606,1.42.893.201.18.326.503.378.781.101.548-.158,1.105-.471,1.168-.452.091-1.277-.507-1.317-1.004-.04-.493-.009-.991-.009-1.839Z" fill="#223a61" stroke-width="0"/><path d="M15.767,58.131c0,.149.017.3-.003.446-.064.46-.393.771-.772.746-.426-.028-.964-.396-1.01-.729-.061-.448-.075-.896.306-1.243.217-.198.418-.478.757-.331.355.154.765.294.733.814-.006.099,0,.199,0,.298h-.01Z" fill="#223a61" stroke-width="0"/><path d="M17.147,55.176c-.169-.232-.392-.405-.408-.596-.018-.207.116-.585.255-.622.961-.26,1.938-.458,2.916-.65.092-.018.243.125.321.228.039.052.01.218-.047.27-.846.777-1.969.906-3.037,1.37Z" fill="#223a61" stroke-width="0"/><path d="M121.13,81.575c-.204-1.116-.408-2.233-.612-3.349.713.05,1.096.474,1.207,1.138.111.662.575,1.355-.064,1.983-.128.126-.351.155-.531.229Z" fill="#223a61" stroke-width="0"/><path d="M121.735,86.751c-.08-.575-.176-1.149-.236-1.726-.046-.437-.046-.879-.066-1.319.332.085.708.099.987.27.492.301.565.593.203,1.099-.301.42-.232.862-.312,1.299-.057.315-.319.35-.576.377Z" fill="#223a61" stroke-width="0"/><path d="M229.665,56.937c.382-.025.783.401.737.783-.053.44-.529.926-1.002.977-.122.013-.316-.07-.378-.17-.277-.449.026-1.353.497-1.557.045-.02.098-.022.147-.033Z" fill="#223a61" stroke-width="0"/><path d="M141.958,62.986c.374.021.537-.002.672.048.119.044.23.158.298.269.027.044-.045.206-.112.243-.397.219-.796.442-1.215.612-.236.096-.557.064-.608-.239-.035-.209.051-.55.204-.656.27-.185.632-.235.76-.277Z" fill="#223a61" stroke-width="0"/><path d="M124.76,94.155c.041-.182.028-.38.118-.456.132-.111.376-.229.505-.177.416.169.709.858.52,1.253-.088.184-.347.349-.555.391-.125.026-.364-.17-.44-.323-.106-.212-.107-.476-.148-.689Z" fill="#223a61" stroke-width="0"/><path d="M232.379,62.629c-.162-.08-.317-.128-.313-.159.02-.191.033-.404.129-.56.178-.292-.151-1.043.466-.849.471.149-.002.692-.082,1.055-.038.175-.129.337-.2.513Z" fill="#223a61" stroke-width="0"/><path d="M231.378,57.742c.223.307.467.495.46.673-.008.186-.224.424-.411.525-.222.12-.445-.231-.368-.631.03-.159.163-.299.319-.567Z" fill="#223a61" stroke-width="0"/><path d="M132.221,71.222c-.221.274-.306.478-.449.535-.259.104-.526.012-.537-.309-.005-.153.144-.429.251-.444.188-.026.398.107.735.218Z" fill="#223a61" stroke-width="0"/><path d="M253.293,60.903c.451-.016.725.14.779.54.01.074-.185.26-.246.245-.31-.08-.689-.117-.747-.532-.011-.082.156-.188.214-.253Z" fill="#223a61" stroke-width="0"/><path d="M163.204,63.829c-.168.108-.304.196-.44.283-.069-.116-.219-.264-.189-.342.055-.141.218-.239.335-.356.078.11.156.22.293.414Z" fill="#223a61" stroke-width="0"/><path d="M18.581,61.101c-.227.181-.338.336-.423.322-.155-.025-.294-.149-.439-.232.088-.093.17-.256.264-.263.151-.01.31.082.598.173Z" fill="#223a61" stroke-width="0"/><path d="M236.88,60.492c-.227.181-.338.336-.423.322-.155-.025-.294-.149-.439-.232.088-.093.171-.257.264-.263.152-.01.311.083.598.173Z" fill="#223a61" stroke-width="0"/><path d="M32.158,44.235c-.119.028-.232.076-.341.067-.037-.003-.102-.207-.088-.216.095-.061.206-.105.317-.126.016-.003.061.147.112.275Z" fill="#223a61" stroke-width="0"/><path d="M17.833,47.671c-.053.127-.086.205-.119.284-.106-.046-.218-.083-.311-.148-.015-.01.056-.212.093-.214.108-.005.218.046.336.078Z" fill="#223a61" stroke-width="0"/><path d="M265.987,49.228c-.069.123-.111.198-.153.272-.097-.065-.207-.118-.282-.203-.019-.021.086-.21.114-.205.11.019.212.085.321.135Z" fill="#223a61" stroke-width="0"/><path d="M72.276,134.617c-24.566.119-45.951-20.159-46.033-45.693-.08-24.833,19.774-46.234,45.896-46.291,25.582-.055,46.314,20.762,46.111,46.534-.198,25.159-21.349,45.585-45.974,45.449Z" fill="#80ced3" stroke-width="0"/><path d="M195.885,84.02c-17.853,0-35.706-.031-53.559.04-2.135.009-3.598-.879-4.786-2.406-.756-.972-1.078-2.138-.75-3.428.239-.939.493-1.852,1.117-2.615,1.093-1.337,2.47-1.959,4.233-1.955,14.252.029,28.504.016,42.756.016,21.505,0,43.01.007,64.515-.021,1.063-.001,2.054.134,2.867.765.998.774,2.004,1.638,2.332,2.923.797,3.124-.474,5.496-3.504,6.611-.496.182-1.106.067-1.663.067-12.629.003-25.258.002-37.887.002-5.224,0-10.448,0-15.672,0Z" fill="#32527d" stroke-width="0"/><path d="M200.59,70.31c.008-.398.187-.603.609-.603.422,0,.601.205.609.603h-1.218Z" fill="#223a61" stroke-width="0"/><path d="M179.124,110.793c-12.127,0-24.254-.005-36.381.011-.87.001-1.709-.107-2.542-.315-1.165-.29-2.592-1.619-2.99-2.786-.392-1.149-.65-2.261-.301-3.53.453-1.647,1.469-2.721,2.847-3.566.085-.052.186-.125.275-.119,1.399.096,2.766-.699,4.195-.115.352.144.802.06,1.207.06,2.385.004,4.77.034,7.154-.01,1.511-.028,3.019-.192,4.529-.25.803-.031,1.602-.038,2.407.202.513.153,1.143.162,1.656.013,1.004-.291,2.008-.201,3.015-.223.71-.016,1.421-.003,2.131-.003.964,0,1.974-.178,2.88.052.954.242,1.866-.246,2.822.138.486.195,1.173-.178,1.769-.179,9.032-.015,18.064-.013,27.095-.002.448,0,.893.13,1.343.17.502.045,1.024.149,1.507.061.698-.126,1.334-.23,2.071-.049.592.146,1.281-.166,1.93-.18,1.521-.034,3.054-.12,4.564.018,1.764.16,3.529.176,5.29.286,1.487.093,2.656.874,3.387,2.243,1.312,2.457,1.093,4.882-.956,6.718-1.037.929-2.323,1.365-3.761,1.362-7.611-.016-15.222-.005-22.833-.004-4.77,0-9.539,0-14.309,0v-.003Z" fill="#33537c" stroke-width="0"/><path d="M174.331,43.578c-.009-8.877,7.136-16.438,16.407-16.508,9.045-.068,16.596,7.136,16.691,16.719.076,7.684-6.17,16.414-16.751,16.536-7.966.092-16.477-6.859-16.347-16.748Z" fill="#f2c251" stroke-width="0"/><path d="M254.779,131.576c.193,2.422-.54,4.556-1.511,6.634-1.203,2.572-2.667,4.996-4.425,7.216-1.158,1.462-2.414,2.875-3.793,4.126-1.769,1.604-2.159,1.602-3.974.016-1.02-.89-1.906-1.953-2.753-3.017-1.254-1.575-2.474-3.183-3.61-4.844-1.489-2.178-2.557-4.55-3.23-7.126-.873-3.341-.32-6.489,1.51-9.259,1.45-2.195,3.558-3.812,6.107-4.813,1.901-.746,6.016-.863,8.016.063,2.71,1.255,5.038,2.936,6.455,5.698.877,1.71,1.392,3.458,1.208,5.306Z" fill="#36547d" stroke-width="0"/><path d="M112.657,92.115c-.652-.52-.915-1.232-1.247-1.897-1.008-2.023-1.032-2.01-3.043-.978-1.441.739-2.935,1.376-4.403,2.064-.458.214-.921.421-1.359.671-1.055.602-2.099,1.224-3.142,1.846-.165.099-.305.24-.5.397.287.143.505.274.738.363,1.913.734,3.178,2.668,2.332,5.401-.867,2.805-1.787,5.593-2.692,8.386-.53,1.638-1.063,3.275-1.619,4.904-.278.813-.602,1.612-.924,2.409-.787,1.948-3.445,2.713-4.987,2.265-1.563-.454-2.662-1.356-3.312-2.87-.919-2.141-1.909-4.251-2.872-6.373-.076-.167-.179-.322-.309-.553-.102.204-.176.283-.178.364-.057,2.737-.146,5.473-.147,8.21-.001,2.89.082,5.779.127,8.669.005.304-.015.61,0,.913.03.602-.249.946-.826,1.093-1.717.435-3.416.955-5.149,1.305-2.841.573-5.724.793-8.621.619-2.476-.149-4.943-.408-7.347-1.069-.232-.064-.458-.148-.691-.224.909-1.345,1.777-2.631,2.646-3.916,1.024-1.512,2.452-2.366,4.247-2.659,1.047-.171,2.105-.333,3.12-.631.964-.283,1.935-.637,2.802-1.136,2.234-1.286,3.351-3.31,3.53-5.858.079-1.122-.078-2.226-.379-3.308-.068-.244-.169-.479-.23-.724-.185-.752-.151-.863.504-1.227.664-.369,1.341-.719,2.025-1.051,3.512-1.701,7.016-3.42,10.553-5.067.823-.383,1.238-.925,1.466-1.758.371-1.355.812-2.69,1.219-4.02-.276-.282-.494-.085-.706.013-5.285,2.456-10.568,4.916-15.851,7.374-.092.043-.187.078-.28.119-1,.44-.972.416-1.575-.444-.667-.951-1.33-1.921-2.12-2.766-2.018-2.157-5.335-2.749-7.98-1.461-.903.44-1.753,1.005-2.578,1.584-.703.494-1.384,1.041-1.989,1.649-1.377,1.384-3.065,1.644-4.896,1.52-.859-.058-1.72-.093-2.58-.106-.164-.002-.329.15-.494.231.085.17.128.389.261.503,1.695,1.451,3.398,2.891,5.108,4.323.692.579,1.407,1.13,2.218,1.78.249-.429.436-.764.636-1.092,1.318-2.165,4.177-2.823,6.248-1.577,1.653.995,2.462,3.013,1.955,5.003-.512,2.011-1.999,3.245-4.03,3.287-.549.011-1.11-.073-1.65-.187-.86-.182-.865-.214-1.39.615-.525.83-1.149,1.564-2.077,1.939-1.578.637-3.096.481-4.451-.569-1.121-.869-2.182-1.816-3.28-2.716-2.548-2.088-5.102-4.168-7.656-6.25-.155-.127-.328-.232-.577-.406-.781.967-1.2,2.055-1.526,3.217-.311,1.109.024,2.325-.612,3.501-.946-.954-1.795-1.868-2.455-2.941-.32-.521-.206-1.079-.027-1.618.483-1.448,1.091-2.84,1.994-4.079.275-.378.274-.665.096-1.099-.782-1.904-.346-3.61,1.119-4.988,1.773-1.666,3.621-3.252,5.452-4.855,2.174-1.904,4.36-3.793,6.549-5.68,1.387-1.196,2.855-2.26,4.581-2.943,1.29-.511,2.616-.823,3.992-.829,5.429-.023,10.858-.074,16.286.004,3.776.054,6.494,2.017,8.389,5.189.414.693.702,1.461,1.062,2.188.317.641.474.741,1.045.463,3.775-1.837,7.755-3.239,11.319-5.535,1.477-.952,3.18-1.556,4.785-2.307.872-.408,1.747-.809,2.632-1.188,1.159-.496,2.271-.358,3.345.282.38.226.618.519.627.968.037,1.763.025,3.525-.253,5.328Z" fill="#223a5d" stroke-width="0"/><path d="M72.322,83.769c-5.787.257-12.789-4.286-12.862-12.591-.067-7.608,6.345-12.671,12.633-12.758,6.501-.09,12.625,4.947,12.878,12.442.266,7.866-6.636,13.143-12.649,12.906Z" fill="#223a5d" stroke-width="0"/><path d="M200.581,37.583c.036.505-.11.947-.491,1.353-1.385,1.477-2.75,2.973-4.103,4.479-1.182,1.316-2.311,2.679-3.513,3.976-1.137,1.227-2.338,2.396-3.512,3.589-.451.458-.986.527-1.527.229-.393-.217-.771-.49-1.091-.804-1.555-1.529-3.09-3.08-4.628-4.627-.178-.179-.354-.367-.491-.577-.501-.77-.4-1.524.27-2.191.495-.492,1.52-.604,2.099-.126.736.608,1.394,1.309,2.096,1.958.554.513,1.101,1.04,1.693,1.506.493.387.734.373,1.186-.097,1.405-1.459,2.786-2.94,4.16-4.427.616-.667,1.168-1.394,1.794-2.05,1.05-1.101,2.138-2.166,3.207-3.249.327-.331.67-.574,1.177-.606,1.04-.064,1.816.587,1.674,1.664Z" fill="#fdfdfc" stroke-width="0"/><path d="M248.401,131.632c.143,3.014-2.304,5.391-5.432,5.556-2.851.151-5.275-2.468-5.28-5.504-.005-3.1,2.253-5.266,5.305-5.437,2.556-.143,5.757,2.735,5.407,5.384Z" fill="#f47663" stroke-width="0"/><path d="M56.358,100.998c.495-.472.876-.835,1.231-1.174.373,1.122.312,1.196-1.231,1.174Z" fill="#80ced3" stroke-width="0"/></svg>