<?xml version="1.0" encoding="UTF-8"?><svg id="a" xmlns="http://www.w3.org/2000/svg" viewBox="0 0 281.049 177.303"><rect x="5.279" y="5.279" width="270.492" height="166.746" rx="33.995" ry="33.995" fill="#223a61" stroke-width="0"/><path d="M241.775,10.557c15.834,0,28.717,12.882,28.717,28.717v98.755c0,15.834-12.882,28.716-28.717,28.716H39.274c-15.834,0-28.717-12.882-28.717-28.716V39.274c0-15.834,12.882-28.717,28.717-28.717h202.501M241.775,0H39.274C17.673,0,0,17.673,0,39.274v98.755c0,21.601,17.673,39.274,39.274,39.274h202.501c21.601,0,39.274-17.673,39.274-39.274V39.274c0-21.601-17.673-39.274-39.274-39.274h0Z" stroke-width="0"/><path d="M243.244,116.583c2.487-.112,4.775.665,6.974,1.918,1.137.648,2.314,1.217,3.266,2.125,2.214,2.111,3.563,4.729,4.316,7.659.273,1.064.487,2.159.563,3.251.054.785-.122,1.597-.273,2.383-.662,3.451-1.973,6.645-3.893,9.586-1.184,1.813-2.486,3.529-3.892,5.187-1.051,1.24-2.221,2.35-3.307,3.546-1.201,1.322-2.677,1.851-4.448,1.821-1.225-.02-2.147-.671-2.925-1.392-1.403-1.302-2.77-2.648-3.996-4.148-1.117-1.367-2.308-2.668-3.217-4.188-.771-1.289-1.571-2.568-2.237-3.911-.668-1.345-1.353-2.721-1.728-4.162-.465-1.786-.984-3.617-.748-5.504.308-2.462,1.043-4.764,2.316-6.943,1.438-2.461,3.533-4.161,5.926-5.472,1.33-.729,2.731-1.583,4.393-1.468.917-.402,1.889-.265,2.909-.288h.001Z" fill="#122346" stroke-width="0"/><path d="M72.276,134.617c-24.566.119-45.951-20.159-46.033-45.693-.08-24.833,19.774-46.234,45.896-46.291,25.582-.055,46.314,20.762,46.111,46.534-.198,25.159-21.349,45.585-45.974,45.449h0Z" fill="#80ced3" stroke-width="0"/><path d="M254.779,131.576c.193,2.422-.54,4.556-1.511,6.634-1.203,2.572-2.667,4.996-4.425,7.216-1.158,1.462-2.414,2.875-3.793,4.126-1.769,1.604-2.159,1.602-3.974.016-1.02-.89-1.906-1.953-2.753-3.017-1.254-1.575-2.474-3.183-3.61-4.844-1.489-2.178-2.557-4.55-3.23-7.126-.873-3.341-.32-6.489,1.51-9.259,1.45-2.195,3.558-3.812,6.107-4.813,1.901-.746,6.016-.863,8.016.063,2.71,1.255,5.038,2.936,6.455,5.698.877,1.71,1.392,3.458,1.208,5.306h0Z" fill="#36547d" stroke-width="0"/><path d="M112.657,92.115c-.652-.52-.915-1.232-1.247-1.897-1.008-2.023-1.032-2.01-3.043-.978-1.441.739-2.935,1.376-4.403,2.064-.458.214-.921.421-1.359.671-1.055.602-2.099,1.224-3.142,1.846-.165.099-.305.24-.5.397.287.143.505.274.738.363,1.913.734,3.178,2.668,2.332,5.401-.867,2.805-1.787,5.593-2.692,8.386-.53,1.638-1.063,3.275-1.619,4.904-.278.813-.602,1.612-.924,2.409-.787,1.948-3.445,2.713-4.987,2.265-1.563-.454-2.662-1.356-3.312-2.87-.919-2.141-1.909-4.251-2.872-6.373-.076-.167-.179-.322-.309-.553-.102.204-.176.283-.178.364-.057,2.737-.146,5.473-.147,8.21,0,2.89.082,5.779.127,8.669.005.304-.015.61,0,.913.03.602-.249.946-.826,1.093-1.717.435-3.416.955-5.149,1.305-2.841.573-5.724.793-8.621.619-2.476-.149-4.943-.408-7.347-1.069-.232-.064-.458-.148-.691-.224.909-1.345,1.777-2.631,2.646-3.916,1.024-1.512,2.452-2.366,4.247-2.659,1.047-.171,2.105-.333,3.12-.631.964-.283,1.935-.637,2.802-1.136,2.234-1.286,3.351-3.31,3.53-5.858.079-1.122-.078-2.226-.379-3.308-.068-.244-.169-.479-.23-.724-.185-.752-.151-.863.504-1.227.664-.369,1.341-.719,2.025-1.051,3.512-1.701,7.016-3.42,10.553-5.067.823-.383,1.238-.925,1.466-1.758.371-1.355.812-2.69,1.219-4.02-.276-.282-.494-.085-.706.013-5.285,2.456-10.568,4.916-15.851,7.374-.092.043-.187.078-.28.119-1,.44-.972.416-1.575-.444-.667-.951-1.33-1.921-2.12-2.766-2.018-2.157-5.335-2.749-7.98-1.461-.903.44-1.753,1.005-2.578,1.584-.703.494-1.384,1.041-1.989,1.649-1.377,1.384-3.065,1.644-4.896,1.52-.859-.058-1.72-.093-2.58-.106-.164-.002-.329.15-.494.231.085.17.128.389.261.503,1.695,1.451,3.398,2.891,5.108,4.323.692.579,1.407,1.13,2.218,1.78.249-.429.436-.764.636-1.092,1.318-2.165,4.177-2.823,6.248-1.577,1.653.995,2.462,3.013,1.955,5.003-.512,2.011-1.999,3.245-4.03,3.287-.549.011-1.11-.073-1.65-.187-.86-.182-.865-.214-1.39.615-.525.83-1.149,1.564-2.077,1.939-1.578.637-3.096.481-4.451-.569-1.121-.869-2.182-1.816-3.28-2.716-2.548-2.088-5.102-4.168-7.656-6.25-.155-.127-.328-.232-.577-.406-.781.967-1.2,2.055-1.526,3.217-.311,1.109.024,2.325-.612,3.501-.946-.954-1.795-1.868-2.455-2.941-.32-.521-.206-1.079-.027-1.618.483-1.448,1.091-2.84,1.994-4.079.275-.378.274-.665.096-1.099-.782-1.904-.346-3.61,1.119-4.988,1.773-1.666,3.621-3.252,5.452-4.855,2.174-1.904,4.36-3.793,6.549-5.68,1.387-1.196,2.855-2.26,4.581-2.943,1.29-.511,2.616-.823,3.992-.829,5.429-.023,10.858-.074,16.286.004,3.776.054,6.494,2.017,8.389,5.189.414.693.702,1.461,1.062,2.188.317.641.474.741,1.045.463,3.775-1.837,7.755-3.239,11.319-5.535,1.477-.952,3.18-1.556,4.785-2.307.872-.408,1.747-.809,2.632-1.188,1.159-.496,2.271-.358,3.345.282.38.226.618.519.627.968.037,1.763.025,3.525-.253,5.328l.002-.004Z" fill="#223a5d" stroke-width="0"/><path d="M72.322,83.769c-5.787.257-12.789-4.286-12.862-12.591-.067-7.608,6.345-12.671,12.633-12.758,6.501-.09,12.625,4.947,12.878,12.442.266,7.866-6.636,13.143-12.649,12.906h0Z" fill="#223a5d" stroke-width="0"/><path d="M248.401,131.632c.143,3.014-2.304,5.391-5.432,5.556-2.851.151-5.275-2.468-5.28-5.504-.005-3.1,2.253-5.266,5.305-5.437,2.556-.143,5.757,2.735,5.407,5.384h0Z" fill="#f47663" stroke-width="0"/><path d="M56.358,100.998c.495-.472.876-.835,1.231-1.174.373,1.122.312,1.196-1.231,1.174Z" fill="#80ced3" stroke-width="0"/><path d="M190.88,61.592c-10.139,0-18.388-7.997-18.388-17.826s8.249-17.826,18.388-17.826,18.387,7.997,18.387,17.826-8.248,17.826-18.387,17.826Z" fill="#f2c251" stroke-width="0"/><path d="M190.88,27.94c9.036,0,16.387,7.1,16.387,15.826s-7.351,15.826-16.387,15.826-16.387-7.1-16.387-15.826,7.351-15.826,16.387-15.826M190.88,23.94c-11.26,0-20.387,8.876-20.387,19.826s9.128,19.826,20.387,19.826,20.387-8.876,20.387-19.826-9.128-19.826-20.387-19.826h0Z" fill="#182441" stroke-width="0"/><path d="M200.581,37.583c.036.505-.11.947-.491,1.353-1.385,1.477-2.75,2.973-4.103,4.479-1.182,1.316-2.311,2.679-3.513,3.976-1.137,1.227-2.338,2.396-3.512,3.589-.451.458-.986.527-1.527.229-.393-.217-.771-.49-1.091-.804-1.555-1.529-3.09-3.08-4.628-4.627-.178-.179-.354-.367-.491-.577-.501-.77-.4-1.524.27-2.191.495-.492,1.52-.604,2.099-.126.736.608,1.394,1.309,2.096,1.958.554.513,1.101,1.04,1.693,1.506.493.387.734.373,1.186-.097,1.405-1.459,2.786-2.94,4.16-4.427.616-.667,1.168-1.394,1.794-2.05,1.05-1.101,2.138-2.166,3.207-3.249.327-.331.67-.574,1.177-.606,1.04-.064,1.816.587,1.674,1.664h0Z" fill="#fdfdfc" stroke-width="0"/><rect x="135.037" y="69.3" width="121.836" height="20.679" rx="5.985" ry="5.985" fill="#32527d" stroke-width="0"/><path d="M250.888,70.8c2.473,0,4.485,2.012,4.485,4.485v8.709c0,2.473-2.012,4.485-4.485,4.485h-109.866c-2.473,0-4.485-2.012-4.485-4.485v-8.709c0-2.473,2.012-4.485,4.485-4.485h109.866M250.888,67.8h-109.866c-4.117,0-7.485,3.368-7.485,7.485v8.709c0,4.117,3.368,7.485,7.485,7.485h109.866c4.117,0,7.485-3.368,7.485-7.485v-8.709c0-4.117-3.368-7.485-7.485-7.485h0Z" fill="#122346" stroke-width="0"/><rect x="135.285" y="100.144" width="87.584" height="12.941" rx="2.986" ry="2.986" fill="#32527d" stroke-width="0"/><path d="M219.882,101.892c.671,0,1.239.567,1.239,1.239v6.968c0,.671-.567,1.239-1.239,1.239h-81.611c-.671,0-1.239-.567-1.239-1.239v-6.968c0-.671.567-1.239,1.239-1.239h81.611M219.882,98.396h-81.611c-2.604,0-4.735,2.131-4.735,4.735v6.968c0,2.604,2.131,4.735,4.735,4.735h81.611c2.604,0,4.735-2.131,4.735-4.735v-6.968c0-2.604-2.131-4.735-4.735-4.735h0Z" fill="#122346" stroke-width="0"/><path d="M72.052,43.524c24.883,0,45.127,20.244,45.127,45.127s-20.244,45.127-45.127,45.127-45.127-20.244-45.127-45.127,20.244-45.127,45.127-45.127M72.052,41.623c-25.973,0-47.029,21.056-47.029,47.029s21.055,47.029,47.029,47.029,47.029-21.056,47.029-47.029-21.055-47.029-47.029-47.029h0Z" fill="#122346" stroke-width="0"/></svg>