<?xml version="1.0" encoding="UTF-8"?><svg id="a" xmlns="http://www.w3.org/2000/svg" viewBox="0 0 172.456 133.631"><g id="b"><path d="M121.635,40.846c.566-1.942-.281-4.014-1.771-5.256.458-1.251.168-2.571-.591-3.673,1.436-3.784.682-8.524.414-12.464-.276-4.071.182-9.255-1.095-13.136-.496-1.507-1.785-3.254-3.512-3.492-2.263-.312-3.581-1.374-5.971-.634-2.219.688-3.568,2.552-3.692,4.821-.17,3.116.364,6.17.317,9.224-.524,2.016-1.018,4.044-.957,6.248.032,1.159.389,2.109.937,2.863-1.426,2.98-1.563,7.039-.972,9.715.321,1.456.903,2.552,1.649,3.371-.678,1.177-.841,2.661-.495,4.027-.304.575-.519,1.231-.602,1.977-.68,6.117-1.258,12.249-1.426,18.404-.135,4.974-.564,10.904,1.366,15.617.292.714.681,1.361,1.138,1.935-.279.832-.321,1.794-.015,2.867.099.346.221.696.356,1.046-.238.587-.39,1.212-.42,1.851-.092,1.914-.225,3.786-.506,5.686-.228,1.546.186,2.875.952,3.908-.858,6.859-1.664,14.837,2.043,17.64,2.129,2.937,7.344,2.747,8.778-.609,2.782-2.282,2.797-6.629,2.776-10.399-.017-3.123-.317-6.241-.194-9.366.105-2.665.302-4.739-1.123-7.135-.01-.018-.024-.03-.034-.048.355-1.518.192-3.195.099-4.888-.095-1.721-.106-3.435-.07-5.147.531-2.363.556-4.911.446-7.063-.042-.815-.22-1.525-.5-2.131.289-.571.477-1.209.512-1.913.393-7.831-.04-16.273,2.165-23.845h-.002Z" fill="#213d62" stroke-width="0"/></g><g id="c"><path d="M122.098,73.976c-.814,1.915-.106,5.432-.106,7.468,0,3.108,0,6.216.002,9.325.002,6.028.491,12.279-.023,18.284-.814,9.521-14.079,12.278-17.592,2.835-.883-2.374-.663-3.486-2.578-5.357-2.198-2.148-4.646-4.119-7.08-5.992-4.42-3.401-9.218-6.315-14.238-8.742-4.724-2.284-9.663-4.112-14.736-5.45-2.879-.759-5.799-1.368-8.753-1.753-2.121-.276-7.33-1.52-9.234-.422-.704,1.566.926,5.843,2.291,6.322,1.592.559,3.82-.46,5.532-.045,1.932.468,3.343,1.784,4.165,3.556,1.292,2.786,2.899,8.253,2.029,11.282-1.08,3.763-4.418,4.408-7.815,4.739,1.885,7.992,5.282,18.109-4.489,22.474-8.767,3.916-15.105-2.989-17.036-10.742-2.749-11.038-5.386-22.103-8.141-33.139-.354-1.417-.37-3.899-1.715-4.676-1.099-.635-3.117-.476-4.381-1.057-1.8-.828-3.364-2.135-4.526-3.732-1.276-1.754-1.191-4.068-2.3-5.726-3.412,0-6.669-.233-9.072-2.98C-.657,67.064.081,62.243.084,58.074c.006-8.449,1.974-13.701,11.333-13.701,1.692-6.821,5.744-10.336,12.802-10.616,8.617-.342,17.272.24,25.893-.015,14.666-.434,29.265-5.681,41.29-14.004,2.772-1.918,5.422-4.017,7.961-6.234,3.12-2.725,3.707-4.175,5.11-7.829,1.951-5.08,8.338-7.205,13.004-4.483,6.136,3.579,4.5,11.861,4.501,17.78,0,8.312.003,16.624.003,24.936,8.134,1.757,14.363,8.467,13.041,17.235-1.009,6.694-6.38,11.619-12.923,12.834h0ZM107.485,8.374c-.002.522-.004,1.043-.006,1.565-.23.407-.325.84-.307,1.311.027.709.018,1.42.024,2.13,0,.52,0,1.041.002,1.561v3.447c-.005.874-.011,1.747-.016,2.621-.002.31-.008.622.297.822,0,1.772.003,3.543.004,5.315.077,1.139-.194,2.249-.272,3.371-.111,1.585-.132,3.193.273,4.761-.002.729-.004,1.459-.006,2.188-.27.131-.298.37-.282.63v3.438c.008.948.463,1.85.285,2.816-.272.814-.365,1.648-.285,2.501v.943c-.162.763.339,1.44.285,2.189-.467,1.251-.469,2.502,0,3.753-.219,5.208-.057,10.43,0,15.643-.138.417-.593.834-.004,1.253.002.208.003.416.005.624v4.065c-.002.521-.003,1.042-.005,1.563-.413.279-.351.694-.219,1.054.137.375.242.74.224,1.138v2.191c-.274,5.965.009,11.953.01,17.941,0,4.654-2.125,12.966,3.77,14.983,8.473,2.899,7.191-9.28,7.177-13.792-.024-7.941.005-15.883.006-23.824.827-3.332.005-7.171-.002-10.595-.008-4.29,0-8.579,0-12.869v-4.693c0-.417.002-.834.003-1.251v-6.57c0-1.981-.002-3.962-.003-5.943l.002-2.816v-13.452c0-.73,0-1.46-.002-2.19v-.938c0-2.232.002-4.464.003-6.696,0-1.092-.379-2.009-1.244-2.703.06-3.296-8.724-3.261-8.781.012-.671.7-.828,1.592-.931,2.504h-.005ZM103.734,14.178c-8.807,8.713-20.055,14.981-31.745,18.924-3.339,1.126-6.689,2.148-10.157,2.796-1.649.308-6.867.117-8.081,1.054-1.508,1.163-.711,5.159-.711,7.068v11.136c0,7.551-.797,15.624,0,23.128.295,2.775,1.186,2.397,3.956,2.818,3.713.565,7.4,1.334,11.037,2.274,13.111,3.389,24.205,10.925,34.735,19.119,2.119-1.578.969-7.064.969-9.458,0-4.013-.002-8.027-.003-12.04,0-7.453-.002-14.907-.003-22.36V14.177h.003ZM49.673,58.964h-.005c0-3.86-.002-7.719-.002-11.579,0-2.249,1.074-7.336-.004-9.212-1.03-1.792-4.045-.937-6.085-.937-3.654,0-7.307-.003-10.961-.003-5.242,0-12.806-1.48-16.247,3.592-3.06,4.511-1.454,12.587-1.456,17.762-.002,5.419-1.799,14.178,1.767,18.762,3.677,4.729,10.977,3.247,16.183,3.247,3.266,0,15.368,1.61,16.791-1.001,1.001-1.836.018-6.755.018-8.795v-11.836h0ZM26.955,84.244c.682,5.68,2.608,11.501,4.038,17.052,1.249,4.847,2.167,9.81,3.552,14.614,1.165,4.04,1.219,9.317,4.755,12.132,3.822,3.043,9.196,2.394,12.094-1.613,3.179-4.397.514-10.476-.688-15.138-1.419-5.506-2.935-11.019-4.08-16.572-.506-2.453-1.118-4.904-1.775-7.319-.631-2.321-.398-2.612-2.236-3.319-2.172-.836-6.684-.005-8.984-.004-1.434,0-5.459-.732-6.676.167ZM121.926,58.873h.022c0,2.871-.76,7.073,0,9.845.524,1.911.631,1.817,2.853.83,3.806-1.69,6.469-5.319,6.891-9.466.478-4.695-2.148-9.59-6.409-11.672-1.619-.791-2.568-1.37-3.353-.007-.424.736-.006,4.37-.006,5.235,0,1.745.002,3.49.002,5.235ZM3.593,59.054h-.002c0,3.231-1.002,8.008,2.263,9.986.66.4,4.685,1.605,5.446.731.795-.913.039-4.165.415-5.432-.538-1.161-.022-3.006-.046-4.278-.026-1.436-.243-2.882-.245-4.344-.003-1.371.896-6.772-.142-7.701-1.814-1.623-6,.84-6.893,2.285-1.448,2.344-.795,6.146-.795,8.752h-.001ZM52.795,93.751v.031c-4.212,0-2.173,2.884-1.375,6.219.55,2.297.457,6.272,3.167,6.647,4.022.557,4.013-3.138,3.428-5.828-.805-3.699-.862-7.069-5.22-7.069Z" fill="#1c2a48" stroke-width="0"/><path d="M168.571,56.467c1.337-1.62.486-8.829.224-10.985-.279-2.295-.358-2.106-2.783-1.43-2.287.637-4.55,1.368-6.828,2.04-1.774.524-4.449.76-6.006,1.746-1.342.85-1.201.68-1.273,2.518-.18,4.609-.014,9.268,0,13.881.011,3.408.483,7.289-2.333,9.809-2.712,2.426-6.774,2.168-9.35-.257-2.265-2.133-2.767-5.657-1.177-8.373,1.939-3.311,5.624-3.626,8.945-2.672.833-2.192.221-5.386.217-7.674-.005-2.71.174-5.451.171-8.144-.005-5.024-1.001-8.04,4.424-9.779,4.78-1.532,10.4-4.197,15.395-4.613,5.606-.467,4.066,6.201,4.065,9.961,0,5.815-.001,11.629,0,17.444,0,4.358-1.097,9.29-6.465,9.638-10.474.68-8.929-16.584,2.773-13.11,0,0,.001,0,.001,0Z" fill="#7ccedd" stroke-width="0"/><path d="M103.734,14.178v44.46c0,7.453,0,14.907.003,22.36,0,4.013.002,8.027.003,12.04,0,2.394,1.15,7.88-.969,9.458-10.53-8.194-21.625-15.73-34.735-19.119-3.637-.94-7.324-1.71-11.037-2.274-2.769-.421-3.66-.043-3.956-2.818-.798-7.504,0-15.577,0-23.128v-11.136c0-1.909-.796-5.905.711-7.068,1.214-.937,6.432-.746,8.081-1.054,3.468-.647,6.818-1.669,10.157-2.796,11.69-3.943,22.938-10.211,31.745-18.924h-.003Z" fill="#203e63" stroke-width="0"/><path d="M49.673,58.964v11.836c0,2.04.983,6.959-.018,8.795-1.423,2.611-13.525,1.001-16.791,1.001-5.207,0-12.506,1.481-16.183-3.247-3.565-4.584-1.769-13.343-1.767-18.762.002-5.174-1.604-13.251,1.456-17.762,3.441-5.072,11.005-3.592,16.247-3.592,3.654,0,7.307.002,10.961.003,2.039,0,5.055-.855,6.085.937,1.078,1.876.004,6.962.004,9.212,0,3.86.002,7.719.002,11.579h.005,0Z" fill="#f0775c" stroke-width="0"/><path d="M26.955,84.244c1.217-.898,5.242-.166,6.676-.167,2.3,0,6.813-.832,8.984.004,1.837.707,1.604.998,2.236,3.319.657,2.415,1.269,4.867,1.775,7.319,1.146,5.553,2.661,11.066,4.08,16.572,1.202,4.662,3.868,10.741.688,15.138-2.897,4.007-8.272,4.656-12.094,1.613-3.536-2.815-3.591-8.092-4.755-12.132-1.385-4.804-2.303-9.767-3.552-14.614-1.43-5.551-3.356-11.371-4.038-17.052Z" fill="#213e61" stroke-width="0"/><path d="M121.926,58.873c0-1.745-.002-3.49-.002-5.235,0-.865-.418-4.499.006-5.235.785-1.363,1.734-.784,3.353.007,4.261,2.082,6.887,6.976,6.409,11.672-.422,4.147-3.084,7.776-6.891,9.466-2.222.987-2.329,1.081-2.853-.83-.761-2.772,0-6.974,0-9.845h-.022Z" fill="#ea755d" stroke-width="0"/><path d="M3.593,59.054c0-2.606-.653-6.408.795-8.752.893-1.446,5.079-3.908,6.893-2.285,1.038.929.139,6.33.142,7.701.003,1.462.219,2.908.245,4.344.023,1.272-.492,3.117.046,4.278-.375,1.267.38,4.518-.415,5.432-.761.874-4.786-.331-5.446-.731-3.264-1.979-2.263-6.755-2.263-9.986h.003Z" fill="#204066" stroke-width="0"/><path d="M52.795,93.751c4.358,0,4.415,3.37,5.22,7.069.585,2.69.594,6.384-3.428,5.828-2.71-.375-2.617-4.35-3.167-6.647-.798-3.335-2.837-6.219,1.375-6.219v-.031Z" fill="#e9755d" stroke-width="0"/></g><path d="M112.899,3.821c2.871,0,5.207,2.336,5.207,5.207v99.628c0,2.871-2.336,5.207-5.207,5.207h-.144c-2.871,0-5.207-2.336-5.207-5.207V9.028c0-2.871,2.336-5.207,5.207-5.207h.144M112.899,1.018h-.144c-4.405,0-8.01,3.604-8.01,8.01v99.628c0,4.405,3.604,8.01,8.01,8.01h.144c4.405,0,8.01-3.604,8.01-8.01V9.028c0-4.405-3.604-8.01-8.01-8.01h0Z" fill="#1c2a48" stroke-width="0"/></svg>