<?xml version="1.0" encoding="UTF-8"?><svg id="a" xmlns="http://www.w3.org/2000/svg" viewBox="0 0 197.398 198.671"><g id="b"><path d="M14.734,189.703c7.184,0,11.103,2.392,11.103,3.62s-3.919,3.62-11.103,3.62-11.103-2.392-11.103-3.62,3.919-3.62,11.103-3.62M14.734,188.168c-6.98,0-12.638,2.308-12.638,5.155s5.658,5.155,12.638,5.155,12.638-2.308,12.638-5.155-5.658-5.155-12.638-5.155h0Z" fill="#80cbd3" stroke-width="0"/></g><g id="c"><path d="M185.731,155.53l.004-.003c-.089-.222-.143-.448-.193-.678-.05-.422-.114-.842-.24-1.245-.203-.653-.561-1.264-1.02-1.795-.021-.086-.055-.169-.081-.254,0-.008.002-.015.002-.024v-.22c.026-.66-.118-1.276-.431-1.846-.202-.594-.546-1.108-1.034-1.542-.453-.468-.989-.798-1.609-.991-.596-.3-1.238-.438-1.926-.413-.443.057-.886.114-1.329.172-.847.228-1.582.638-2.206,1.233-.045.056-.089.11-.134.166-5.386-.036-10.764.1-16.141.408-.423-.243-.901-.446-1.463-.577-2.885-.672-5.709-.982-8.64-.91.041-.704.066-1.335.021-1.72-.274-2.367-.76-4.688-1.361-6.997-.959-3.692-2.128-7.27-2.641-10.988,1.839-.724,3.266-2.488,3.174-4.443-.088-1.873-1.185-3.492-2.825-4.279-.749-.53-1.715-.856-2.901-.856-.848,0-1.581.17-2.206.459-1.411.092-2.822.194-4.215.122-2.616-.135-5.116,2.301-5,4.793.11,2.359,1.693,4.129,3.947,4.645.352,3.05,1.057,6.045,1.892,9.044,1.386,4.979,2.113,9.436,2.394,14.56.097,1.768.616,3.146,1.419,4.221-.289.786-.365,1.689-.13,2.691.512,2.183.9,4.366,1.235,6.55-9.985.404-19.918-.016-29.829-1.27-2.299-.29-3.755.78-4.384,2.3-9.355-.168-18.676-1.689-28.041-.66-2.421.266-3.921,1.839-4.497,3.637-.129-.04-.266-.071-.402-.104-.12-.908-.554-1.823-1.393-2.656-1.426-1.416-2.861-2.824-4.294-4.235,1.622-1.337,2.414-3.529.996-5.816-1.703-2.747-4.1-4.806-6.47-6.924,1.705-.165,3.352-.495,4.869-1.106,2.024-.817,4.072-1.87,5.678-3.328,1.462-1.326,2.47-2.159,3.793-2.905.004.005.007.009.011.013.16.16.341.298.544.412.165.162.35.295.554.401.398.161.796.322,1.194.483.558.168,1.116.207,1.674.133.324-.003.649-.047.973-.13.053-.013.106-.022.159-.037.398-.161.796-.322,1.194-.483.751-.427,1.349-.999,1.794-1.72.168-.382.336-.763.504-1.145.238-.849.238-1.699,0-2.548-.003-.011-.007-.023-.012-.034-.168-.382-.336-.763-.504-1.145-.009-.016-.017-.032-.027-.047-.079-.122-.169-.244-.262-.367-.195-.344-.427-.666-.739-.944-.412-.426-.902-.722-1.453-.92-.073-.049-.146-.098-.217-.148-.165-.279-.356-.545-.581-.787-.25-.567-.606-1.074-1.069-1.521-.029-.023-.058-.046-.086-.069-.453-.468-.989-.798-1.609-.991-.596-.3-1.238-.438-1.926-.413-.688-.025-1.331.113-1.926.413-.62.194-1.156.523-1.609.991-.192.239-.385.477-.577.716-3.269.449-6.588.923-9.627,1.973-3.398,1.174-6.06,3.308-8.517,5.733-1.268-.076-2.481-.154-3.561-.157-.845-.003-1.576.164-2.199.449-.364-.276-.744-.543-1.161-.788-3.974-2.341-7.7,1.34-7.393,4.78-3.669.195-7.098.611-11.028,2.094-2.964,1.119-6.235,1.888-9.381,2.88-.088-.106-.173-.215-.274-.312-.03-.034-.059-.069-.09-.103-.008-.007-.012-.015-.02-.023-.007-.007-.015-.01-.022-.017-.607-.631-1.427-1.095-2.457-1.285-.34-.079-.691-.114-1.057-.102-1.401,0-2.479.47-3.27,1.18-.089.074-.181.143-.266.223-.261.323-.521.647-.782.97-.452.748-.68,1.554-.683,2.42v.041c-.006.15,0,.295.011.44-.115.638-.114,1.299.008,1.937-.021.052-.03.106-.048.159-.173.199-.334.406-.469.626l-.019.024c-.452.748-.68,1.554-.683,2.42v.035c-.002.055.004.106.004.16-.034.03-.07.055-.103.086,0,0-.002,0-.003.002h0c-.006.007-.012.011-.018.016l-.03.037c-.266.265-.495.549-.688.854-.021.026-.042.053-.064.079-.452.748-.68,1.554-.683,2.42v.078c-.026.66.117,1.276.43,1.846.202.594.546,1.108,1.034,1.542.337.25.675.499,1.012.75.574.35,1.194.54,1.859.568.443.114.886.114,1.329,0,.665-.029,1.285-.219,1.859-.568.337-.25.675-.499,1.012-.75.62-.598,1.048-1.303,1.286-2.115l.019-.094c.156-.476.199-.953.154-1.429.042-.032.084-.062.126-.094.444-.429.786-.915,1.034-1.453,3.783-1.962,8.585-2.699,12.52-4.168,2.03-.758,3.91-1.704,6.087-1.97,2.766-.338,5.616.043,8.406-.064.119.227.239.453.372.661,1.327,2.084,3.144,3.859,4.899,5.606,4.179,4.161,8.37,8.31,12.557,12.463-1.095,1.483-1.581,3.396-1.087,5.639,1.033,4.688,5.149,6.922,9.606,7.511.147.573.367,1.162.719,1.791,1.228,2.191,2.764,4.289,4.218,6.381.016.345.069.683.174.992.392,1.16,1.141,2.279,2.298,2.864,1.229.622,2.419.711,3.779.492.911-.088,1.82-.122,2.737-.079.175.008.349.003.522-.011.617.279,1.341.442,2.174.442,6.435,0,6.445-9.587,0-9.587-.23,0-.449.015-.663.039-.614-.268-1.296-.435-2.033-.47-.217-.01-.434-.004-.65-.006-.825-1.236-1.65-2.47-2.474-3.706-1.189-1.781-1.01-1.888-1.225-3.875-.256-2.359-2.089-5.082-4.991-4.793.087-.242.152-.494.2-.751.311.02.638.017.988-.021,11.531-1.267,22.999,1.333,34.543.511,1.476-.105,2.608-.703,3.405-1.548,8.254.787,16.526,1.01,24.835.65.259-.012.503-.043.741-.083.15,1.133.304,2.268.476,3.405.374,2.464,1.31,4.432,2.176,6.739.574,1.531,1.006,3.118,1.389,4.718-1.153.871-1.923,2.179-1.853,3.673.118,2.527,2.2,4.88,5,4.793,2.078-.065,4.151-.033,6.225.095,2.615.162,5.116-2.32,5-4.793-.12-2.575-1.971-4.376-4.523-4.726-1.399-4.589-3.229-9.203-3.775-13.817-.627-5.294-1.282-10.515-2.338-15.726,1.062-.095,2.125-.252,3.154-.47.47.104.988.147,1.56.105,6.701-.479,13.402-.671,20.115-.609.039.13.071.263.122.39.155.624.453,1.167.895,1.63.353.521.82.934,1.403,1.235,1.072.601,2.651.856,3.853.483,1.21-.376,2.377-1.094,2.988-2.203.593-1.077.978-2.507.504-3.694Z" fill="#1e3455" stroke-width="0"/><line x1="135.283" y1="118.112" x2="142.813" y2="118.203" fill="none" stroke="#1e3455" stroke-miterlimit="10" stroke-width=".979"/><line x1="183.661" y1="148.506" x2="186.212" y2="156.28" fill="none" stroke="#1e3455" stroke-miterlimit="10" stroke-width=".979"/><line x1="150.372" y1="197.694" x2="157.849" y2="197.645" fill="none" stroke="#1e3455" stroke-miterlimit="10" stroke-width=".979"/><line x1="80.879" y1="197.753" x2="92.069" y2="197.809" fill="none" stroke="#1e3455" stroke-miterlimit="10" stroke-width=".979"/><line x1="12.784" y1="151.946" x2="9.895" y2="159.867" fill="none" stroke="#1e3455" stroke-miterlimit="10" stroke-width=".979"/><line x1="81.57" y1="130.416" x2="85.566" y2="135.855" fill="none" stroke="#1e3455" stroke-miterlimit="10" stroke-width=".979"/></g><g id="d"><path d="M62.065,69.994c.26-16.71,11.965-32.282,29.442-35.684,17.153-3.339,34.404,5.985,40.934,21.453,7.429,17.599-1.548,35.723-10.384,51.194-5.039,8.822-10.671,17.353-16.653,25.613-1.771,2.446-3.823,6.874-7.646,6-3.828-.875-6.871-7.685-8.91-10.607-6.11-8.755-11.884-17.771-16.804-27.197-4.894-9.377-10.031-20.075-9.979-30.773ZM78.612,70.095c-.035,10.231,8.216,19.278,20.184,19.361,10.92.076,20.096-8.459,20.047-19.359-.049-10.94-9.388-19.377-20.357-19.247-11.381.135-19.921,9.334-19.874,19.245Z" fill="#1e3455" stroke-width="0"/><path d="M85.97,135.57c2.986,4.152,5.471,9.085,11.232,9.794,6.016.741,9.565-2.882,12.662-7.308,3.576-5.112,7.218-10.215,10.599-15.448,1.486-2.3,2.006-4.616,4.889-5.039,3.153-.462,6.947.046,10.137.063.105.481.206.962.317,1.443.344,1.485.43,3.019.945,4.47.1,4.421,1.622,9.143,2.513,13.473.025.188.05.377.076.565-.048.435.148.823.253,1.23-.04.099-.029.191.034.278-.042.225-.014.435.146.615-.029.492-.055.982.335,1.38-.151.135-.101.27,0,.406.016.102.033.203.049.306.012.103.024.204.037.307-.061.901.172,1.745.554,2.559-.072.667.022,1.31.314,1.922.187,2.283.812,4.497,1.157,6.755.338,2.21.914,4.382,1.095,6.616-.009.434-.072.875-.016,1.302.097.739.07,1.532.712,2.108l-.06.09c.055.582-.349,1.257.375,1.704l-.059.091c-.215,1.035-.215,1.04-1.061,1.074-.363.014-.727.004-1.09.004-18.116,0-36.232-.002-54.347-.003-1.402,0-2.803-.003-4.204.008-.402.003-.845-.102-1.147.286-1.95.372-3.937.764-5.779,1.503-.823.33-2.325,1.605-3.257,1.472-1.209-.172-4.452-6.943-5.243-8.109-1.869-2.76-3.875-5.395-6.214-7.81-1.103-1.138-6.175-4.51-5.936-5.784,5.496-1.384,11.097-2.54,16.392-4.553,2.589-.984,5.121-2.138,7.532-3.476,1.398-.777,5.896-2.621,6.061-4.291,0,0-.003-.002-.003-.002Z" fill="#7dcad2" stroke-width="0"/><path d="M98.797,6.875c-44.269,0-75.123,45.821-59.136,85.062,1.688,4.142,3.822,8.061,6.175,11.885,1.098,1.783,2.533,3.557.959,5.556-1.443,1.833-3.722,1.539-5.364.188-3.049-2.509-5.07-7.72-6.66-11.171-2.064-4.48-3.675-9.078-4.705-13.879-4.133-19.267-.088-39.458,11.727-55.63C53.467,12.909,72.019,1.98,92.395.259c20.445-1.727,39.944,5.256,54.676,18.839,14.285,13.172,22.942,33.349,22.009,52.392-.502,10.248-2.873,20.227-7.64,29.446-1.337,2.585-3.717,8.861-6.98,9.686-1.689.428-3.643-.484-4.225-2.08-.898-2.465,1.77-5.202,2.913-7.118,11.252-18.864,11.788-42.549,1.115-61.773-5.219-9.401-12.721-17.524-22.035-23.375-10.347-6.5-21.232-8.933-33.429-9.401h-.002Z" fill="#7fcbd2" stroke-width="0"/><path d="M193.782,175.66v-.002c-1.17-3.342-2.395-6.664-3.544-10.012-.792-2.306-1.572-7.943-3.548-9.508-.207-.012-.415-.035-.622-.035-11.749,0-23.497,0-35.246.005-.302,0-.627-.057-.924.233,2.559,13.846,5.163,27.723,7.717,41.692h-7.161c-.2.005-.397.014-.541.167-2.876-.13-5.581-.671-8.584-1.439-1.835-.469-3.356.008-4.435.949-.781-.641-1.833-1.043-3.166-1.029-7.586.085-15.166-.026-22.746-.332-1.051-.042-1.926.181-2.633.58-.299-.049-.61-.08-.943-.08h-12.105c-1.227,0-2.205.363-2.964.927,8.615.081,17.228.314,25.829.807l63.388.066c4.637.127,9.387-.235,12.533-3.008,6.395-5.637,1.956-13.526-.305-19.981Z" fill="#80cbd3" stroke-width="0"/><path d="M92.059,197.978c-.192-.025-.384-.05-.577-.075-.141,0-.277.015-.415.027,0-.004-.002-.008-.003-.012-.013.006-.03.009-.043.014-.459.04-.902.137-1.327.294-1.286.106-2.793-.122-3.882-.138-1.31-.02-2.054-.043-2.665-.347-22.797.033-45.578.843-68.147.383,22.569.461,45.349-.35,68.147-.383-.576-.286-1.035-.822-1.733-1.858-2.626-3.902-4.996-7.984-7.497-11.96-4.929-7.837-9.343-16.43-15.304-23.598-2.387-2.87-5.196-5.554-8.342-7.661-4.158-2.784-7.623-1.438-12.165-.19-4.655,1.279-9.363,2.397-14.044,3.586-4.715,1.198-9.791,3.158-14.639,3.651-1.96,4.788-3.563,9.702-5.263,14.58-1.57,4.508-4.527,9.829-4.122,14.654.668,7.962,7.675,9.302,14.615,9.435.133.035.267.068.408.094l103.105.108c-8.601-.492-17.215-.726-25.829-.807-.092.068-.193.127-.278.201Z" fill="#80cbd3" stroke-width="0"/><path d="M91.154,198.278c9.718.275,19.482.033,29.205.033,9.797,0,19.732.455,29.512-.073.145-.197.364-.199.582-.205-.754-4.137-1.502-8.274-2.262-12.41-.293-1.594-.589-3.188-.887-4.781-.259-1.383-.27-5.437-1.194-6.462-1.573-1.747-6.09-.837-8.6-.837-4.254,0-8.509.002-12.763.003-8.225.002-16.45.004-24.675.004-3.971,0-7.941,0-11.912,0-3.654,0-8.053-.309-11.015,2.198,4.287,7.551,9.163,14.883,13.92,22.17.029.12.059.241.089.36Z" fill="#7ecad2" stroke-width="0"/><path d="M99.601,23.093c-32.213-2.2-55.179,32.148-46.134,60.059,1.097,3.386,2.424,6.764,4.346,9.805,1.409,2.23,3.751,5.503.262,7.248-5.964,2.984-10.227-11.293-11.357-14.835-4.701-14.732-2.365-31.077,6.064-44.15,17.496-27.135,56.895-33.516,81.769-11.676,11.68,10.256,18.132,24.436,18.695,39.539.294,7.884-1.897,16.144-5.309,23.257-1.149,2.396-2.823,7.357-5.783,8.13-3.19.834-5.08-2.115-4.168-4.726,1.467-4.199,4.499-7.826,5.896-12.181,1.236-3.853,1.904-7.76,2.119-11.783.438-8.187-1.557-16.548-5.451-23.832-7.817-14.623-23.656-24.853-40.949-24.853v-.002h0Z" fill="#7fcbd2" stroke-width="0"/><path d="M82.11,130.319c-9.657,7.081-21.409,9.224-32.921,12.099-6.1,1.524-12.195,3.066-18.279,4.645-5.985,1.553-12.437,4.147-18.606,4.745-.42-1.093.989-3.419,1.339-4.417.698-1.991,1.397-3.982,2.098-5.973,1.488-4.231,2.979-8.46,4.472-12.689,2.873-8.14,6.459-11.172,15.622-11.163,9.299.009,18.598.012,27.897,0,3.602-.004,8.837-1.238,11.179,1.668,1.319,1.636,2.308,3.649,3.481,5.393.927,1.379,3.646,4.046,3.72,5.692h-.002Z" fill="#7ccad1" stroke-width="0"/><path d="M148.21,146.572c-.579-1.864-.724-3.81-1.193-5.693-.048-.192-.113-.38-.17-.569-.227-5.913-2.164-12.15-3.324-17.954-.237-1.544-.473-3.089-.71-4.633.548-.22,1.126-.149,1.693-.149,6.958-.003,13.916.039,20.873-.013,4.178-.032,8.769,2.675,10.366,7.027,2.629,7.167,5.077,14.393,7.595,21.596.258.739.538,1.471.807,2.206-.509.313-1.08.294-1.653.294-10.743-.003-21.486-.011-32.229.016-.733.002-1.29-.191-1.797-.642l.062-.092c-.013-.484.265-1.031-.321-1.393h.001Z" fill="#7ccad1" stroke-width="0"/><path d="M144.264,165.25c.356.375.308.81.212,1.26-.559.217-1.137.116-1.702.116-19.237.007-38.474.007-57.712.007-.883,0-1.766-.01-2.649-.014.302-.387.745-.283,1.147-.286,1.401-.011,2.803-.008,4.204-.008,18.116,0,36.232.002,54.347.003.363,0,.727.011,1.09-.004.846-.034.846-.038,1.061-1.074h.002,0Z" fill="#8dbdd3" stroke-width="0"/><path d="M143.312,159.956c.445,1.097.63,2.242.696,3.409-.642-.575-.615-1.368-.712-2.108-.056-.427.007-.868.016-1.302h0Z" fill="#8dbdd3" stroke-width="0"/><path d="M143.948,163.456c.419.508.3,1.125.375,1.704-.724-.447-.32-1.122-.375-1.704Z" fill="#8dbdd3" stroke-width="0"/><path d="M148.21,146.572c.586.363.308.909.321,1.393-.411-.4-.292-.913-.321-1.393Z" fill="#8dbdd3" stroke-width="0"/><path d="M87.709,70.034c-.608-13.789,22.473-13.488,22.022.459-.441,13.641-22.229,13.084-22.022-.459Z" fill="#f6c344" stroke-width="0"/></g></svg>