<?xml version="1.0" encoding="UTF-8"?><svg id="a" xmlns="http://www.w3.org/2000/svg" viewBox="0 0 230.573 183.433"><path d="M35.676,154.093c-.687-.539-1.54-.639-2.324-.844-16.585-4.23-29.228-18.63-32.33-35.307-.711-3.561-1-7.163-.998-10.794.011-20.106-.088-40.213.051-60.319C-.086,28.223,11.929,10.443,29.2,3.476,35.525.804,42.421-.041,49.259.002,93.772,0,138.285-.003,182.799.008c7.027.002,13.792,1.286,20.202,4.271,13.105,6.158,23.26,18.018,26.537,32.195.74,3.095,1.007,6.274,1.009,9.456.019,20.776.047,41.553.005,62.329.396,21.524-15.291,41.727-36.671,45.618-3.737.766-7.513.901-11.302.9-29.936-.005-59.871-.016-89.807-.041-.987,0-1.812.247-2.641.797-12.693,8.425-25.402,16.828-38.115,25.223-3.739,2.694-8.512,3.891-12.527,1.019-3.6-2.24-3.921-6.598-3.813-10.442.001-5.749,0-11.497,0-17.24ZM47.713,168.663c.943-.061,1.447-.638,2.028-1.02,11.756-7.724,23.51-15.45,35.24-23.212,1.823-1.206,3.693-1.807,5.927-1.803,30.051.059,60.102.063,90.152.034,3.498-.003,7.001-.091,10.46-.854,8.679-1.914,15.672-6.386,20.833-13.625,4.182-5.866,6.209-12.441,6.205-19.653-.011-21.17-.004-42.34-.006-63.509-.126-18.084-15.537-33.822-34.964-33.937-47.707.563-95.568-1.097-143.202.619-6.85,1.172-12.698,4.308-17.604,9.117-7.048,6.91-10.532,15.498-10.603,25.276-.151,20.777-.049,41.557-.026,62.335.074,9.819,4.185,19.166,11.567,25.674,6.562,6.068,15.172,8.345,23.994,8.555,0,8.685,0,17.31,0,26.003Z" fill="#203769" stroke-width="0"/><path d="M185.029,16.778c10.523.058,20.104,7.151,24.955,16.22,1.626,3.042,2.584,6.34,2.966,9.81.573,21.979.058,43.997.226,65.99-.003,8.106-3.003,14.974-8.865,20.52-6.101,5.979-14.578,8.487-23.019,8.439-31.107-.009-62.214.007-93.32-.032-2.021-.003-3.705.406-5.425,1.586-6.922,4.747-13.963,9.322-20.95,13.976-2.701,1.652-5.108,3.78-7.929,5.194,0-6.913,0-13.745,0-20.736-10.1.573-20.251-1.152-27.396-8.856-4.178-4.343-6.829-9.518-7.851-15.518-.95-22.282-.035-44.664-.371-66.981-.011-5.237,1.128-10.141,3.682-14.691,4.861-8.755,13.838-14.652,23.915-14.93.463.614,1.126.303,1.679.303,45.801-.286,92.191.631,137.704-.294ZM149.507,125.014c1.168-.492,1.548-1.608,1.963-2.631,1.655-4.754,3.771-9.298,5.49-14.016,5.308-13.243,10.396-26.594,15.576-39.895.923-2.634,2.168-5.118,3.212-7.692.422-1.039.343-2.267.991-3.125.828-1.098,1.035-2.401,1.497-3.594.754-1.947,1.571-3.876,2.203-5.878,1.248-3.317,2.628-6.625,3.935-9.925,1.052-2.294,1.29-5.177-.359-7.419-2.106-3.09-4.941-3.324-8.41-2.767-1.207.113-2.168.73-3.262,1.034-1.515.421-3.064.772-4.536,1.282-4.985,1.56-9.941,3.193-14.989,4.553-1.776.518-3.469,1.315-5.233,1.88-.936.3-1.999.231-2.911.576-5.1,1.821-10.364,3.387-15.528,4.944-2.07,1.206-4.474,1.318-6.669,2.141-1.863.698-3.811,1.371-5.817,1.81-4.823,1.597-9.776,3.046-14.614,4.672-.25.094-.535.233-.774.189-.647-.118-1.213.132-1.697.43-1.859,1.197-4.219.595-5.963,1.992-.29.268-.834.4-1.245.369-.977-.075-1.766.443-2.607.735-2.433.843-4.941,1.471-7.417,2.212-.841.208-1.74.867-2.599.92-.99.062-1.8.529-2.683.767-3.559.802-6.851,2.411-10.351,3.377-4.676,1.268-9.275,2.933-13.948,4.129-1.47.412-2.776,1.317-4.27,1.499-1.077.131-1.87.65-2.66,1.218-1.971,1.417-3.028,3.503-3.095,5.808-.063,2.171.97,4.106,3.03,5.19,2.337,1.231,4.602,2.6,7.056,3.612,1.33.549,2.699,1.107,3.863,1.926,6.459,3.217,12.985,6.468,19.502,9.686.874.421,1.343.977,1.62,1.887,2.366,7.68,4.775,15.347,7.207,23.006.423,1.309.712,2.672,1.414,3.881.415.714.796,1.476,1.772,1.554-.111.564.275.783.679,1.008,2.416,1.172,5.553,2.683,8.124,1.285,7.086-3.642,13.934-7.735,20.88-11.634.758-.433,1.415-.448,2.181-.022,2.515,1.395,5.111,2.63,7.692,3.899,4.483,2.204,8.932,4.481,13.349,6.814,2.566,1.356,4.967,1.147,7.355-.338.513-.319,1.104-.584,1.048-1.347Z" fill="#2d66aa" stroke-width="0"/><path d="M185.029,16.778c-.396.636-1.017.296-1.518.297-10.33.025-20.66.024-30.989.023-35.54-.307-71.585.578-106.876-.329,46.46-.101,92.926-.167,139.383.009Z" fill="#203769" stroke-width="0"/><path d="M149.507,125.014c.055.764-.535,1.028-1.048,1.347-2.388,1.485-4.789,1.693-7.355.338-6.922-3.751-14.087-7.032-21.041-10.713-.766-.425-1.423-.41-2.181.022-6.946,3.899-13.794,7.992-20.88,11.634-2.574,1.407-5.702-.125-8.124-1.285-.404-.224-.79-.444-.679-1.008.9.562,1.832,1.213,2.879,1.547.509.173,1.037.341,1.542-.117,1.755-1.589,3.678-3.007,5.02-5.009,1.161-.461,1.585-1.656,2.427-2.44,3.103-2.998,5.947-6.3,8.941-9.381,10.758,5.407,21.493,10.861,32.239,16.292,2.72,1.618,6.057.734,8.26-1.228Z" fill="#203769" stroke-width="0"/><path d="M88.198,125.35c-.976-.078-1.357-.839-1.772-1.554-.702-1.208-.991-2.571-1.414-3.881-2.432-7.659-4.841-15.327-7.207-23.006-.277-.91-.746-1.466-1.62-1.887-3.247-1.564-6.485-3.156-9.659-4.862-1.944-1.045-4.097-1.709-5.912-2.891-1.26-.821-2.711-1.072-3.931-1.932-1.164-.819-2.533-1.378-3.863-1.926-2.454-1.012-4.719-2.381-7.056-3.612-4.398-2.25-3.676-8.455.065-10.999.79-.568,1.583-1.087,2.66-1.218,1.494-.182,2.8-1.086,4.27-1.499,4.673-1.196,9.273-2.861,13.949-4.129,4.379-1.307,8.548-3.166,13.034-4.144.859-.053,1.758-.712,2.599-.92,1.822-.451,3.57-1.134,5.395-1.545,1.623-.295,2.941-1.383,4.629-1.402.411.032.955-.101,1.245-.369,1.743-1.397,4.104-.795,5.963-1.992.485-.297,1.05-.548,1.697-.43,3.498-1.083,7.088-2.219,10.623-3.278,1.585-.52,3.165-1.235,4.765-1.584,2.006-.438,3.955-1.111,5.817-1.81,2.195-.823,4.599-.934,6.669-2.141,5.164-1.557,10.427-3.122,15.528-4.944.912-.346,1.975-.276,2.911-.576,1.764-.565,3.457-1.362,5.233-1.88,3.066-.895,6.172-1.668,9.183-2.735,3.434-1.092,6.845-2.195,10.342-3.1,1.939-.841,4.066-1.278,6.223-1.277,2.403-.062,4.105,1.181,5.449,3.01,1.649,2.242,1.411,5.124.359,7.419-1.307,3.299-2.687,6.607-3.935,9.924-.631,2.002-1.448,3.931-2.202,5.878-.462,1.194-.669,2.497-1.497,3.594-.647.859-.569,2.086-.991,3.125-1.044,2.574-2.289,5.058-3.212,7.692-5.18,13.301-10.268,26.652-15.575,39.895-1.719,4.718-3.835,9.262-5.49,14.016-.415,1.023-.795,2.14-1.963,2.631.361-.78.952-1.52,1.254-2.345,9.845-25.142,19.701-50.281,29.573-75.413,1.384-3.537,2.764-7.077,4.051-10.65.845-2.346.304-4.52-1.412-6.296-1.779-1.841-3.973-2.644-6.513-1.884-7.595,2.274-15.189,4.554-22.761,6.901-35.29,11.106-70.711,21.797-105.95,33.06-5.349,1.708-6.274,9.367-.781,11.58,9.98,4.85,19.893,9.831,29.78,14.867.593.299,1.159.524,1.388,1.27,2.332,7.58,4.657,15.163,7.067,22.719.705,2.29,1.109,4.793,2.995,6.528Z" fill="#203769" stroke-width="0"/><path d="M109.007,109.95c-2.994,3.08-5.837,6.383-8.941,9.381-.842.784-1.266,1.979-2.427,2.44-.768.033-1.237.667-1.889.944-1.822.772-2.322.575-2.915-1.286-3.005-9.441-5.837-18.935-8.591-28.451-.395-1.365-1.058-2.168-2.292-2.775-10.407-5.346-21.204-10.071-31.365-15.815.49-1.003,1.437-1.088,2.251-1.341,6.781-2.11,13.573-4.186,20.354-6.297,34.212-10.669,68.414-21.365,102.665-31.908.657-.201,1.428-.683,2.023.023.529.627-.017,1.292-.25,1.872-7.295,18.026-14.568,36.06-21.727,54.14-3.684,9.263-7.351,18.533-11.028,27.8-.176.442-.239.958-.644,1.191-2.056-1.009-4.044-1.973-6.022-2.957-12.921-6.426-25.843-12.85-38.754-19.297,13.914-11.122,28.09-21.969,42.134-32.95,5.857-4.752,11.93-9.305,17.482-14.403.501-.592,1.506-.649,1.699-1.749-1.656.862-3.229,1.637-4.76,2.488-16.082,9.025-32.222,17.946-48.12,27.293-7.093,4.061-14.134,8.209-21.126,12.441-1.086.657-1.085.669-.768,1.834,2.018,6.903,3.563,13.925,5.548,20.834.238.873.577,1.719.867,2.572.594-.144.643-.641.706-.933,1.062-3.857,2.377-7.639,3.516-11.48.661.384,1.305.802,1.985,1.148,3.458,1.758,6.926,3.498,10.39,5.244Z" fill="#f05359" stroke-width="0"/><path d="M99.456,97.612c-.653.299-1.15.648-1.359,1.459-.393,1.52-.966,2.994-1.464,4.487-1.139,3.841-2.453,7.623-3.516,11.48-.062.293-.112.789-.706.933-2.607-7.661-4.08-15.657-6.415-23.406-.317-1.165-.317-1.177.768-1.834,22.797-13.737,46.015-26.751,69.246-39.734,1.53-.851,3.104-1.625,4.76-2.488-.193,1.1-1.198,1.157-1.699,1.749-5.551,5.098-11.625,9.651-17.481,14.403-14.044,10.981-28.22,21.828-42.135,32.949Z" fill="#203769" stroke-width="0"/></svg>