<?xml version="1.0" encoding="UTF-8"?>
<svg id="a" xmlns="http://www.w3.org/2000/svg" viewBox="0 0 199.997 189.866">
  <path d="M44.278,178.111c.655-12.768,1.656-25.492,2.42-38.261.21-4.38.613-8.736.85-13.12.118-1.234-.336-2.283-1.421-3.126-11.617-9.284-23.304-18.484-34.915-27.778C6.628,91.865-.265,88.548.008,81.577c-.094-5.647,4.825-9.687,10.104-10.442,10.563-2.553,21.084-5.27,31.628-7.896,6.07-1.518,12.124-3.114,18.233-4.461,2.316-.511,3.435-1.664,4.251-3.847,5.926-15.985,12.223-31.831,18.113-47.828,2.776-8.225,14.285-9.653,18.78-2.46,9.579,14.628,19.027,29.342,28.491,44.045.901,1.34,1.733,2.992,3.627,2.905,8.974.074,17.946.248,26.907.44,5.055.291,10.121.038,15.169.363,6.487.763,13.857-1.396,19.609,2.416,3.346,2.408,5.102,5.657,5.077,9.764-.015,2.415-.95,4.588-2.469,6.463-6.7,8.214-13.686,16.19-20.438,24.362-4.468,5.07-8.722,10.342-13.251,15.349-1.011,1.008-1.324,2.066-.814,3.546,1.695,4.916,3.242,9.883,4.833,14.835,3.703,11.527,7.401,23.055,11.092,34.586.447,1.396.893,2.785.929,4.286.074,8.371-9.304,11.855-16.055,8.785-16.591-5.946-33.187-11.876-49.772-17.843-2.049-.403-4.311-2.405-6.302-1.029-3.194,2.1-6.394,4.192-9.597,6.278-10.817,7.023-21.616,14.071-32.414,21.122-5.172,3.751-10.911,6.589-16.861,2.658-3.54-2.042-4.956-5.806-4.6-9.863ZM54.545,175.745c-.08,2.451,1.594,3.336,3.511,1.771,2.696-1.749,5.383-3.512,8.092-5.242,8.818-5.632,17.642-11.253,26.466-16.875,4.55-2.9,9.131-5.753,13.637-8.719,1.241-.817,2.274-.83,3.64-.332,18.93,6.813,37.87,13.66,56.866,20.263,1.483.337,2.337-1.204,1.599-2.429-.825-2.632-1.601-5.28-2.476-7.896-2.817-8.415-5.382-16.909-8.044-25.373-1.948-6.195-3.814-12.416-5.81-18.595-.495-1.532-.217-2.755.661-3.983,6.47-7.728,13.039-15.393,19.507-23.133,5.282-6.1,10.386-12.352,15.703-18.422.89-1.171,2.969-3.011,1.14-4.203-.406-.287-.855-.438-1.382-.439-2.804-.003-5.603-.134-8.405-.26-11.165-.245-22.327-.421-33.502-.657-5.931-.288-11.884.012-17.824-.345-1.606-.019-2.606-.93-3.331-2.223-9.077-13.98-18.138-27.971-27.181-41.973-1.037-1.602-2.08-3.202-3.156-4.778-.841-1.232-2.082-1.203-2.89.049-6.643,17.318-13.105,34.738-19.615,52.117-.407,1.109-1.082,1.823-2.279,2.1-1.581.366-3.13.87-4.704,1.268-12.807,3.236-25.623,6.433-38.45,9.587-4.574,1.124-9.156,2.219-13.734,3.33-.799.194-1.459.621-1.584,1.471-.104.708.386,1.217.917,1.634,1.075.845,2.159,1.68,3.235,2.525,13.863,10.895,27.728,21.788,41.552,32.732,1.053.833,1.568,1.853,1.499,3.26-.153,3.122-.413,6.235-.632,9.351-.728,12.642-1.874,25.291-2.391,37.917.022.327.019.675-.069.986-.533,1.875.099,3.856-.566,5.514Z" fill="#131e3e" stroke-width="0"/>
  <path d="M54.545,175.745c.665-1.659.033-3.64.566-5.514.088-.311.091-.659.07-.986.517-12.626,1.662-25.275,2.39-37.917.22-3.116.479-6.229.633-9.351.069-1.408-.446-2.427-1.499-3.26-1.719-1.36-3.434-2.723-5.155-4.081-13.2-10.405-26.393-20.82-39.632-31.176-1.381-.929-1.197-2.73.667-3.106,4.577-1.112,9.159-2.206,13.733-3.33,12.827-3.154,25.643-6.351,38.45-9.587,1.575-.398,3.123-.902,4.704-1.268,1.197-.277,1.872-.991,2.279-2.1,6.51-17.379,12.972-34.799,19.615-52.117.808-1.252,2.049-1.281,2.89-.049,1.076,1.576,2.118,3.176,3.156,4.778,9.043,14.002,18.104,27.993,27.181,41.973.719,1.305,1.73,2.195,3.331,2.223,5.94.358,11.893.058,17.824.345,11.176.237,22.338.413,33.502.657,2.802.125,5.601.256,8.405.26,1.325.007,2.806,1.199,1.809,2.55-.455.739-1.003,1.428-1.568,2.091-5.317,6.07-10.421,12.322-15.703,18.422-6.467,7.74-13.037,15.405-19.507,23.133-.878,1.228-1.156,2.451-.661,3.983,1.996,6.179,3.862,12.4,5.81,18.595,2.661,8.464,5.227,16.958,8.044,25.373.875,2.615,1.651,5.264,2.476,7.896.701,1.189-.082,2.799-1.599,2.428-18.997-6.602-37.936-13.449-56.866-20.262-1.366-.498-2.399-.484-3.64.332-4.506,2.966-9.087,5.819-13.637,8.719-8.823,5.623-17.648,11.244-26.466,16.875-2.708,1.73-5.396,3.493-8.092,5.242-1.701,1.416-3.634.881-3.511-1.771ZM138.469,126.854c-9.176-9.384-20.784,4.123-11.396,11.876,3.266,2.59,6.279,5.495,9.475,8.171,1.568,1.319,2.655,1.225,4.177-.15,1.468-1.325,3.002-2.578,4.448-3.926,2.012-1.876,4.166-3.595,6.078-5.582,7.013-8.758-5.24-18.66-12.783-10.389Z" fill="#59c5cd" stroke-width="0"/>
  <path d="M138.469,126.854c7.54-8.27,19.797,1.629,12.783,10.389-1.913,1.987-4.067,3.706-6.078,5.582-1.446,1.348-2.98,2.601-4.448,3.926-1.522,1.374-2.609,1.469-4.177.15-3.196-2.675-6.209-5.581-9.475-8.171-9.385-7.75,2.214-21.262,11.396-11.876Z" fill="#131e3e" stroke-width="0"/>
</svg>
