<?xml version="1.0" encoding="UTF-8"?>
<svg xmlns="http://www.w3.org/2000/svg" viewBox="0 0 594.379 448.025">
  <path d="M214.523,326.937c22.478,5.12,45.349,5.468,67.223-2.593,20.82-7.673,38.215-22.886,53.358-38.679,32.351-33.74,59.472-72.34,88.5-108.865,24.413-30.717,62.565-73.703,106.75-55.077,39.492,16.647,47.387,76.722,53.361,113.494,7.828,48.183,11.191,98.529,10.597,147.344-.253,20.783-5.641,41.99-23.198,54.916-16.296,11.998-39.712,13.098-57.717,4.504-40.209-19.192-29.711-70.785-30.312-106.975-.386-23.237-1.351-46.817-4.503-69.863-.872-6.373-1.872-26.74-8.336-29.716-6.702-3.085-17.94,13.686-21.49,17.623-31.997,35.487-62.067,79.238-105.814,101.3-43.361,21.867-97.069,9.536-128.42-27.413Z" fill="#dfe9ff"/>
  <path d="M322.881,277.692c-22.438,30.684-64.298,44.181-100.641,35.375-38.483-9.324-60.938-44.458-86.924-71.089-8.993-9.216-12.91-6.715-15.782,5.138-2.437,10.059-3.839,20.397-4.782,30.691-1.91,20.85-2.921,41.746-2.92,62.679.001,34.324,8.118,80.222-27.637,100.303-36.128,20.291-77.55-4.594-82.913-43.6-2.745-19.962-.358-41.282.48-61.352.861-20.626,2.186-41.197,4.147-61.755,3.777-39.592,9.659-81.823,26.393-118.293,6.73-14.667,17.432-28.878,33.023-34.715,18.358-6.873,38.794-3.372,55.413,6.296,18.325,10.659,33.007,28.206,46.242,44.442,15,18.401,28.851,37.719,44.06,55.953,13.522,16.212,28.591,33.336,47.533,43.302,9.993,5.258,21.06,8.29,32.319,9.09,10.918.776,21.257-2.466,31.986-2.466Z" fill="#f4c14b"/>
  <path d="M297.453,37.376c36.302.089,67.018,25.746,74.732,60.994,8.364,38.217-20.789,77.042-42.312,105.982-5.681,7.639-11.526,15.179-17.542,22.558-3.094,3.795-11.11,16.83-16.014,15.957-4.685-.834-14.214-16.645-17.162-20.28-6.115-7.538-12.038-15.198-17.665-23.108-19.661-27.634-45.119-61.964-39.417-97.792,5.853-36.772,38.209-64.312,75.379-64.312ZM297.709,65.047c-27.302-.314-47.839,21.695-47.714,47.425.137,28.162,22.954,47.5,47.805,47.544,25.181.044,47.389-21.579,47.028-48.234-.342-25.29-21.425-47.267-47.12-46.735Z" fill="#f6cc6b"/>
  <path d="M126.731.095c30.158-.198,55.112,23.669,55.451,54.017.339,30.352-26.376,56.448-56.827,54.938-28.124-1.395-50.709-23.408-52.997-51.274C69.965,28.609,96.307-1.921,126.731.095Z" fill="#ffd178"/>
  <path d="M468.102.023c30.196-.191,54.504,24.735,54.327,54.293-.194,32.36-25.23,54.371-54.426,54.607-29.791.241-54.949-23.632-54.917-54.564.032-30.921,25.167-54.734,55.015-54.337Z" fill="#cbd7ff"/>
  <path d="M317.961,113.881c-.637-8.615-5.816-15.023-14.347-17.139-1.953,1.921-.609,8.575-.619,10.968-.026,6.184.285,12.442.051,18.62-.333,8.802-4.968,15.269-14.547,16.033-6.98.557-15.368-3.797-13.433-11.858,2.452-10.215,14.271-10.564,22.335-9.144.412-13.934-.141-27.753.194-41.432,3.875-3.263,12.658,8.092,15.392,10.607,6.804,6.256,10.985,14.936,4.974,23.344Z" fill="#cbd7ff"/>
</svg>
