<?xml version="1.0" encoding="UTF-8"?><svg id="a" xmlns="http://www.w3.org/2000/svg" viewBox="0 0 429.028 396.018"><path d="M261.214,395.565c-.683-1.477-.431-2.782-.431-4.046.002-19.066.032-38.132.034-57.199,0-1.362.311-2.795-.432-4.02-1.609-.303-2.547.777-3.681,1.295-7.712,3.52-15.568,4.428-23.615,1.258-13.575-5.347-14.653-18.75-9.432-26.954,5.956-9.359,14.594-14.667,25.957-14.943,3.242-.079,6.437.16,9.495,1.365.479.189.98.31,1.658-.079.524-1.226-.081-2.628-.064-4.006.131-10.56-.169-21.122.184-31.684.18-5.4.045-10.809.057-16.215.004-2.097-.44-4.097-1.51-5.895-1.614-2.711-4.005-4.297-7.192-4.558-.769-.063-1.546-.032-2.319-.033-23.844-.002-47.689-.002-71.533-.002-.387,0-.774-.01-1.16,0-5.184.132-8.917,3.722-8.964,8.963-.093,10.305-.025,20.612-.022,30.918.012,40.967.025,81.933.037,122.9,0,.892,0,1.783,0,2.581-1.566,1.182-3.169.718-4.657.72-19.204.02-38.409-.007-57.613-.02-9.924-.007-19.852.141-29.772-.065-8.499-.177-15.473-3.744-20.351-10.787-3.136-4.528-4.646-9.58-4.627-15.246.116-34.139.062-68.278.058-102.417-.002-14.815.035-29.63-.087-44.445-.021-2.541.685-4.29,2.636-5.965,14.563-12.502,29.039-25.105,43.535-37.685,8.658-7.513,17.293-15.052,25.953-22.563,10.994-9.536,22.021-19.034,32.997-28.591,9.519-8.288,18.965-16.659,28.485-24.946,6.12-5.327,12.325-10.557,18.472-15.853,2.927-2.522,5.796-5.111,8.717-7.64.761-.659,1.405-1.51,2.782-1.831,2.602,2.197,5.449,4.404,8.069,6.853,5.369,5.019,11.102,9.611,16.635,14.437,10.968,9.565,21.945,19.12,32.927,28.668,11.373,9.888,22.758,19.761,34.134,29.646,10.21,8.872,20.407,17.757,30.623,26.622,8.561,7.429,17.138,14.838,25.712,22.251,4.189,3.622,8.318,7.318,12.614,10.808,1.775,1.442,2.448,2.994,2.436,5.256-.082,15.845-.052,31.691-.051,47.536.002,33.237-.014,66.474.04,99.711.006,3.944-.701,7.618-2.381,11.201-4.582,9.775-12.558,14.401-22.983,14.978-6.296.348-12.628.067-18.943.066-22.684-.003-45.369-.001-68.053-.022-1.404-.001-2.835.218-4.372-.324Z" fill="#464cd7" stroke-width="0"/><path d="M214.725,51.348c-1.42.23-2.174,1.17-3.034,1.913-5.847,5.053-11.672,10.131-17.51,15.194-11.286,9.789-22.594,19.553-33.86,29.365-14.276,12.434-28.506,24.92-42.779,37.357-10.875,9.476-21.79,18.905-32.677,28.367-9.723,8.449-19.432,16.914-29.146,25.373-6.703,5.837-13.331,11.764-20.129,17.488-5.401,4.547-11.643,6.607-18.71,4.95-12.101-2.838-20.963-15.992-14.944-29.512,1.18-2.65,2.929-4.857,5.064-6.748,7.424-6.577,14.871-13.129,22.347-19.647,6.991-6.095,14.037-12.127,21.044-18.203,10.219-8.86,20.439-17.72,30.636-26.607,11.848-10.327,23.659-20.695,35.506-31.023,13.301-11.595,26.625-23.164,39.935-34.748,10.396-9.048,20.775-18.115,31.183-27.148,5.251-4.558,10.655-8.945,15.8-13.617,6.286-5.708,16.686-5.231,22.278.102,1.766,1.684,3.476,3.555,5.4,4.918,3.359,2.38,5.637,5.953,9.302,7.929.764.412,1.373,1.161,1.96,1.836.843.97,1.619,1.97,2.888,2.461.458.177.893.557,1.202.952,2.551,3.258,6.436,5.034,9.063,8.241,1.022,1.248,2.613,2.014,3.877,3.082,3.495,2.953,7.165,5.741,10.363,8.99,2.786,2.831,5.952,5.21,8.908,7.795,3.041,2.659,6,5.477,9.322,7.876,3.745,2.705,7.075,5.984,10.585,9.014.293.253.606.489.862.775,1.241,1.384,2.571,1.371,4.139.496,4.139-2.31,8.67-3.152,13.35-3.466,3.395-.228,6.674.363,9.947,1.106.619.14,1.231.312,1.792.456,1.144-.839.746-1.946.747-2.89.008-12.883-.035-25.766-.035-38.648,0-6.312.066-12.625.102-18.937,0-.129-.001-.258.003-.386.145-4.594,1.209-5.69,5.786-5.778,2.834-.054,5.671.01,8.507.011,1.977.001,3.463.833,4.45,2.556.448.782.944,1.536,1.39,2.32,2.648,4.656,6.149,8.557,10.38,11.829,4.084,3.158,7.899,6.614,11.402,10.412,3.741,4.056,6.554,8.621,7.553,14.116,1.531,8.423-.213,16.121-5.368,22.998-.38.507-.84.999-1.364,1.345-1.441.95-3.258.139-3.501-1.579-.144-1.014-.065-2.057-.117-3.085-.324-6.418-2.791-11.656-8.197-15.423-4.343-3.026-8.997-5.382-13.651-7.37-1.106.743-.899,1.565-.898,2.302.016,14.3-.09,28.602.124,42.899.106,7.091-1.298,13.538-5.821,19.136-.146.18-.146.478-.235.796.445,1.234,1.596,1.907,2.545,2.729,10.615,9.19,21.264,18.34,31.874,27.536,10.511,9.111,20.984,18.265,31.48,27.394,5.151,4.48,10.187,9.106,15.506,13.379,7.45,5.987,9.69,16.175,5.793,25.201-4.109,9.515-15.668,14.559-25.593,11.303-2.943-.965-5.684-2.311-8.044-4.381-5.519-4.844-11.068-9.653-16.602-14.479-13.981-12.192-27.944-24.405-41.948-36.571-11.085-9.631-22.239-19.183-33.324-28.813-11.279-9.799-22.503-19.661-33.77-29.474-7.285-6.346-14.669-12.58-21.89-18.999-6.932-6.162-14.22-11.91-20.971-18.284-2.894-2.732-6.066-5.171-9.124-7.728-.381-.319-.839-.547-1.151-.747Z" fill="#464cd7" stroke-width="0"/></svg>