<?xml version="1.0" encoding="UTF-8"?><svg id="a" xmlns="http://www.w3.org/2000/svg" viewBox="0 0 439.996 449.478"><path d="M66.561,364.716c-1.39-.886-2.579-.591-3.708-.592-4.897-.007-9.796.126-14.692.055-13.913-.202-25.425-5.793-34.84-15.854-2.461-2.63-4.637-5.521-6.488-8.637-4.585-7.716-6.759-16.086-6.781-25.025-.03-12.109-.012-24.218-.013-36.327C.037,202.849.062,127.362,0,51.874c-.007-8.921,1.32-17.46,5.676-25.331C14.979,9.736,29.147.294,48.477.15c39.049-.292,78.101-.067,117.152-.067,74.751,0,149.502-.003,224.253-.018,4.393,0,8.755.125,13.021,1.356,14.167,4.09,25.121,12.073,31.732,25.591,3.579,7.319,5.369,14.92,5.361,23.073-.048,52.558-.006,105.116-.002,157.674.003,35.167-.008,70.335-.011,105.502,0,4.642-.102,9.273-1.396,13.784-4.624,16.114-14.5,27.581-30.118,33.944-5.306,2.162-10.817,3.162-16.57,3.16-69.596-.035-139.192-.024-208.788-.025-.516,0-1.039.054-1.545-.016-2.365-.327-4.05.583-5.774,2.275-5.514,5.412-11.237,10.612-16.901,15.87-7.74,7.185-15.492,14.358-23.252,21.52-10.978,10.132-21.975,20.245-32.952,30.378-3.407,3.145-6.771,6.337-10.167,9.493-1.036.963-2.069,1.938-3.182,2.809-7.614,5.962-18.573,2.743-21.844-6.399-.703-1.964-.91-3.993-.907-6.077.035-21.384.043-42.768.051-64.151,0-1.771-.052-3.542-.077-5.109ZM298.913,203.262c-1.533.276-2.453-.614-3.526-.974-6.04-2.03-12.106-3.289-18.559-2.079-7.974,1.496-14.96,4.741-20.454,10.779-5.618,6.173-8.685,13.523-8.051,21.859.719,9.449,5.1,17.202,12.905,22.765,9.925,7.074,20.822,8.134,32.393,5.051,13.568-3.615,24.453-18.397,23.356-31.424-.01-36.715-.022-73.429-.027-110.144-.002-12.367-.261-24.743.123-37.098.253-8.133-8.37-16.426-17.099-14.249-4.736,1.181-9.487,2.337-14.242,3.456-12.522,2.946-25.069,5.791-37.594,8.725-20.412,4.781-40.805,9.642-61.233,14.353-2.593.598-4.801,1.687-6.777,3.317-4.215,3.475-6.407,7.955-6.406,13.459.004,13.397,0,26.795.006,40.192.012,25.636.037,51.271.02,76.907,0,1.347.405,2.797-.37,4.006-1.412.313-2.386-.46-3.436-.872-2.848-1.119-5.822-1.996-8.806-2.292-11.894-1.181-22.159,2.505-30.334,11.289-7.27,7.811-8.837,17.209-6.67,27.355,1.23,5.758,4.761,10.259,8.929,14.176,8.949,8.411,19.763,10.744,31.538,8.611,17.395-3.152,28.163-18.776,26.955-32.79-.021-35.813-.045-71.625-.056-107.438,0-1.012-.218-2.065.483-3.268,34.969-8.204,70.121-16.453,105.278-24.681.459-.107.978.041,1.438.068.503,3.044.69,75.9.216,80.942Z" fill="#4645da" stroke-width="0"/></svg>