<?xml version="1.0" encoding="UTF-8"?><svg id="a" xmlns="http://www.w3.org/2000/svg" viewBox="0 0 316.72 316.621"><path d="M164.91,246.956c-1.198.326-2.107-.306-3.087-.539-6.274-1.491-12.261-.823-18.152,1.891-5.922,2.729-9.052,7.42-10.576,13.504-.856,3.419.895,7.591,2.806,9.535,3.423,3.484,7.549,5.23,12.358,5.616,7.12.571,13.506-1.157,19.124-5.692,4.292-3.465,6.557-7.853,6.582-13.361.041-9.147.048-18.294.058-27.441.004-2.963-.058-5.926-.029-8.889.027-2.705.13-2.899,2.634-3.377,6.132-1.17,11.86-3.382,17.372-6.282,3.672-1.932,7.024-4.252,9.766-7.095,1.078-.136,1.354.546,1.662,1.064,2.163,3.625,5.249,6.33,8.667,8.687,4.784,3.299,9.865,6.027,15.26,8.24,14.535,5.96,29.045,11.984,43.5,18.134,8.308,3.534,16.236,7.85,23.867,12.674,6.515,4.118,12.051,9.255,15.711,16.163.841,1.588,1.813,3.203,2.177,4.921.365,1.724,1.147,3.301,1.437,5.013.301,1.775.593,3.576.616,5.369.068,5.279.093,10.562-.036,15.84-.185,7.583-6.008,13.459-11.881,15.071-2.271.623-4.59.609-6.907.61-14.823.01-29.646.004-44.469.005-77.461.002-154.922.005-232.383,0-2.19,0-4.386-.003-6.569-.15-5.904-.398-11.595-4.96-13.401-10.624-.631-1.979-1.013-3.994-1.012-6.074.003-4.766-.032-9.533.038-14.299.103-7.027,2.33-13.327,6.272-19.165,3.386-5.014,7.789-8.824,12.805-12.013,6.38-4.057,12.832-8.03,19.699-11.2,6.631-3.062,13.438-5.745,20.179-8.567,7.294-3.053,14.599-6.081,21.904-9.107,2.597-1.076,5.2-2.136,7.814-3.168,6.511-2.572,12.22-6.46,17.7-10.729,2.271-1.769,4.04-3.922,5.264-6.547,3.274-7.02,4.303-14.217,2.06-21.772-.863-2.906-2.258-5.457-4.24-7.718-7.963-9.083-14.087-19.334-19.185-30.232-4.074-8.709-7.447-17.681-9.607-27.061-3.221-13.982-5.191-28.091-4.191-42.508.82-11.829,3.454-23.25,8.699-33.836,6.924-13.976,17.349-24.845,31.256-32.168C127.83,3.701,139.943.566,152.777.111c8.398-.298,16.752-.073,25.006,1.633,9.922,2.051,19.391,5.356,27.862,11.006,15.004,10.008,25.312,23.492,30.513,40.931,4.16,13.947,4.887,28.072,3.584,42.427-.689,7.589-2.174,15.041-3.917,22.44-.601,2.549-1.656,4.987-2.432,7.498-2.424,7.847-5.59,15.391-8.978,22.866-2.175,4.8-4.96,9.174-7.954,13.471-1.231,1.767-2.327,3.629-3.583,5.396-2.95,4.15-6.027,8.169-9.769,11.651-2.724,2.534-5.049,5.475-8.188,7.591-6.312,4.254-13.141,7.419-20.329,9.827-1.692.567-3.513.771-5.287,1.06-3.522.573-4.111,1.17-4.11,4.77.006,13.398.058,26.797.057,40.195,0,1.369.372,2.81-.344,4.083Z" fill="#454ad9" stroke-width="0"/></svg>