<?xml version="1.0" encoding="UTF-8"?><svg id="a" xmlns="http://www.w3.org/2000/svg" viewBox="0 0 532.881 543.494"><path d="M168.489,327.782c-2.543-3.92-5.112-7.912-7.712-11.883-8.444-12.899-14.851-26.793-19.956-41.291-4.459-12.665-7.684-25.654-9.474-38.979-2.029-15.108-2.695-30.238-1.545-45.48,1.317-17.448,4.771-34.437,10.248-51.004,5.605-16.955,13.401-32.91,23.239-47.817,12.154-18.415,26.865-34.516,44.175-48.254,14.221-11.286,29.691-20.497,46.355-27.579,13.173-5.598,26.767-10.068,40.967-12.404.862-.142,1.744-.468,2.23-.204.802.473.746.92.67,1.257-1.501,6.727-1.341,13.58-1.414,20.394-.099,9.272.095,18.548.154,27.822.002.381-.089.762-.132,1.103-.665.793-1.591.887-2.459,1.087-17.019,3.93-32.705,11.045-47.255,20.532-13.242,8.634-24.86,19.208-34.76,31.586-9.717,12.148-17.575,25.373-23.362,39.843-9.163,22.91-12.675,46.68-10.554,71.191,1.601,18.495,6.397,36.206,14.479,53.013,9.351,19.444,22.207,36.143,38.536,50.207,19.339,16.657,41.543,27.558,66.479,32.887,16.02,3.423,32.167,4.203,48.411,1.781,21.861-3.259,42.037-10.919,60.53-23.059,14.581-9.572,27.106-21.306,37.651-35.173,8.467-11.134,15.427-23.138,20.453-36.2,2.908-7.556,5.605-15.211,7.315-23.142,2.643-12.261,3.788-24.684,3.462-37.228-.444-17.135-3.481-33.779-9.431-49.883-3.534-9.565-7.825-18.761-13.183-27.438-1.504-2.435-2.661-4.985-3.557-7.683-6.612-19.914-16.772-37.793-30.684-53.531-5.119-5.791-10.162-11.648-15.245-17.469-7.092-8.122-12.32-17.447-17.162-26.983-1.562-3.076-2.45-6.495-3.618-9.767-.112-.314-.015-.702-.015-.98.699-.545,1.349-.376,1.936-.161,2.998,1.099,6.272,1.462,8.971,3.366.626.442,1.453.445,2.142.624,8.264,2.152,15.995,5.608,23.562,9.452,15.812,8.032,30.392,17.9,43.739,29.583,13.951,12.21,25.961,26.108,36.127,41.597,13.781,20.996,23.405,43.73,28.772,68.29,3.897,17.831,5.963,35.831,5.12,54.068-1.157,25.032-6.289,49.224-16.043,72.389-4.46,10.592-9.797,20.685-15.932,30.403-8.986,14.235-19.474,27.215-31.619,38.86-16.406,15.731-34.769,28.665-55.416,38.228-9.004,4.17-18.338,7.547-27.857,10.386-19.04,5.679-38.507,8.329-58.357,7.887-26.604-.593-52.047-6.399-76.394-17.188-11.002-4.876-21.388-10.759-31.283-17.567-1.248-.859-2.402-1.93-3.897-2.327-1.349.499-2.106,1.589-3.004,2.482-6.579,6.542-13.098,13.145-19.73,19.634-1.43,1.399-1.982,2.727-1.684,4.752.889,6.054-.508,11.776-3.043,17.255-1.039,2.246-2.581,4.149-4.319,5.894-7.727,7.763-15.465,15.515-23.186,23.285-11.261,11.334-22.501,22.689-33.77,34.017-4.361,4.384-8.776,8.713-13.162,13.072-8.679,8.627-17.364,17.249-26.025,25.894-2.46,2.456-4.776,5.058-7.275,7.472-13.486,13.024-29.294,18.135-47.508,12.566-26.517-8.109-39.735-37.164-29.989-62.049,2.488-6.353,6.171-11.858,10.986-16.637,10.061-9.985,20.166-19.926,30.204-29.934,9.03-9.004,17.972-18.098,26.995-27.109,8.476-8.464,17.012-16.868,25.513-25.308,7.223-7.17,14.438-14.348,21.647-21.532,5.618-5.599,12.469-8.022,20.305-7.869,1.28.025,2.585.158,3.825.462,1.53.374,2.664.104,3.811-1.06,7.146-7.25,14.358-14.434,21.54-21.649.174-.175.258-.439.461-.799Z" fill="#4948dc" stroke-width="0"/><path d="M354.083,129.649c-.567,1.541-.343,3.097-.343,4.615.011,37.223.022,74.445.084,111.668.009,5.438-.89,10.719-2.518,15.851-2.813,8.869-8.16,16.058-15.618,21.528-8.107,5.946-17.121,9.905-27.174,11.345-13.828,1.98-27.114.096-39.329-6.604-12.048-6.608-20.87-16.233-24.244-30.033-2.252-9.21-1.364-18.151,2.523-26.77,5.784-12.826,15.796-21.199,28.756-25.904,15.708-5.703,31.526-5.634,47.148.726.348.142.734.189,1.131.287.695-1.087.382-2.258.383-3.36.019-46.882.016-93.764.017-140.646,0-15.456.008-30.912.006-46.367,0-3.687.7-7.112,3.055-10.13,7.489-9.595,20.533-6.529,24.664,2.929.666,1.525,1.157,3.141,1.592,4.751,3.285,12.178,8.996,23.245,15.619,33.872,4.298,6.896,9.282,13.303,14.643,19.408,4.248,4.837,8.676,9.52,12.822,14.442,12.614,14.975,21.793,31.767,26.933,50.753,2.951,10.898,4.523,21.958,4.527,33.197.006,16.038-3.434,31.399-9.725,46.169-3.715,8.722-8.735,16.618-14.386,24.156-3.42,4.561-8.029,5.545-12.919,2.863-3.421-1.876-5.154-5.561-4.515-9.449.321-1.953,1.277-3.621,2.136-5.351,6.538-13.169,9.049-27.059,6.951-41.628-1.865-12.951-7.37-24.242-16.007-34.125-6.653-7.612-14.621-13.312-23.637-17.691-.688-.334-1.342-.789-2.576-.503Z" fill="#4948dc" stroke-width="0"/></svg>