<?xml version="1.0" encoding="UTF-8"?><svg id="a" xmlns="http://www.w3.org/2000/svg" viewBox="0 0 459.373 458.793"><path d="M412.229,92.932c.039,3.642-1.005,6.619-2.966,9.306-6.831,9.36-13.651,18.727-20.477,28.09-.379.52-.743,1.057-1.17,1.537-2.855,3.216-3.045,6.601-.874,10.283,4.262,7.23,7.379,14.997,10.574,22.73,1.971,4.77,3.586,9.67,4.722,14.675,1.153,5.079,3.873,7.657,9.138,8.276,9.457,1.112,18.854,2.701,28.19,4.621,1.887.388,3.811.653,5.731.819,8.458.731,14.163,8.649,14.23,16.192.019,2.19.046,4.38.045,6.57-.005,10.692-.025,21.385-.023,32.077,0,2.336-.227,4.618-1.056,6.829-2.274,6.069-6.612,9.618-12.985,10.698-5.331.903-10.659,1.822-15.999,2.67-6.614,1.05-13.227,2.124-19.864,3.007-3.045.405-4.937,2.007-6.075,4.679-.502,1.179-.846,2.428-1.223,3.657-3.748,12.208-8.457,24.022-14.468,35.304-.605,1.136-1.151,2.305-1.765,3.436-1.442,2.653-1.26,5.138.552,7.581,2.607,3.516,5.129,7.095,7.701,10.638,4.994,6.877,10.023,13.729,14.987,20.627,3.551,4.935,3.797,10.28,1.543,15.769-.985,2.4-2.691,4.379-4.521,6.215-4.91,4.929-9.826,9.852-14.741,14.775-3.186,3.191-6.381,6.373-9.562,9.569-1.818,1.826-3.613,3.66-5.818,5.056-6.066,3.839-12.128,3.937-18.113-.057-3.426-2.286-6.746-4.735-10.054-7.192-5.893-4.377-12.001-8.463-17.66-13.158-1.379-1.144-2.949-2.07-4.489-3.001-1.902-1.15-3.862-1.239-5.876-.156-1.813.975-3.707,1.801-5.522,2.773-10.478,5.612-21.504,9.89-32.798,13.522-.98.315-1.96.643-2.959.887-4.133,1.007-6.29,3.659-6.883,7.832-.706,4.97-1.551,9.921-2.39,14.871-1.161,6.851-2.298,13.708-3.588,20.535-.988,5.229-3.798,9.218-8.646,11.653-1.748.878-3.539,1.533-5.526,1.545-.772.004-1.545.103-2.317.103-13.146.006-26.293-.022-39.439.016-5.289.015-9.412-2.245-12.739-6.185-1.966-2.328-2.998-5.098-3.509-8.048-1.8-10.386-3.553-20.78-5.306-31.174-.171-1.014-.2-2.051-.335-3.072-.56-4.248-2.683-7.106-7.022-8.179-4.624-1.143-9.089-2.779-13.541-4.48-7.823-2.988-15.542-6.181-22.876-10.25-1.238-.687-2.529-1.277-3.761-1.973-2.475-1.397-4.84-1.362-7.291.166-2.078,1.296-4.099,2.65-6.074,4.102-8.505,6.256-17.038,12.473-25.607,18.641-6.214,4.473-13.866,4.282-20.301-1.084-.396-.33-.791-.663-1.155-1.027-9.375-9.393-18.818-18.72-28.086-28.219-4.444-4.555-6.056-10.065-4.169-16.35.45-1.499,1.206-2.834,2.117-4.094,3.773-5.215,7.53-10.442,11.312-15.651,3.253-4.48,6.53-8.943,9.797-13.412.228-.312.448-.632.7-.923,2.903-3.345,3.052-6.861.888-10.678-4.068-7.176-7.496-14.657-10.45-22.36-1.935-5.046-3.851-10.095-5.286-15.312-.273-.992-.573-1.978-.911-2.949-.97-2.789-2.822-4.491-5.84-4.928-4.584-.664-9.138-1.548-13.73-2.138-5.365-.69-10.69-1.582-16.002-2.576-2.526-.473-5.08-.804-7.597-1.317C3.985,263.484-.02,255.548.005,249.684c.019-4.509-.008-9.018-.005-13.526.005-8.627.042-17.255.012-25.882-.012-3.441.774-6.633,2.58-9.561,2.431-3.94,5.924-6.445,10.475-7.252,7.854-1.394,15.731-2.661,23.602-3.955,4.443-.731,8.885-1.488,13.346-2.089,3.516-.474,5.51-2.53,6.552-5.724.478-1.465.856-2.962,1.284-4.443,2.829-9.797,6.723-19.171,11.267-28.286,1.033-2.073,2.003-4.19,3.2-6.168,2.459-4.063,2.023-7.732-.921-11.387-2.583-3.207-4.945-6.592-7.375-9.92-4.632-6.343-9.231-12.71-13.865-19.051-2.732-3.738-3.595-7.88-2.954-12.426.391-2.774,1.637-5.148,3.282-7.31,1.165-1.531,2.513-2.936,3.875-4.302,6.822-6.844,13.682-13.65,20.512-20.486,1.274-1.275,2.442-2.655,3.714-3.932,3.257-3.271,6.958-5.673,11.723-6.115,3.592-.333,6.929.283,9.947,2.289,1.607,1.068,3.168,2.209,4.723,3.352,8.404,6.177,16.798,12.369,25.204,18.543.829.609,1.727,1.123,2.582,1.697,2.12,1.425,4.288,1.572,6.55.327,1.353-.745,2.763-1.388,4.108-2.146,11.608-6.544,23.894-11.494,36.711-15.016,4.81-1.322,7.135-4.058,7.847-8.778,1.228-8.137,2.611-16.251,3.94-24.373.519-3.171,1.061-6.339,1.604-9.506,1.473-8.591,7.882-14.118,16.675-14.17,13.017-.077,26.036.083,39.052-.087,7.705-.101,14.992,5.749,16.276,13.246,1.454,8.488,3.006,16.959,4.486,25.443.596,3.42,1.206,6.841,1.643,10.283.536,4.214,2.752,6.704,6.896,7.749,9.385,2.365,18.342,5.942,27.172,9.862,4.127,1.832,8.068,4.007,12.027,6.161,4.807,2.615,5.093,3.791,11.49-.765,8.18-5.826,16.165-11.924,24.247-17.888,1.761-1.3,3.541-2.578,5.368-3.783,5.75-3.794,13.235-3.478,19.108,1.104.81.632,1.566,1.344,2.292,2.073,8.09,8.126,16.178,16.255,24.244,24.405,1.358,1.372,2.662,2.805,3.9,4.286,2.667,3.191,3.96,6.886,3.829,10.755ZM348.42,229.71c.442-64.613-52.669-118.715-118.093-119.069-66.122-.357-119.554,53.766-119.526,118.478.029,68.695,56.856,119.173,119.345,118.967,64.587-.213,118.448-53.633,118.274-118.377Z" fill="#484ad6" stroke-width="0"/><path d="M237.701,198.433c0,3.503-.006,6.838.001,10.172.029,13.262.073,26.525.091,39.787.01,7.715-.224,15.436.017,23.143.374,11.955-9.003,22.918-18.189,26.35-6.505,2.431-13.15,3.817-20.027,2.177-10.909-2.602-18.773-8.932-22.301-19.777-2.218-6.819-1.163-13.58,2.374-19.746,5.637-9.825,14.497-14.643,25.625-15.435,4.937-.351,9.754.426,14.311,2.488.344.156.715.259,1.08.36.115.032.254-.023.393-.039.597-.795.312-1.71.312-2.578.009-24.851.019-49.702-.006-74.552-.003-2.492.377-4.84,1.48-7.098,1.356-2.775,3.79-4.129,6.538-4.919,2.092-.601,4.292-.779,6.505-.696,1.425.054,2.399.577,3.163,1.798,1.228,1.961,2.559,3.859,3.9,5.745,1.733,2.438,3.831,4.514,6.387,6.094,4.924,3.044,9.869,6.053,14.777,9.123,1.962,1.227,3.941,2.457,5.755,3.886,8.361,6.586,13.056,15.135,13.186,25.872.064,5.316-1.364,10.411-3.405,15.31-.715,1.715-1.818,3.026-3.756,3.557-1.177.322-1.943,0-2.701-.835-.9-.991-1.353-2.163-1.642-3.433-.483-2.124-.949-4.253-1.478-6.366-1.414-5.645-4.832-9.844-9.509-13.15-5.368-3.794-11.396-5.886-17.833-6.807-1.495-.214-2.956-.991-5.05-.43Z" fill="#484ad6" stroke-width="0"/></svg>